<svg width="26" height="26" viewBox="0 0 26 26" fill="none" xmlns="http://www.w3.org/2000/svg">
<path d="M13 26C11.2017 26 9.51167 25.6585 7.93 24.9756C6.34833 24.2935 4.9725 23.3675 3.8025 22.1975C2.6325 21.0275 1.70647 19.6517 1.0244 18.07C0.341467 16.4883 0 14.7983 0 13C0 11.2017 0.341467 9.51167 1.0244 7.93C1.70647 6.34833 2.6325 4.9725 3.8025 3.8025C4.9725 2.6325 6.34833 1.70603 7.93 1.0231C9.51167 0.341033 11.2017 0 13 0C14.7983 0 16.4883 0.341033 18.07 1.0231C19.6517 1.70603 21.0275 2.6325 22.1975 3.8025C23.3675 4.9725 24.2935 6.34833 24.9756 7.93C25.6585 9.51167 26 11.2017 26 13C26 14.7983 25.6585 16.4883 24.9756 18.07C24.2935 19.6517 23.3675 21.0275 22.1975 22.1975C21.0275 23.3675 19.6517 24.2935 18.07 24.9756C16.4883 25.6585 14.7983 26 13 26ZM13 23.4C15.8817 23.4 18.3356 22.3873 20.3619 20.3619C22.3873 18.3356 23.4 15.8817 23.4 13C23.4 10.1183 22.3873 7.66437 20.3619 5.6381C18.3356 3.6127 15.8817 2.6 13 2.6C10.1183 2.6 7.6648 3.6127 5.6394 5.6381C3.61313 7.66437 2.6 10.1183 2.6 13C2.6 15.8817 3.61313 18.3356 5.6394 20.3619C7.6648 22.3873 10.1183 23.4 13 23.4ZM9.1 18.2H16.9C17.2683 18.2 17.5773 18.0752 17.8269 17.8256C18.0756 17.5769 18.2 17.2683 18.2 16.9V9.1C18.2 8.73167 18.0756 8.4227 17.8269 8.1731C17.5773 7.92437 17.2683 7.8 16.9 7.8H9.1C8.73167 7.8 8.42313 7.92437 8.1744 8.1731C7.9248 8.4227 7.8 8.73167 7.8 9.1V16.9C7.8 17.2683 7.9248 17.5769 8.1744 17.8256C8.42313 18.0752 8.73167 18.2 9.1 18.2Z" fill="#9DA0A6"/>
</svg>
