<svg width="28" height="28" viewBox="0 0 28 28" fill="none" xmlns="http://www.w3.org/2000/svg">
<path d="M14 28C12.0633 28 10.2433 27.6323 8.54 26.8968C6.83667 26.1623 5.355 25.165 4.095 23.905C2.835 22.645 1.83773 21.1633 1.1032 19.46C0.367733 17.7567 0 15.9367 0 14C0 12.0633 0.367733 10.2433 1.1032 8.54C1.83773 6.83667 2.835 5.355 4.095 4.095C5.355 2.835 6.83667 1.83727 8.54 1.1018C10.2433 0.367267 12.0633 0 14 0C15.9367 0 17.7567 0.367267 19.46 1.1018C21.1633 1.83727 22.645 2.835 23.905 4.095C25.165 5.355 26.1623 6.83667 26.8968 8.54C27.6323 10.2433 28 12.0633 28 14C28 15.9367 27.6323 17.7567 26.8968 19.46C26.1623 21.1633 25.165 22.645 23.905 23.905C22.645 25.165 21.1633 26.1623 19.46 26.8968C17.7567 27.6323 15.9367 28 14 28ZM14 25.2C17.1033 25.2 19.7461 24.1094 21.9282 21.9282C24.1094 19.7461 25.2 17.1033 25.2 14C25.2 10.8967 24.1094 8.25393 21.9282 6.0718C19.7461 3.8906 17.1033 2.8 14 2.8C10.8967 2.8 8.2544 3.8906 6.0732 6.0718C3.89107 8.25393 2.8 10.8967 2.8 14C2.8 17.1033 3.89107 19.7461 6.0732 21.9282C8.2544 24.1094 10.8967 25.2 14 25.2ZM9.8 19.6H18.2C18.5967 19.6 18.9294 19.4656 19.1982 19.1968C19.4661 18.9289 19.6 18.5967 19.6 18.2V9.8C19.6 9.40333 19.4661 9.0706 19.1982 8.8018C18.9294 8.53393 18.5967 8.4 18.2 8.4H9.8C9.40333 8.4 9.07107 8.53393 8.8032 8.8018C8.5344 9.0706 8.4 9.40333 8.4 9.8V18.2C8.4 18.5967 8.5344 18.9289 8.8032 19.1968C9.07107 19.4656 9.40333 19.6 9.8 19.6Z" fill="#9DA0A6"/>
<rect x="8.23438" y="8.23633" width="11.5294" height="11.5294" fill="#F6F6F6"/>
<path d="M18.1171 19.2167H15.372V8.23633H18.1171V19.2167ZM12.6269 19.2167H9.88184V8.23633H12.6269V19.2167Z" fill="#9DA0A6"/>
</svg>
