<svg width="99" height="72" viewBox="0 0 99 72" fill="none" xmlns="http://www.w3.org/2000/svg">
<path d="M89.2118 16.1035H17.6013V63.676H89.2118V16.1035Z" fill="#4F46E5"/>
<mask id="mask0_137_11806" style="mask-type:alpha" maskUnits="userSpaceOnUse" x="17" y="16" width="73" height="48">
<path d="M89.2118 16.1035H17.6013V63.676H89.2118V16.1035Z" fill="#9BDEFF"/>
</mask>
<g mask="url(#mask0_137_11806)">
<path fill-rule="evenodd" clip-rule="evenodd" d="M18.1276 46.9823C18.2115 46.897 18.3481 46.8965 18.4326 46.9811L48.3704 76.9543C48.455 77.039 48.4555 77.1768 48.3716 77.2621C48.2877 77.3474 48.1512 77.348 48.0666 77.2633L18.1288 47.2901C18.0443 47.2054 18.0437 47.0676 18.1276 46.9823Z" fill="white"/>
<path fill-rule="evenodd" clip-rule="evenodd" d="M19.8754 4.93006C19.9826 4.87762 20.1116 4.92278 20.1636 5.03093L57.5874 82.9096C57.6394 83.0177 57.5946 83.1479 57.4875 83.2004C57.3803 83.2528 57.2513 83.2076 57.1993 83.0995L19.7754 5.22082C19.7235 5.11268 19.7682 4.9825 19.8754 4.93006Z" fill="white"/>
<path fill-rule="evenodd" clip-rule="evenodd" d="M60.9011 -8.07268C60.9969 -8.0013 61.0172 -7.86505 60.9465 -7.76835L12.4175 58.5654C12.3468 58.6621 12.2117 58.6826 12.1159 58.6112C12.0201 58.5398 11.9997 58.4036 12.0705 58.3069L60.5995 -8.02684C60.6702 -8.12354 60.8052 -8.14406 60.9011 -8.07268Z" fill="white"/>
<path fill-rule="evenodd" clip-rule="evenodd" d="M93.4998 23.8696C93.5941 23.9431 93.6115 24.0798 93.5386 24.1749L48.3893 83.1378C48.3165 83.2329 48.181 83.2504 48.0868 83.1769C47.9925 83.1034 47.9751 82.9667 48.0479 82.8716L93.1973 23.9088C93.2701 23.8137 93.4056 23.7962 93.4998 23.8696Z" fill="white"/>
<path fill-rule="evenodd" clip-rule="evenodd" d="M90.1654 13.8454C90.2334 13.944 90.2092 14.0797 90.1114 14.1483L12.3671 68.689C12.2693 68.7576 12.1349 68.7332 12.0669 68.6346C11.9989 68.5359 12.0231 68.4003 12.1209 68.3316L89.8652 13.7909C89.963 13.7223 90.0974 13.7467 90.1654 13.8454Z" fill="white"/>
<path fill-rule="evenodd" clip-rule="evenodd" d="M31.1603 -5.09646C31.2413 -5.18454 31.3778 -5.18965 31.4651 -5.10788L107.518 66.1398C107.606 66.2216 107.611 66.3593 107.53 66.4473C107.449 66.5354 107.312 66.5405 107.225 66.4588L31.1716 -4.78891C31.0843 -4.87068 31.0792 -5.00838 31.1603 -5.09646Z" fill="white"/>
<path fill-rule="evenodd" clip-rule="evenodd" d="M21.3083 -10.2954C21.4106 -10.357 21.543 -10.3232 21.6041 -10.22L76.6528 82.8923C76.7139 82.9955 76.6804 83.1291 76.5781 83.1907C76.4758 83.2522 76.3434 83.2185 76.2824 83.1152L21.2336 -9.99702C21.1726 -10.1002 21.206 -10.2338 21.3083 -10.2954Z" fill="white"/>
<path fill-rule="evenodd" clip-rule="evenodd" d="M50.9737 -11.7456C51.0637 -11.8243 51.1999 -11.8146 51.278 -11.7238L93.5308 37.4111C93.6089 37.5019 93.5992 37.6394 93.5093 37.7181C93.4193 37.7969 93.2831 37.7872 93.205 37.6964L50.9522 -11.4386C50.8741 -11.5294 50.8838 -11.6668 50.9737 -11.7456Z" fill="white"/>
<path fill-rule="evenodd" clip-rule="evenodd" d="M16.6346 32.7965C16.6833 32.6869 16.811 32.6379 16.9196 32.6871L109.151 74.4533C109.259 74.5026 109.308 74.6313 109.259 74.741C109.21 74.8507 109.083 74.8996 108.974 74.8504L16.743 33.0842C16.6343 33.035 16.5858 32.9062 16.6346 32.7965Z" fill="white"/>
<path fill-rule="evenodd" clip-rule="evenodd" d="M70.7396 -6.62781C70.8528 -6.5904 70.9145 -6.46749 70.8774 -6.35327L36.5938 99.2876C36.5567 99.4018 36.4349 99.4641 36.3217 99.4267C36.2085 99.3893 36.1468 99.2663 36.1839 99.1521L70.4675 -6.48871C70.5046 -6.60294 70.6264 -6.66521 70.7396 -6.62781Z" fill="white"/>
</g>
<path fill-rule="evenodd" clip-rule="evenodd" d="M15.408 14.1415C15.408 14.0213 15.5045 13.9238 15.6236 13.9238H16.6731C16.7923 13.9238 16.8888 14.0213 16.8888 14.1415C16.8888 14.2616 16.7923 14.3591 16.6731 14.3591H15.8393V15.2177C15.8393 15.3379 15.7427 15.4353 15.6236 15.4353C15.5045 15.4353 15.408 15.3379 15.408 15.2177V14.1415ZM18.5565 14.1415C18.5565 14.0213 18.6531 13.9238 18.7722 13.9238H20.8713C20.9904 13.9238 21.0869 14.0213 21.0869 14.1415C21.0869 14.2616 20.9904 14.3591 20.8713 14.3591H18.7722C18.6531 14.3591 18.5565 14.2616 18.5565 14.1415ZM22.7546 14.1415C22.7546 14.0213 22.8512 13.9238 22.9703 13.9238H25.0694C25.1885 13.9238 25.285 14.0213 25.285 14.1415C25.285 14.2616 25.1885 14.3591 25.0694 14.3591H22.9703C22.8512 14.3591 22.7546 14.2616 22.7546 14.1415ZM26.9527 14.1415C26.9527 14.0213 27.0493 13.9238 27.1684 13.9238H29.2675C29.3866 13.9238 29.4832 14.0213 29.4832 14.1415C29.4832 14.2616 29.3866 14.3591 29.2675 14.3591H27.1684C27.0493 14.3591 26.9527 14.2616 26.9527 14.1415ZM31.1509 14.1415C31.1509 14.0213 31.2474 13.9238 31.3665 13.9238H33.4656C33.5847 13.9238 33.6813 14.0213 33.6813 14.1415C33.6813 14.2616 33.5847 14.3591 33.4656 14.3591H31.3665C31.2474 14.3591 31.1509 14.2616 31.1509 14.1415ZM35.349 14.1415C35.349 14.0213 35.4455 13.9238 35.5647 13.9238H37.6637C37.7828 13.9238 37.8794 14.0213 37.8794 14.1415C37.8794 14.2616 37.7828 14.3591 37.6637 14.3591H35.5647C35.4455 14.3591 35.349 14.2616 35.349 14.1415ZM39.5471 14.1415C39.5471 14.0213 39.6436 13.9238 39.7628 13.9238H41.8618C41.9809 13.9238 42.0775 14.0213 42.0775 14.1415C42.0775 14.2616 41.9809 14.3591 41.8618 14.3591H39.7628C39.6436 14.3591 39.5471 14.2616 39.5471 14.1415ZM43.7452 14.1415C43.7452 14.0213 43.8418 13.9238 43.9609 13.9238H46.0599C46.179 13.9238 46.2756 14.0213 46.2756 14.1415C46.2756 14.2616 46.179 14.3591 46.0599 14.3591H43.9609C43.8418 14.3591 43.7452 14.2616 43.7452 14.1415ZM47.9433 14.1415C47.9433 14.0213 48.0399 13.9238 48.159 13.9238H50.258C50.3771 13.9238 50.4737 14.0213 50.4737 14.1415C50.4737 14.2616 50.3771 14.3591 50.258 14.3591H48.159C48.0399 14.3591 47.9433 14.2616 47.9433 14.1415ZM52.1414 14.1415C52.1414 14.0213 52.238 13.9238 52.3571 13.9238H54.4561C54.5753 13.9238 54.6718 14.0213 54.6718 14.1415C54.6718 14.2616 54.5753 14.3591 54.4561 14.3591H52.3571C52.238 14.3591 52.1414 14.2616 52.1414 14.1415ZM56.3395 14.1415C56.3395 14.0213 56.4361 13.9238 56.5552 13.9238H58.6542C58.7734 13.9238 58.8699 14.0213 58.8699 14.1415C58.8699 14.2616 58.7734 14.3591 58.6542 14.3591H56.5552C56.4361 14.3591 56.3395 14.2616 56.3395 14.1415ZM60.5376 14.1415C60.5376 14.0213 60.6342 13.9238 60.7533 13.9238H62.8524C62.9715 13.9238 63.068 14.0213 63.068 14.1415C63.068 14.2616 62.9715 14.3591 62.8524 14.3591H60.7533C60.6342 14.3591 60.5376 14.2616 60.5376 14.1415ZM64.7357 14.1415C64.7357 14.0213 64.8323 13.9238 64.9514 13.9238H67.0505C67.1696 13.9238 67.2661 14.0213 67.2661 14.1415C67.2661 14.2616 67.1696 14.3591 67.0505 14.3591H64.9514C64.8323 14.3591 64.7357 14.2616 64.7357 14.1415ZM68.9338 14.1415C68.9338 14.0213 69.0304 13.9238 69.1495 13.9238H71.2486C71.3677 13.9238 71.4642 14.0213 71.4642 14.1415C71.4642 14.2616 71.3677 14.3591 71.2486 14.3591H69.1495C69.0304 14.3591 68.9338 14.2616 68.9338 14.1415ZM73.1319 14.1415C73.1319 14.0213 73.2285 13.9238 73.3476 13.9238H75.4467C75.5658 13.9238 75.6623 14.0213 75.6623 14.1415C75.6623 14.2616 75.5658 14.3591 75.4467 14.3591H73.3476C73.2285 14.3591 73.1319 14.2616 73.1319 14.1415ZM77.33 14.1415C77.33 14.0213 77.4266 13.9238 77.5457 13.9238H79.6448C79.7639 13.9238 79.8605 14.0213 79.8605 14.1415C79.8605 14.2616 79.7639 14.3591 79.6448 14.3591H77.5457C77.4266 14.3591 77.33 14.2616 77.33 14.1415ZM81.5282 14.1415C81.5282 14.0213 81.6247 13.9238 81.7438 13.9238H83.8429C83.962 13.9238 84.0586 14.0213 84.0586 14.1415C84.0586 14.2616 83.962 14.3591 83.8429 14.3591H81.7438C81.6247 14.3591 81.5282 14.2616 81.5282 14.1415ZM85.7263 14.1415C85.7263 14.0213 85.8228 13.9238 85.9419 13.9238H88.041C88.1601 13.9238 88.2567 14.0213 88.2567 14.1415C88.2567 14.2616 88.1601 14.3591 88.041 14.3591H85.9419C85.8228 14.3591 85.7263 14.2616 85.7263 14.1415ZM89.9244 14.1415C89.9244 14.0213 90.0209 13.9238 90.1401 13.9238H91.1896C91.3087 13.9238 91.4053 14.0213 91.4053 14.1415V15.2177C91.4053 15.3379 91.3087 15.4353 91.1896 15.4353C91.0705 15.4353 90.9739 15.3379 90.9739 15.2177V14.3591H90.1401C90.0209 14.3591 89.9244 14.2616 89.9244 14.1415ZM91.1896 17.1525C91.3087 17.1525 91.4053 17.25 91.4053 17.3702V19.5226C91.4053 19.6428 91.3087 19.7403 91.1896 19.7403C91.0705 19.7403 90.9739 19.6428 90.9739 19.5226V17.3702C90.9739 17.25 91.0705 17.1525 91.1896 17.1525ZM15.6236 17.1525C15.7427 17.1525 15.8393 17.25 15.8393 17.3702V19.5226C15.8393 19.6428 15.7427 19.7403 15.6236 19.7403C15.5045 19.7403 15.408 19.6428 15.408 19.5226V17.3702C15.408 17.25 15.5045 17.1525 15.6236 17.1525ZM91.1896 21.4575C91.3087 21.4575 91.4053 21.5549 91.4053 21.6751V23.8276C91.4053 23.9478 91.3087 24.0452 91.1896 24.0452C91.0705 24.0452 90.9739 23.9478 90.9739 23.8276V21.6751C90.9739 21.5549 91.0705 21.4575 91.1896 21.4575ZM15.6236 21.4575C15.7427 21.4575 15.8393 21.5549 15.8393 21.6751V23.8276C15.8393 23.9478 15.7427 24.0452 15.6236 24.0452C15.5045 24.0452 15.408 23.9478 15.408 23.8276V21.6751C15.408 21.5549 15.5045 21.4575 15.6236 21.4575ZM91.1896 25.7624C91.3087 25.7624 91.4053 25.8599 91.4053 25.9801V28.1325C91.4053 28.2527 91.3087 28.3502 91.1896 28.3502C91.0705 28.3502 90.9739 28.2527 90.9739 28.1325V25.9801C90.9739 25.8599 91.0705 25.7624 91.1896 25.7624ZM15.6236 25.7624C15.7427 25.7624 15.8393 25.8599 15.8393 25.9801V28.1325C15.8393 28.2527 15.7427 28.3502 15.6236 28.3502C15.5045 28.3502 15.408 28.2527 15.408 28.1325V25.9801C15.408 25.8599 15.5045 25.7624 15.6236 25.7624ZM15.6236 30.0674C15.7427 30.0674 15.8393 30.1648 15.8393 30.285V32.4375C15.8393 32.5577 15.7427 32.6551 15.6236 32.6551C15.5045 32.6551 15.408 32.5577 15.408 32.4375V30.285C15.408 30.1648 15.5045 30.0674 15.6236 30.0674ZM91.1896 30.0674C91.3087 30.0674 91.4053 30.1648 91.4053 30.285V32.4375C91.4053 32.5577 91.3087 32.6551 91.1896 32.6551C91.0705 32.6551 90.9739 32.5577 90.9739 32.4375V30.285C90.9739 30.1648 91.0705 30.0674 91.1896 30.0674ZM15.6236 34.3723C15.7427 34.3723 15.8393 34.4698 15.8393 34.59V36.7424C15.8393 36.8626 15.7427 36.9601 15.6236 36.9601C15.5045 36.9601 15.408 36.8626 15.408 36.7424V34.59C15.408 34.4698 15.5045 34.3723 15.6236 34.3723ZM91.1896 34.3723C91.3087 34.3723 91.4053 34.4698 91.4053 34.59V36.7424C91.4053 36.8626 91.3087 36.9601 91.1896 36.9601C91.0705 36.9601 90.9739 36.8626 90.9739 36.7424V34.59C90.9739 34.4698 91.0705 34.3723 91.1896 34.3723ZM15.6236 38.6773C15.7427 38.6773 15.8393 38.7747 15.8393 38.8949V41.0474C15.8393 41.1676 15.7427 41.265 15.6236 41.265C15.5045 41.265 15.408 41.1676 15.408 41.0474V38.8949C15.408 38.7747 15.5045 38.6773 15.6236 38.6773ZM91.1896 38.6773C91.3087 38.6773 91.4053 38.7747 91.4053 38.8949V41.0474C91.4053 41.1676 91.3087 41.265 91.1896 41.265C91.0705 41.265 90.9739 41.1676 90.9739 41.0474V38.8949C90.9739 38.7747 91.0705 38.6773 91.1896 38.6773ZM15.6236 42.9822C15.7427 42.9822 15.8393 43.0797 15.8393 43.1999V45.3523C15.8393 45.4725 15.7427 45.57 15.6236 45.57C15.5045 45.57 15.408 45.4725 15.408 45.3523V43.1999C15.408 43.0797 15.5045 42.9822 15.6236 42.9822ZM91.1896 42.9822C91.3087 42.9822 91.4053 43.0797 91.4053 43.1999V45.3523C91.4053 45.4725 91.3087 45.57 91.1896 45.57C91.0705 45.57 90.9739 45.4725 90.9739 45.3523V43.1999C90.9739 43.0797 91.0705 42.9822 91.1896 42.9822ZM15.6236 47.2872C15.7427 47.2872 15.8393 47.3846 15.8393 47.5048V49.6573C15.8393 49.7775 15.7427 49.8749 15.6236 49.8749C15.5045 49.8749 15.408 49.7775 15.408 49.6573V47.5048C15.408 47.3846 15.5045 47.2872 15.6236 47.2872ZM91.1896 47.2872C91.3087 47.2872 91.4053 47.3846 91.4053 47.5048V49.6573C91.4053 49.7775 91.3087 49.8749 91.1896 49.8749C91.0705 49.8749 90.9739 49.7775 90.9739 49.6573V47.5048C90.9739 47.3846 91.0705 47.2872 91.1896 47.2872ZM15.6236 51.5921C15.7427 51.5921 15.8393 51.6896 15.8393 51.8098V53.9622C15.8393 54.0824 15.7427 54.1799 15.6236 54.1799C15.5045 54.1799 15.408 54.0824 15.408 53.9622V51.8098C15.408 51.6896 15.5045 51.5921 15.6236 51.5921ZM91.1896 51.5921C91.3087 51.5921 91.4053 51.6896 91.4053 51.8098V53.9622C91.4053 54.0824 91.3087 54.1799 91.1896 54.1799C91.0705 54.1799 90.9739 54.0824 90.9739 53.9622V51.8098C90.9739 51.6896 91.0705 51.5921 91.1896 51.5921ZM91.1896 55.8971C91.3087 55.8971 91.4053 55.9945 91.4053 56.1147V58.2672C91.4053 58.3874 91.3087 58.4848 91.1896 58.4848C91.0705 58.4848 90.9739 58.3874 90.9739 58.2672V56.1147C90.9739 55.9945 91.0705 55.8971 91.1896 55.8971ZM15.6236 55.8971C15.7427 55.8971 15.8393 55.9945 15.8393 56.1147V58.2672C15.8393 58.3874 15.7427 58.4848 15.6236 58.4848C15.5045 58.4848 15.408 58.3874 15.408 58.2672V56.1147C15.408 55.9945 15.5045 55.8971 15.6236 55.8971ZM91.1896 60.202C91.3087 60.202 91.4053 60.2995 91.4053 60.4197V62.5721C91.4053 62.6923 91.3087 62.7898 91.1896 62.7898C91.0705 62.7898 90.9739 62.6923 90.9739 62.5721V60.4197C90.9739 60.2995 91.0705 60.202 91.1896 60.202ZM15.6236 60.202C15.7427 60.202 15.8393 60.2995 15.8393 60.4197V62.5721C15.8393 62.6923 15.7427 62.7898 15.6236 62.7898C15.5045 62.7898 15.408 62.6923 15.408 62.5721V60.4197C15.408 60.2995 15.5045 60.202 15.6236 60.202ZM91.1896 64.507C91.3087 64.507 91.4053 64.6044 91.4053 64.7246V65.8009C91.4053 65.921 91.3087 66.0185 91.1896 66.0185H90.1401C90.021 66.0185 89.9244 65.921 89.9244 65.8009C89.9244 65.6807 90.021 65.5832 90.1401 65.5832H90.9739V64.7246C90.9739 64.6044 91.0705 64.507 91.1896 64.507ZM15.6236 64.507C15.7427 64.507 15.8393 64.6044 15.8393 64.7246V65.5832H16.6732C16.7923 65.5832 16.8888 65.6807 16.8888 65.8009C16.8888 65.921 16.7923 66.0185 16.6732 66.0185H15.6236C15.5045 66.0185 15.408 65.921 15.408 65.8009V64.7246C15.408 64.6044 15.5045 64.507 15.6236 64.507ZM18.5565 65.8009C18.5565 65.6807 18.6531 65.5832 18.7722 65.5832H20.8713C20.9904 65.5832 21.0869 65.6807 21.0869 65.8009C21.0869 65.921 20.9904 66.0185 20.8713 66.0185H18.7722C18.6531 66.0185 18.5565 65.921 18.5565 65.8009ZM22.7546 65.8009C22.7546 65.6807 22.8512 65.5832 22.9703 65.5832H25.0694C25.1885 65.5832 25.2851 65.6807 25.2851 65.8009C25.2851 65.921 25.1885 66.0185 25.0694 66.0185H22.9703C22.8512 66.0185 22.7546 65.921 22.7546 65.8009ZM26.9528 65.8009C26.9528 65.6807 27.0493 65.5832 27.1684 65.5832H29.2675C29.3866 65.5832 29.4832 65.6807 29.4832 65.8009C29.4832 65.921 29.3866 66.0185 29.2675 66.0185H27.1684C27.0493 66.0185 26.9528 65.921 26.9528 65.8009ZM31.1509 65.8009C31.1509 65.6807 31.2474 65.5832 31.3665 65.5832H33.4656C33.5847 65.5832 33.6813 65.6807 33.6813 65.8009C33.6813 65.921 33.5847 66.0185 33.4656 66.0185H31.3665C31.2474 66.0185 31.1509 65.921 31.1509 65.8009ZM35.349 65.8009C35.349 65.6807 35.4455 65.5832 35.5646 65.5832H37.6637C37.7828 65.5832 37.8794 65.6807 37.8794 65.8009C37.8794 65.921 37.7828 66.0185 37.6637 66.0185H35.5646C35.4455 66.0185 35.349 65.921 35.349 65.8009ZM39.5471 65.8009C39.5471 65.6807 39.6436 65.5832 39.7628 65.5832H41.8618C41.9809 65.5832 42.0775 65.6807 42.0775 65.8009C42.0775 65.921 41.9809 66.0185 41.8618 66.0185H39.7628C39.6436 66.0185 39.5471 65.921 39.5471 65.8009ZM43.7452 65.8009C43.7452 65.6807 43.8417 65.5832 43.9609 65.5832H46.0599C46.179 65.5832 46.2756 65.6807 46.2756 65.8009C46.2756 65.921 46.179 66.0185 46.0599 66.0185H43.9609C43.8417 66.0185 43.7452 65.921 43.7452 65.8009ZM47.9433 65.8009C47.9433 65.6807 48.0399 65.5832 48.159 65.5832H50.258C50.3771 65.5832 50.4737 65.6807 50.4737 65.8009C50.4737 65.921 50.3771 66.0185 50.258 66.0185H48.159C48.0399 66.0185 47.9433 65.921 47.9433 65.8009ZM52.1414 65.8009C52.1414 65.6807 52.238 65.5832 52.3571 65.5832H54.4561C54.5752 65.5832 54.6718 65.6807 54.6718 65.8009C54.6718 65.921 54.5752 66.0185 54.4561 66.0185H52.3571C52.238 66.0185 52.1414 65.921 52.1414 65.8009ZM56.3395 65.8009C56.3395 65.6807 56.4361 65.5832 56.5552 65.5832H58.6542C58.7733 65.5832 58.8699 65.6807 58.8699 65.8009C58.8699 65.921 58.7733 66.0185 58.6542 66.0185H56.5552C56.4361 66.0185 56.3395 65.921 56.3395 65.8009ZM60.5376 65.8009C60.5376 65.6807 60.6342 65.5832 60.7533 65.5832H62.8523C62.9715 65.5832 63.068 65.6807 63.068 65.8009C63.068 65.921 62.9715 66.0185 62.8523 66.0185H60.7533C60.6342 66.0185 60.5376 65.921 60.5376 65.8009ZM64.7357 65.8009C64.7357 65.6807 64.8323 65.5832 64.9514 65.5832H67.0504C67.1696 65.5832 67.2661 65.6807 67.2661 65.8009C67.2661 65.921 67.1696 66.0185 67.0504 66.0185H64.9514C64.8323 66.0185 64.7357 65.921 64.7357 65.8009ZM68.9338 65.8009C68.9338 65.6807 69.0304 65.5832 69.1495 65.5832H71.2486C71.3677 65.5832 71.4642 65.6807 71.4642 65.8009C71.4642 65.921 71.3677 66.0185 71.2486 66.0185H69.1495C69.0304 66.0185 68.9338 65.921 68.9338 65.8009ZM73.1319 65.8009C73.1319 65.6807 73.2285 65.5832 73.3476 65.5832H75.4467C75.5658 65.5832 75.6623 65.6807 75.6623 65.8009C75.6623 65.921 75.5658 66.0185 75.4467 66.0185H73.3476C73.2285 66.0185 73.1319 65.921 73.1319 65.8009ZM77.3301 65.8009C77.3301 65.6807 77.4266 65.5832 77.5457 65.5832H79.6448C79.7639 65.5832 79.8605 65.6807 79.8605 65.8009C79.8605 65.921 79.7639 66.0185 79.6448 66.0185H77.5457C77.4266 66.0185 77.3301 65.921 77.3301 65.8009ZM81.5282 65.8009C81.5282 65.6807 81.6247 65.5832 81.7438 65.5832H83.8429C83.962 65.5832 84.0586 65.6807 84.0586 65.8009C84.0586 65.921 83.962 66.0185 83.8429 66.0185H81.7438C81.6247 66.0185 81.5282 65.921 81.5282 65.8009ZM85.7263 65.8009C85.7263 65.6807 85.8228 65.5832 85.942 65.5832H88.041C88.1601 65.5832 88.2567 65.6807 88.2567 65.8009C88.2567 65.921 88.1601 66.0185 88.041 66.0185H85.942C85.8228 66.0185 85.7263 65.921 85.7263 65.8009Z" fill="#111827"/>
<path d="M77.7164 5.91211H29.099C27.5445 5.91211 26.2844 7.18361 26.2844 8.75209V45.0321C26.2844 46.6005 27.5445 47.872 29.099 47.872H77.7164C79.2708 47.872 80.5309 46.6005 80.5309 45.0321V8.75209C80.5309 7.18361 79.2708 5.91211 77.7164 5.91211Z" fill="#EDEDFC"/>
<path d="M77.7163 6.12944C78.4027 6.12944 79.061 6.40458 79.5463 6.89433C80.0317 7.38407 80.3044 8.04831 80.3044 8.74092V45.0318C80.3058 45.3756 80.2399 45.7164 80.1105 46.0345C79.981 46.3526 79.7906 46.6417 79.5501 46.8854C79.3097 47.129 79.0239 47.3224 78.7092 47.4543C78.3945 47.5862 78.057 47.6541 77.7163 47.6541H29.0967C28.7559 47.6541 28.4185 47.5862 28.1038 47.4543C27.7891 47.3224 27.5033 47.129 27.2628 46.8854C27.0224 46.6417 26.8319 46.3526 26.7025 46.0345C26.5731 45.7164 26.5072 45.3756 26.5086 45.0318V8.7518C26.5086 8.0592 26.7813 7.39496 27.2667 6.90521C27.752 6.41546 28.4103 6.14032 29.0967 6.14032H77.7163V6.12944ZM77.7163 5.70508H29.0967C28.297 5.70851 27.5309 6.03061 26.9654 6.60124C26.3999 7.17187 26.0807 7.94482 26.0773 8.7518V45.0318C26.0778 45.8406 26.3958 46.6164 26.9616 47.1893C27.5274 47.7623 28.2951 48.0859 29.0967 48.0894H77.7163C78.5179 48.0859 79.2855 47.7623 79.8514 47.1893C80.4172 46.6164 80.7351 45.8406 80.7357 45.0318V8.7518C80.7323 7.94482 80.4131 7.17187 79.8476 6.60124C79.2821 6.03061 78.516 5.70851 77.7163 5.70508Z" fill="#111827"/>
<path fill-rule="evenodd" clip-rule="evenodd" d="M32.7849 4.17075C32.7849 4.05056 32.8815 3.95312 33.0006 3.95312H54.3718C54.4909 3.95312 54.5875 4.05056 54.5875 4.17075C54.5875 4.29094 54.4909 4.38837 54.3718 4.38837H33.0006C32.8815 4.38837 32.7849 4.29094 32.7849 4.17075Z" fill="#111827"/>
<path fill-rule="evenodd" clip-rule="evenodd" d="M11.1343 8.11381C11.221 8.03145 11.3575 8.03565 11.4392 8.12319L14.1825 11.0655C14.2642 11.153 14.26 11.2907 14.1733 11.3731C14.0865 11.4554 13.95 11.4512 13.8684 11.3637L11.125 8.42143C11.0434 8.3339 11.0475 8.19617 11.1343 8.11381Z" fill="#111827"/>
<path fill-rule="evenodd" clip-rule="evenodd" d="M10.3468 11.2833C10.3996 11.1756 10.529 11.1314 10.6358 11.1847L13.0923 12.4099C13.1991 12.4632 13.2429 12.5937 13.1901 12.7014C13.1373 12.8092 13.0079 12.8533 12.9012 12.8001L10.4446 11.5749C10.3378 11.5216 10.2941 11.3911 10.3468 11.2833Z" fill="#111827"/>
<path fill-rule="evenodd" clip-rule="evenodd" d="M82.1939 0.551451C82.303 0.599558 82.3529 0.727845 82.3052 0.837987L81.1729 3.45382C81.1252 3.56396 80.9981 3.61425 80.8889 3.56614C80.7798 3.51804 80.7299 3.38975 80.7776 3.27961L81.9099 0.663776C81.9576 0.553633 82.0847 0.503344 82.1939 0.551451Z" fill="#111827"/>
<path fill-rule="evenodd" clip-rule="evenodd" d="M85.5016 0.761006C85.5858 0.845993 85.5858 0.983785 85.5016 1.06877L82.26 4.33965C82.1758 4.42464 82.0392 4.42464 81.955 4.33965C81.8708 4.25466 81.8708 4.11687 81.955 4.03188L85.1966 0.761006C85.2808 0.676019 85.4174 0.676019 85.5016 0.761006Z" fill="#111827"/>
<path fill-rule="evenodd" clip-rule="evenodd" d="M85.5494 4.43175C85.5937 4.54334 85.5399 4.66999 85.4293 4.71465L82.9986 5.69613C82.888 5.74078 82.7625 5.68652 82.7183 5.57494C82.674 5.46335 82.7278 5.33669 82.8384 5.29204L85.269 4.31056C85.3796 4.2659 85.5051 4.32016 85.5494 4.43175Z" fill="#111827"/>
<path fill-rule="evenodd" clip-rule="evenodd" d="M68.759 37.2899C68.1121 37.1332 67.4406 37.1098 66.7846 37.2212C66.1286 37.3326 65.5016 37.5765 64.9412 37.9382C64.3808 38.2999 63.8986 38.772 63.5233 39.3263C63.148 39.8805 62.8875 40.5055 62.7573 41.1637C62.6271 41.822 62.6299 42.5 62.7656 43.1571C62.9012 43.8143 63.1669 44.437 63.5468 44.9881C63.6148 45.0868 63.5907 45.2224 63.4929 45.291C63.3951 45.3596 63.2607 45.3353 63.1927 45.2366C62.7797 44.6375 62.4908 43.9604 62.3433 43.2459C62.1958 42.5314 62.1927 41.7943 62.3343 41.0785C62.4759 40.3628 62.7591 39.6833 63.1671 39.0807C63.5751 38.4781 64.0995 37.9648 64.7088 37.5715C65.3181 37.1783 65.9997 36.9131 66.713 36.792C67.4262 36.6709 68.1564 36.6963 68.8597 36.8667C69.563 37.037 70.225 37.3489 70.806 37.7836C71.387 38.2182 71.8751 38.7667 72.241 39.3963C72.3012 39.4999 72.2668 39.6333 72.1641 39.6941C72.0613 39.7549 71.9292 39.7201 71.8689 39.6165C71.5323 39.0375 71.0834 38.533 70.5491 38.1332C70.0147 37.7334 69.4058 37.4466 68.759 37.2899Z" fill="white"/>
<path d="M46.9614 23.1084C44.2419 23.7551 42.2191 26.2004 42.2191 29.1175C42.2191 32.5288 44.9843 35.294 48.3956 35.294C48.9805 35.294 49.5469 35.2125 50.0836 35.0605M62.0178 23.1084C64.7373 23.7551 66.7595 26.2004 66.7595 29.1175C66.7595 32.5288 63.9943 35.294 60.583 35.294C59.9981 35.294 59.4317 35.2125 58.8956 35.0605M61.9838 22.9411C61.9838 18.8479 58.6652 15.5293 54.5721 15.5293C50.4789 15.5293 47.1603 18.8479 47.1603 22.9411M50.2887 27.8087L54.5721 23.5118L58.9771 27.8822M54.5721 34.0587V25.697" stroke="#4F46E5" stroke-width="2" stroke-linecap="round" stroke-linejoin="round"/>
</svg>
