<svg width="24" height="24" viewBox="0 0 24 24" fill="none" xmlns="http://www.w3.org/2000/svg">
<path d="M7.63738 6.24901H16.3627C16.9635 6.24901 17.5108 6.49001 17.9083 6.87748L17.9093 6.87657C18.3063 7.26385 18.5529 7.79839 18.5529 8.38541V15.6146C18.5529 16.2015 18.3058 16.7358 17.9089 17.1229C17.5121 17.51 16.9643 17.751 16.3627 17.751H7.63738C7.03582 17.751 6.4875 17.5104 6.09047 17.1232C5.69391 16.7364 5.44711 16.2024 5.44711 15.6146V8.38541C5.44711 7.79961 5.69344 7.26598 6.0902 6.87813L6.09324 6.87516C6.49082 6.48883 7.0373 6.24901 7.63738 6.24901ZM9.98035 14.0346H8.42469L9.6191 9.53978H11.8972L13.0916 14.0346H11.536L11.4168 13.3226H10.0994L9.98035 14.0346ZM10.5915 10.9206L10.3649 12.1792H11.144L10.9248 10.9206H10.5915ZM13.4824 14.0346V9.53978H14.957V14.0346H13.4824ZM19.785 12.6706V13.8428C19.785 13.9634 19.8861 14.0619 20.0097 14.0619H21.7753C21.8989 14.0619 22 13.9634 22 13.8428V12.6706C22 12.55 21.8989 12.4514 21.7753 12.4514H20.0097C19.8861 12.4514 19.785 12.55 19.785 12.6706ZM19.785 9.97903V11.1512C19.785 11.2717 19.8861 11.3703 20.0097 11.3703H21.7753C21.8989 11.3703 22 11.2717 22 11.1512V9.97903C22 9.85832 21.8989 9.75986 21.7753 9.75986H20.0097C19.8861 9.75986 19.785 9.85832 19.785 9.97903ZM19.785 15.3622V16.5343C19.785 16.6549 19.8861 16.7535 20.0097 16.7535H21.7753C21.8989 16.7535 22 16.6549 22 16.5343V15.3622C22 15.2416 21.8989 15.143 21.7753 15.143H20.0097C19.8861 15.143 19.785 15.2416 19.785 15.3622ZM19.785 7.28736V8.45952C19.785 8.58008 19.8861 8.67865 20.0097 8.67865H21.7753C21.8989 8.67865 22 8.58008 22 8.45952V7.28736C22 7.16676 21.8989 7.06819 21.7753 7.06819H20.0097C19.8861 7.06819 19.785 7.16676 19.785 7.28736ZM4.21496 12.6706V13.8428C4.21496 13.9634 4.11391 14.0619 3.99027 14.0619H2.22469C2.10105 14.0619 2 13.9634 2 13.8428V12.6706C2 12.55 2.10105 12.4514 2.22469 12.4514H3.99027C4.11391 12.4514 4.21496 12.55 4.21496 12.6706ZM4.21496 9.97903V11.1512C4.21496 11.2717 4.11391 11.3703 3.99027 11.3703H2.22469C2.10105 11.3703 2 11.2717 2 11.1512V9.97903C2 9.85832 2.10105 9.75986 2.22469 9.75986H3.99027C4.11391 9.75986 4.21496 9.85832 4.21496 9.97903ZM4.21496 15.3622V16.5343C4.21496 16.6549 4.11391 16.7535 3.99027 16.7535H2.22469C2.10105 16.7535 2 16.6549 2 16.5343V15.3622C2 15.2416 2.10105 15.143 2.22469 15.143H3.99027C4.11391 15.143 4.21496 15.2416 4.21496 15.3622ZM4.21496 7.28736V8.45952C4.21496 8.58008 4.11391 8.67865 3.99027 8.67865H2.22469C2.10105 8.67865 2 8.58008 2 8.45952V7.28736C2 7.16676 2.10105 7.06819 2.22469 7.06819H3.99027C4.11391 7.06819 4.21496 7.16676 4.21496 7.28736ZM15.5382 18.8394H16.7399C16.8634 18.8394 16.9646 18.938 16.9646 19.0586V20.7808C16.9646 20.9014 16.8634 21 16.7399 21H15.5382C15.4145 21 15.3136 20.9014 15.3136 20.7808V19.0586C15.3136 18.938 15.4145 18.8394 15.5382 18.8394ZM12.7788 18.8394H13.9805C14.1041 18.8394 14.2051 18.938 14.2051 19.0586V20.7808C14.2051 20.9014 14.1041 21 13.9805 21H12.7788C12.6552 21 12.5541 20.9014 12.5541 20.7808V19.0586C12.5541 18.938 12.6552 18.8394 12.7788 18.8394ZM10.0195 18.8394H11.2211C11.3447 18.8394 11.4458 18.938 11.4458 19.0586V20.7808C11.4458 20.9014 11.3447 21 11.2211 21H10.0195C9.89582 21 9.79477 20.9014 9.79477 20.7808V19.0586C9.79477 18.938 9.89582 18.8394 10.0195 18.8394ZM7.26008 18.8394H8.46176C8.58539 18.8394 8.68645 18.938 8.68645 19.0586V20.7808C8.68645 20.9014 8.58539 21 8.46176 21H7.26008C7.13645 21 7.03543 20.9014 7.03543 20.7808V19.0586C7.03543 18.938 7.13645 18.8394 7.26008 18.8394ZM15.5382 3H16.7399C16.8634 3 16.9646 3.09857 16.9646 3.21917V4.94139C16.9646 5.06199 16.8634 5.16056 16.7399 5.16056H15.5382C15.4145 5.16056 15.3136 5.06199 15.3136 4.94139V3.21917C15.3136 3.09857 15.4145 3 15.5382 3ZM12.7788 3H13.9805C14.1041 3 14.2051 3.09857 14.2051 3.21917V4.94139C14.2051 5.06199 14.1041 5.16056 13.9805 5.16056H12.7788C12.6552 5.16056 12.5541 5.06199 12.5541 4.94139V3.21917C12.5541 3.09857 12.6552 3 12.7788 3ZM10.0195 3H11.2211C11.3447 3 11.4458 3.09857 11.4458 3.21917V4.94139C11.4458 5.06199 11.3447 5.16056 11.2211 5.16056H10.0195C9.89582 5.16056 9.79477 5.06199 9.79477 4.94139V3.21917C9.79477 3.09857 9.89582 3 10.0195 3ZM7.26008 3H8.46176C8.58539 3 8.68645 3.09857 8.68645 3.21917V4.94139C8.68645 5.06199 8.58539 5.16056 8.46176 5.16056H7.26008C7.13645 5.16056 7.03543 5.06199 7.03543 4.94139V3.21917C7.03543 3.09857 7.13645 3 7.26008 3ZM16.3627 7.23314H7.63738C7.48247 7.23296 7.32905 7.26265 7.18593 7.32048C7.04281 7.37831 6.91281 7.46314 6.8034 7.57012L6.80148 7.57199C6.69184 7.67871 6.60488 7.8055 6.54559 7.94509C6.48631 8.08468 6.45587 8.23432 6.45602 8.38541V15.6146C6.45602 15.9306 6.58937 16.2184 6.80367 16.4275C7.01828 16.6368 7.31375 16.7669 7.63738 16.7669H16.3627C16.6859 16.7669 16.9812 16.6365 17.1957 16.4272C17.4103 16.2179 17.544 15.9299 17.544 15.6146V8.38541C17.544 8.0698 17.4106 7.78155 17.196 7.57225V7.57039C16.983 7.3625 16.688 7.23314 16.3627 7.23314Z" fill="white"/>
</svg>
