<svg width="284" height="273" fill="none" xmlns="http://www.w3.org/2000/svg"><path d="M216.579 101.93c13.09 0 23.701-10.611 23.701-23.7 0-13.09-10.611-23.7-23.701-23.7-13.089 0-23.7 10.61-23.7 23.7 0 13.089 10.611 23.7 23.7 23.7Z" fill="#FBEFEF"/><path d="M92.792 202.533c30.937 0 56.017-25.079 56.017-56.016 0-30.937-25.08-56.017-56.017-56.017-30.937 0-56.017 25.08-56.017 56.017 0 30.937 25.08 56.016 56.017 56.016Z" fill="#F3D0D0" fill-opacity=".35"/><path d="M139.482 272.793c70.974 0 128.511-3.749 128.511-8.373 0-4.624-57.537-8.373-128.511-8.373-70.975 0-128.511 3.749-128.511 8.373 0 4.624 57.536 8.373 128.511 8.373Z" fill="#E9E7FB"/><path d="m80.858 13.176 2.774.9-2.774.902a3.697 3.697 0 0 0-2.384 2.384l-.901 2.774-.901-2.774a3.697 3.697 0 0 0-2.384-2.384l-2.774-.901 2.774-.901a3.697 3.697 0 0 0 2.384-2.384l.901-2.774.901 2.774a3.697 3.697 0 0 0 2.384 2.384ZM251.12 193.17l2.774.901-2.774.901a3.699 3.699 0 0 0-2.384 2.384l-.901 2.774-.902-2.774a3.696 3.696 0 0 0-2.384-2.384l-2.774-.901 2.774-.901a3.696 3.696 0 0 0 2.384-2.384l.902-2.774.901 2.774a3.699 3.699 0 0 0 2.384 2.384ZM10.274 169.324l2.774.901-2.774.902a3.694 3.694 0 0 0-2.384 2.384l-.901 2.774-.901-2.774a3.694 3.694 0 0 0-2.384-2.384l-2.774-.902 2.774-.901a3.697 3.697 0 0 0 2.384-2.384l.901-2.774.901 2.774a3.697 3.697 0 0 0 2.384 2.384ZM134.99 84.87l1.61.525-1.61.524c-.659.21-1.17.729-1.387 1.387l-.525 1.61-.524-1.61a2.158 2.158 0 0 0-1.387-1.387l-1.61-.524 1.61-.524a2.157 2.157 0 0 0 1.387-1.387l.524-1.611.525 1.61c.21.66.728 1.17 1.387 1.388ZM36.55 50.177l1.61.525-1.61.524a2.16 2.16 0 0 0-1.387 1.387l-.524 1.61-.524-1.61a2.16 2.16 0 0 0-1.387-1.387l-1.61-.524 1.61-.525a2.16 2.16 0 0 0 1.387-1.387l.524-1.61.524 1.61a2.16 2.16 0 0 0 1.387 1.387ZM16.275 155.295l1.61.524-1.61.524a2.158 2.158 0 0 0-1.387 1.387l-.524 1.61-.525-1.61a2.157 2.157 0 0 0-1.386-1.387l-1.611-.524 1.61-.524a2.16 2.16 0 0 0 1.387-1.387l.525-1.611.524 1.611a2.162 2.162 0 0 0 1.387 1.387Z" fill="#fff"/><path d="M224.771 195.901s-5.643.62-7.848 1.853c-2.206 1.234-3.267 5.382.62 5.382h12.7c2.646 0 1.585-5.906.179-7.497l-5.644.262h-.007Z" fill="#111827"/><path d="M222.184 186.98s1.438 7.709 1.834 8.974c.614 1.937 6.04 1.835 6.526-.306.716-3.164.716-9.582.716-9.582l-9.076.921v-.007Z" fill="#D8877B"/><path d="M221.187 197.914a2.301 2.301 0 0 0-.473-.607 5.31 5.31 0 0 0-.64-.486c-.236-.153-.511-.339-.799-.32-.191.013-.389.199-.313.409.032.09.064.173.128.243.038.045.083.083.121.122.039.038.084.07.128.102.007 0 .02.013.032.026 0 0-.006-.007-.025-.013.051.032.089.07.134.108.179.147.345.301.492.473.032.039.058.077.09.109-.109-.121.025.038.044.064.058.09.115.166.167.256.025.044.051.096.07.14 0 .013.006.019.013.019.019.045.032.084.057.128.019.039.045.083.064.122.058.102.141.16.23.217.192.122.441.032.556-.147.198-.3.058-.677-.102-.965h.026ZM223.424 197.705a1.928 1.928 0 0 0-.172-.409 3.432 3.432 0 0 0-.473-.626c-.358-.377-.844-.71-1.368-.761-.134-.013-.275.102-.32.217-.051.116-.038.301.071.384.096.077.198.153.306.224l.071.051s.006 0 .013.006c.038.019.07.058.102.083.16.135.313.282.447.448.013.019.032.038.045.064.032.044.058.089.083.134.058.089.102.185.147.275l.134.281v.013c.007.019.013.038.026.057a.56.56 0 0 0 .109.141c.038.032.076.064.115.102a.383.383 0 0 0 .632-.166c.058-.173.083-.326.026-.505l.006-.013ZM229.574 199.22a1.22 1.22 0 0 0-.32-.544l-.249-.191a1.25 1.25 0 0 0-.62-.167.986.986 0 0 0-.473.109.9.9 0 0 0-.397.256.904.904 0 0 0-.255.396.938.938 0 0 0-.109.473c.013.109.032.217.045.326a1.2 1.2 0 0 0 .319.543l.25.192c.191.109.402.166.62.166a1 1 0 0 0 .473-.108.921.921 0 0 0 .396-.256.921.921 0 0 0 .256-.396.937.937 0 0 0 .108-.473c-.013-.109-.032-.218-.044-.326Z" fill="#fff"/><path d="M222.458 188.425c1.26.562 4.507 1.623 8.706 1.406.096-2.071.096-3.765.096-3.765l-9.076.921s.108.581.274 1.444v-.006Z" fill="#E54646"/><path d="M202.543 195.901s-5.644.62-7.849 1.853c-2.205 1.234-3.266 5.382.62 5.382h12.7c2.646 0 1.585-5.906.179-7.497l-5.644.262h-.006Z" fill="#111827"/><path d="M199.953 186.98s1.438 7.709 1.835 8.974c.613 1.937 6.04 1.835 6.525-.306.716-3.164.716-9.582.716-9.582l-9.076.921v-.007Z" fill="#D8877B"/><path d="M198.964 197.914a2.28 2.28 0 0 0-.473-.607 5.299 5.299 0 0 0-.639-.486c-.237-.153-.512-.339-.799-.32-.192.013-.39.199-.313.409.032.09.063.173.127.243.039.045.084.083.122.122.038.038.083.07.128.102.006 0 .019.013.032.026l-.026-.013c.051.032.09.07.134.108.179.147.345.301.492.473.032.039.058.077.09.109-.109-.121.026.038.045.064.057.09.115.166.166.256.025.044.051.096.07.14 0 .013.007.019.013.019.019.045.032.084.057.128.02.039.045.083.064.122.058.102.141.16.231.217.191.122.441.032.556-.147.198-.3.057-.677-.103-.965h.026ZM201.202 197.705a1.932 1.932 0 0 0-.173-.409 3.432 3.432 0 0 0-.473-.626c-.358-.377-.844-.71-1.368-.761-.134-.013-.275.102-.319.217-.051.116-.039.301.07.384.096.077.198.153.307.224l.07.051s.007 0 .013.006c.038.019.07.058.102.083.16.135.313.282.448.448.012.019.032.038.044.064.032.044.058.089.083.134.058.089.103.185.147.275.045.096.09.191.135.281v.013c.006.019.012.038.025.057a.61.61 0 0 0 .109.141c.038.032.077.064.115.102a.384.384 0 0 0 .633-.166c.057-.173.083-.326.025-.505l.007-.013ZM207.349 199.22a1.21 1.21 0 0 0-.32-.544l-.249-.191a1.25 1.25 0 0 0-.62-.167.986.986 0 0 0-.473.109.898.898 0 0 0-.396.256.898.898 0 0 0-.256.396.938.938 0 0 0-.109.473c.013.109.032.217.045.326.058.211.166.39.32.543l.249.192c.192.109.403.166.62.166a.997.997 0 0 0 .473-.108.915.915 0 0 0 .396-.256.903.903 0 0 0 .256-.396.938.938 0 0 0 .109-.473c-.013-.109-.032-.218-.045-.326Z" fill="#fff"/><path d="M200.228 188.425c1.259.562 4.506 1.623 8.705 1.406.096-2.071.096-3.765.096-3.765l-9.076.921s.109.581.275 1.444v-.006Z" fill="#E54646"/><path d="M227.584 125.598c.716 2.345 2.96 8.462 3.164 15.602.205 7.139 1.023 41.494 1.323 46.8h-10.91s-7.242-26.309-7.645-46.187c0 0-2.627 15.896-3.566 22.838-1.119 8.258.409 23.451.409 23.451h-11.627s-3.771-25.286-2.039-38.542c1.732-13.256 4.692-24.876 4.692-24.876l26.206.92-.007-.006Z" fill="#111827"/><path d="M228.405 128.173c-.333-1.087-.627-1.962-.812-2.576l-13.135-.46-2.569.767.051 2.601s7.747 2.212 16.465-.326v-.006ZM194.707 102.059s3.285 1.604 6.769 1.336c3.477-.269-.23-2.678-.23-2.678l-6.539 1.336v.006Z" fill="#111827"/><path d="M202.555 102.352c.268-.077-.971 4.64-2.039 6.935-.665 1.432-5.81 8.207-5.81 8.207l-4.538-2.755s4.538-7.67 4.922-8.59c.383-.921 1.297-7.568 1.297-7.568l4.743-.69 1.425 4.461Z" fill="#D8877B"/><path d="M196.386 98.582s-.256 1.841-.55 3.713c.882.186 4.346.972 6.347 2.097.319-1.189.486-2.071.371-2.039l-1.234-3.854-1.24-.454-3.694.537Z" fill="#E54646"/><path d="M220.285 85.152c3.631.499 6.539 1.65 8.22 3.407 1.681 1.758 2.141 18.121 1.374 20.338l-.869-.485-1.963 1.86s-.076 9.939 1.528 15.525c0 0-12.694 5.81-27.836-1.067 0 0 2.985-5.127 2.142-13.768-.135-1.374-1.605-4.973-1.528-8.412 0 0-4.436-.843-6.654-.498 0 0 1.988-10.284 3.822-12.656 1.835-2.37 5.887-3.592 7.421-3.975 1.528-.384 4.359.537 4.359.537l6.194-.307 3.784-.499h.006Z" fill="#6779B7"/><path d="M228.261 124.552c-.038-.179-.083-.365-.115-.55a48.263 48.263 0 0 1-3.778 1.093 41.694 41.694 0 0 1-5.759.952c-3.886.371-7.817.243-11.69-.211-1.885-.223-3.752-.53-5.618-.863.498.218.99.422 1.483.608 3.017.652 6.116.99 9.178 1.112 3.963.16 7.958-.141 11.837-.933a34.688 34.688 0 0 0 4.455-1.208h.007Z" fill="#111827"/><path d="m183.744 115.097 27.35 22.608a3.59 3.59 0 0 0 4.928-.339l.467-.505a3.582 3.582 0 0 0-.122-4.973l-25.183-24.947-7.44 8.156Z" fill="#111827"/><path d="M216.797 63.702s.709-4.768 6.347-5.043c5.637-.275 7.881 3.982 8.347 8.207.467 4.225 1.036 6.436 2.391 7.3 0 0-5.465 4.646-9.894-.819-4.43-5.471-7.191-9.638-7.191-9.638v-.007Z" fill="#5F2A3D"/><path d="M220.76 59.12c-3.464 1.245-3.969 4.588-3.969 4.588s2.653 4.002 6.922 9.307c.774-.128 1.368-.819 1.675-2.34 1.297-6.5-2.915-10.303-4.628-11.55v-.006Z" fill="#111827"/><path d="M207.758 82.173c-3.534-2.448-5.209-2-5.918-11.224-.71-9.223 13.748-16.983 20.734-8.137 4.391 5.568 4.781 15.551-2.294 17.987-7.92 2.729-12.528 1.374-12.528 1.374h.006Z" fill="#5F2A3D"/><path d="M171.511 119.634c13.39 0 24.244-10.855 24.244-24.244 0-13.39-10.854-24.243-24.244-24.243-13.389 0-24.243 10.854-24.243 24.243s10.854 24.244 24.243 24.244Z" fill="#111827"/><path d="M171.51 113.66c10.088 0 18.267-8.179 18.267-18.268 0-10.088-8.179-18.267-18.267-18.267-10.089 0-18.268 8.179-18.268 18.267 0 10.089 8.179 18.268 18.268 18.268Z" fill="#B9CFE6"/><path d="M208.775 81.5s-.051 1.324-.307 2.398c-.256 1.073-2.525 1.527-2.525 1.527s1.554 3.822 5.126 4.538l1.221 5.152 1.732-4.947s4.168-.627 6.258-5.011c0 0-.805-.083-1.873-.544-1.067-.46-1.023-3.566-1.023-3.566l-8.616.46.007-.006ZM186.91 121.112c-.671-2.397 0-3.975.562-4.742.563-.767 1.023.204 1.068.511.051.307-.103 2.346-.103 2.346s.409-1.272 1.221-2.704c.812-1.432 1.732-1.885 2.295-.818 0 0 .818-.46 1.323.767 0 0 1.067.204.869 1.63 0 0 .716.613.46 1.63-.255 1.016-1.374 2.192-1.834 3.771-.46 1.579-4.954.856-5.861-2.397v.006Z" fill="#D8877B"/><path d="M229.88 108.905c-1.566.421-8.373-1.26-9.255-1.758 0 0 .479-.48 1.144-.614l4.129 1.055 1.681.403 1.425.434.87.486.006-.006Z" fill="#111827"/><path d="M221.776 106.533s-.715 2.627-1.834 4.206c-1.119 1.578-11.575 12.259-12.131 12.719-.563.46-4.232.307-5.306.972-1.067.664-.204 1.374.614 1.323.818-.052 2.192.153 2.192.153s-.869 1.528-1.374 2.039c-.505.511-2.039 1.272-2.601 1.425-.563.154-.46 1.426.204 1.375 0 0-.664 1.169.716 1.629 0 0-.307.767 1.023.87 0 0 .051.358 1.476.255 1.426-.102 3.209-1.936 3.976-2.703.767-.767 2.09-3.164 2.448-3.414.358-.255 12.08-9.887 13.864-11.926 1.783-2.039 3.975-7.038 3.975-7.038s-3.72-2.601-7.242-1.885Z" fill="#D8877B"/><path d="M219.019 84.84a9.764 9.764 0 0 1-.607-.23c-1.067-.46-1.022-3.567-1.022-3.567l-4.628.25-2.825.453-1.259.94c-.019.16-.045.326-.071.498.953.863 4.558 3.586 10.412 1.662v-.006Z" fill="#E54646"/><path d="M220.957 71.915s2.16-1.278 3.521.876c1.362 2.16-.856 3.995-2.678 3.995 0 0-1.719 7.618-8.309 7.906-6.551.281-9.377-6.43-9.907-11.396 0 0 2.953-1.394 3.279-2.992.326-1.597 4.359-1.77 6.372-4.71 0 0 1.554 2.94 3.458 3.1 1.911.153 3.816 2.135 4.257 3.221h.007Z" fill="#D8877B"/><path d="M216.699 68.694c-1.911-.154-3.458-3.1-3.458-3.1-2.013 2.94-6.046 3.113-6.372 4.71-.326 1.598-3.279 2.992-3.279 2.992.019.166.038.332.064.505 1.144-.262 3.215-1.72 3.694-2.813.537-1.22 3.803-1.777 5.714-3.995 0 0 1.413 2.18 3.477 2.41 1.611.18 3.273 1.49 4.149 2.014-.71-1.106-2.346-2.59-3.989-2.723ZM223.616 73.155c.071-.172-.089-.351-.21-.454a1.249 1.249 0 0 0-.473-.268c-.326-.102-.716-.039-.946.23-.211.243-.256.582-.237.895.019.396.07.792.134 1.182.032.218.365.294.499.135.134-.16.441-.365.62-.141.077.096.032.243-.019.339-.045.083-.103.153-.147.23a1.17 1.17 0 0 0-.103.281c-.032.134.09.275.231.23.306-.096.498-.32.6-.626a.86.86 0 0 0-.147-.838c-.262-.306-.658-.345-.997-.21-.013-.154-.038-.301-.044-.454-.007-.192-.032-.448.095-.595.301-.351.946.588 1.157.083l-.013-.019ZM221.775 106.533s-.038.153-.115.396c.582.185 4.123.774 6.801 2.691.345-.722.556-1.202.556-1.202s-3.72-2.601-7.242-1.885ZM206.256 127.984c-.199.096-.346.32-.486.486-.16.185-.32.377-.492.549a5.26 5.26 0 0 1-1.074.844c-.774.467-1.624.799-2.518.927-.096.013-.077.179.025.172.933-.063 1.86-.325 2.653-.837.383-.249.747-.53 1.067-.856.192-.192.371-.397.55-.601.153-.173.358-.345.441-.563.038-.102-.083-.159-.166-.127v.006ZM207.292 129.67c-.358.307-.69.64-1.068.921-.377.281-.779.53-1.195.748-.831.441-1.738.741-2.659.939-.121.026-.07.205.051.186a9.385 9.385 0 0 0 2.736-.908c.435-.217.85-.467 1.246-.741.39-.269.806-.563 1.125-.914.141-.16-.07-.365-.23-.231h-.006ZM207.303 131.127c-.313.102-.563.371-.825.556a8.893 8.893 0 0 1-1.847.991c-.332.128-.69.223-1.023.358-.096.038-.102.217.026.204.351-.045.703-.179 1.029-.307a9.13 9.13 0 0 0 .984-.453c.32-.167.627-.352.927-.556.275-.186.639-.397.793-.697.025-.045-.013-.109-.071-.09l.007-.006ZM191.77 115.794c-.16 0-.268.153-.364.268-.122.141-.23.3-.333.454-.23.332-.428.677-.607 1.035a9.66 9.66 0 0 0-.454 1.055c-.07.185-.127.371-.185.556-.051.166-.147.39-.083.556.038.096.141.128.224.058.121-.109.134-.307.179-.461a8.327 8.327 0 0 1 .626-1.63 9.62 9.62 0 0 1 .562-.952c.109-.16.224-.319.339-.479.083-.122.211-.25.179-.409-.006-.039-.045-.058-.077-.058l-.006.007ZM193.167 116.659c-.16 0-.269.128-.371.236a4.179 4.179 0 0 0-.352.403 4.952 4.952 0 0 0-.549.895c-.16.338-.301.69-.403 1.048-.058.192-.102.39-.147.588-.045.192-.109.39-.109.588 0 .09.135.134.173.045.083-.154.115-.333.166-.505.051-.173.102-.345.16-.511.121-.365.249-.729.415-1.074.141-.294.307-.582.505-.844.096-.134.205-.256.32-.377.102-.109.268-.205.3-.364.013-.064-.025-.135-.102-.135l-.006.007ZM194.022 118.196c-.147-.012-.25.103-.339.205a3.131 3.131 0 0 0-.288.364 4.681 4.681 0 0 0-.473.882c-.128.301-.236.607-.339.914-.089.288-.287.678-.153.972.045.096.179.038.185-.051 0-.173.02-.32.071-.486.051-.147.096-.301.147-.448.102-.294.204-.588.332-.875a5.01 5.01 0 0 1 .422-.767c.089-.134.192-.256.294-.377.077-.09.173-.167.173-.301 0-.019-.02-.032-.032-.032Z" fill="#E54646"/><path d="M203.157 93.845c-.454.556-.652 1.303-.876 1.975-.256.76-.454 1.546-.62 2.326-.16.735-.281 1.477-.364 2.224-.077.678-.288 1.579-.007 2.225.026.057.115.051.141 0 .147-.281.166-.601.192-.914a28.273 28.273 0 0 1 .492-3.484c.153-.741.345-1.47.549-2.198.199-.697.518-1.4.576-2.123 0-.038-.058-.063-.083-.031ZM219.717 89.468a7.397 7.397 0 0 0 1.566-2.358c.185-.435.345-.895.409-1.362.013-.108.032-.223.051-.338-.115-.026-.23-.045-.345-.064-.026.121-.051.243-.09.358-.147.434-.275.863-.473 1.278a7.715 7.715 0 0 1-1.514 2.18 7.54 7.54 0 0 1-2.186 1.502 8.307 8.307 0 0 1-1.234.428c-.217.057-.441.115-.665.16-.102.019-.192.032-.275.057-.089 0-.179.032-.217.14-.703 2.014-1.54 3.957-2.569 5.824-.377-.953-.652-1.944-.921-2.934a39.01 39.01 0 0 1-.415-1.688c-.122-.517-.186-1.13-.422-1.604 0-.006-.013-.013-.019-.02a.245.245 0 0 0-.007-.114c-.083-.243-.53-.288-.741-.358a8.355 8.355 0 0 1-3.1-1.88c-.831-.798-1.515-1.789-2.02-2.837-.064.019-.134.045-.198.064.607 2.077 2.199 3.777 4.142 4.736.256.128.524.236.792.332.237.084.525.205.787.218 0 .268.076.543.121.811.058.307.121.608.185.914.128.563.256 1.132.403 1.688a23.623 23.623 0 0 0 1.195 3.317c.071.16.313.134.39 0 1.132-1.981 2.097-4.09 2.781-6.27.3.013.671-.09.894-.134a6.543 6.543 0 0 0 1.349-.448 7.436 7.436 0 0 0 2.346-1.591v-.007ZM222.407 97.142s-.044-.038-.057-.006c-.294.665-.243 1.508-.307 2.224a43.568 43.568 0 0 1-.32 2.589c-.249 1.668-.671 3.285-.997 4.94a.16.16 0 0 0 .307.084c.588-1.586.895-3.305 1.144-4.973.122-.799.205-1.604.269-2.41.032-.409.057-.812.064-1.22.006-.429.038-.825-.109-1.228h.006ZM217.461 111.748c-.486.166-.914.447-1.362.69-.505.275-1.029.518-1.566.722-1.041.397-2.128.684-3.24.767-2.084.154-4.302-.383-5.989-1.636-.019-.013-.045.019-.026.032 1.63 1.477 3.771 2.097 5.951 1.975a11.134 11.134 0 0 0 3.349-.722 13.91 13.91 0 0 0 1.541-.697c.511-.268 1.041-.55 1.431-.984.051-.058 0-.173-.083-.147h-.006Z" fill="#111827"/><path d="M218.137 110.285c-.396.269-.78.544-1.195.774-.237.127-.48.236-.716.358-.224.115-.486.198-.678.364-.013.013 0 .025.013.025.224.032.46-.057.671-.115.224-.063.435-.153.639-.249a6.596 6.596 0 0 0 1.247-.697c.14-.102.466-.274.447-.479-.025-.243-.332-.051-.428.013v.006ZM213.766 141.374v-1.068c0-.319.083-.748-.071-1.035-.07-.128-.249-.115-.326 0-.095.147-.102.332-.108.505-.013.192-.019.383-.026.575-.013.358-.013.71-.006 1.067.013.729.013 1.471.198 2.18.057.211.332.147.351-.051.071-.722 0-1.451-.006-2.173h-.006ZM210.083 152.769c.301-1.47.627-2.94.978-4.397.364-1.502.825-3.004 1.08-4.525.007-.052-.07-.096-.096-.039-.517 1.221-.837 2.531-1.182 3.816a87.371 87.371 0 0 0-.965 4.014 105.968 105.968 0 0 0-1.426 8.13c-.728 5.408-1.093 10.911-.958 16.363.07 2.959.236 5.931.652 8.865-2.877-.006-5.746-.019-8.623-.013h-1.246c.025.186.045.365.07.537 3.292 0 6.577 0 9.869-.012h1.885l-.038-.499h-1.464c-.236-2.601-.473-5.203-.568-7.817a105.462 105.462 0 0 1-.007-8.169c.217-5.445.953-10.897 2.039-16.234v-.02ZM231.945 184.965h-2.039a.21.21 0 0 0 .045-.134c-.147-3.612-.332-7.21-.358-10.828-.013-1.777 0-3.554.064-5.331.064-1.796.237-3.579.288-5.375.096-3.528-.563-7.005-.723-10.521-.076-1.757.001-3.509.013-5.266a62.492 62.492 0 0 0-.185-5.248c-.307-3.861-.895-7.785-2.09-11.479-.038-.128-.23-.077-.198.057.773 3.432 1.489 6.852 1.815 10.361.16 1.719.256 3.439.262 5.165.013 1.751-.083 3.502-.058 5.253.045 3.522.736 6.993.761 10.515.013 1.764-.147 3.522-.243 5.286a98.814 98.814 0 0 0-.172 5.33c-.013 4.027.159 8.06.396 12.081 0 .057.025.102.057.134l-6.634.019h-2.563c.045.179.089.345.128.505 3.183 0 6.359.013 9.542.019h1.918l-.019-.556-.007.013ZM209.311 75.361c-.039-.453-.224-.894-.569-1.073a.633.633 0 0 0-.32-.07.442.442 0 0 0-.224.019.585.585 0 0 0-.306.12l-.16.142a.848.848 0 0 0-.192.377c-.141.652-.045 1.975.92 1.86.224-.026.448-.115.589-.288.21-.256.3-.671.268-1.08l-.006-.007ZM215.551 75.522c-.039-.454-.224-.895-.569-1.074a.631.631 0 0 0-.32-.07.438.438 0 0 0-.223.019.587.587 0 0 0-.307.121l-.16.14a.848.848 0 0 0-.192.378c-.14.652-.044 1.975.921 1.86.223-.026.447-.115.588-.288.211-.255.3-.67.268-1.08l-.006-.006Z" fill="#111827"/><path d="M211.555 78.832a2.49 2.49 0 0 0-.281-.236c-.096-.064-.192-.115-.275-.198-.166-.154-.268-.365-.102-.556.198-.224.345-.46.447-.742.083-.243.192-.607.064-.85-.057-.102-.211-.096-.268 0-.083.134-.083.313-.128.46a1.989 1.989 0 0 1-.179.416 2.357 2.357 0 0 1-.269.358c-.127.134-.236.275-.255.466-.032.3.128.595.351.787.109.095.237.178.365.242.14.064.274.083.428.09.115.006.179-.154.096-.23l.006-.007Z" fill="#E54646"/><path d="M214.521 74.618a.374.374 0 0 0-.116-.191l-.089-.07a.442.442 0 0 0-.217-.058.37.37 0 0 0-.166.038.325.325 0 0 0-.141.09.337.337 0 0 0-.09.14.38.38 0 0 0-.038.167c0 .038.013.076.013.115.019.076.057.14.115.191l.089.07a.447.447 0 0 0 .218.058.373.373 0 0 0 .166-.038.327.327 0 0 0 .14-.09.294.294 0 0 0 .09-.14.366.366 0 0 0 .038-.166c0-.039-.012-.077-.012-.116Z" fill="#fff"/><path d="M207.859 77.285c0 .467-.582.844-1.298.844-.716 0-1.297-.377-1.297-.844 0-.466.581-.844 1.297-.844s1.298.377 1.298.844ZM218.015 77.469c0 .466-.582.843-1.298.843-.715 0-1.297-.377-1.297-.843 0-.467.582-.844 1.297-.844.716 0 1.298.377 1.298.844ZM215.816 73.858a.198.198 0 0 0-.186-.05c-.012 0-.032.012-.044.018-.02 0-.032.013-.045.026-.007 0-.019.013-.026.02l-.006.005-.038.039-.077.077s-.039.044-.058.076l-.019.045c0 .006-.006.013-.013.026v.012c0 .007-.006.013-.006.02-.006.012-.013.025-.013.038 0 .038 0 .07.019.102.013.02.032.038.051.051.007 0 .013.007.026.013a.15.15 0 0 0 .128 0 .299.299 0 0 0 .064-.032l.045-.02s.057-.037.076-.057l.071-.07.038-.038.006-.007c.013-.012.019-.025.032-.038l.026-.07a.183.183 0 0 0-.051-.186ZM216.138 74.612s-.007-.02-.013-.032a.08.08 0 0 0-.032-.032c-.007-.006-.019-.013-.026-.013a.12.12 0 0 0-.044-.013h-.058s-.019-.012-.032-.012h-.064c-.019 0-.038 0-.057.012-.026.007-.045.02-.071.032a.09.09 0 0 0 0 .16.233.233 0 0 0 .071.032c.019 0 .038.007.057.013.019 0 .038.006.058 0h.096s.019-.013.031-.013c.013 0 .032-.012.039-.019a.122.122 0 0 0 .045-.064V74.6v.013Z" fill="#E54646"/><path d="M208.073 74.472a.366.366 0 0 0-.115-.192l-.089-.07a.446.446 0 0 0-.218-.058.373.373 0 0 0-.166.039.327.327 0 0 0-.14.09.328.328 0 0 0-.09.14.38.38 0 0 0-.038.166c0 .038.013.077.013.115.019.077.057.14.115.192l.089.07c.07.038.141.058.217.058a.378.378 0 0 0 .167-.039.328.328 0 0 0 .14-.09.295.295 0 0 0 .09-.14.38.38 0 0 0 .038-.166c0-.038-.013-.077-.013-.115Z" fill="#fff"/><path d="M207.1 73.889s-.013-.02-.026-.032c-.019-.02-.038-.026-.057-.032h.019l-.051-.02-.013-.012a.193.193 0 0 0-.038-.032s-.013 0-.02-.006c-.019-.013-.032-.026-.057-.032h-.045.007c-.026 0-.045 0-.064.019-.007.006-.013.019-.02.025-.006.013-.012.02-.012.032v.039c0 .025 0 .044.012.07v.006a.14.14 0 0 0 .039.064s.006.013.013.013a.363.363 0 0 0 .095.07s.013 0 .02.007a.203.203 0 0 0 .083.025.128.128 0 0 0 .102-.044c.019-.026.045-.058.038-.09 0-.025 0-.051-.019-.077l-.006.007ZM206.813 74.56s-.038-.025-.063-.032a.315.315 0 0 1-.077-.012h-.09c-.083 0-.166 0-.236.044a.152.152 0 0 0-.064.166.158.158 0 0 0 .141.11h.038c.026 0 .051 0 .077-.007.019 0 .038-.007.057-.013h.115a.15.15 0 0 0 .071-.02c.044-.018.083-.05.089-.101a.127.127 0 0 0-.058-.122v-.013Z" fill="#E54646"/><path d="M208.409 71.8a.46.46 0 0 0 .102-.217.36.36 0 0 0-.045-.243c-.032-.045-.064-.096-.102-.134a.616.616 0 0 0-.269-.147c-.134-.051-.3-.026-.434 0a1.806 1.806 0 0 0-.537.198c-.16.09-.326.198-.441.339-.154.179-.32.428-.32.664 0 .34.365.531.652.378.128-.07.224-.199.339-.294-.032.025-.07.05-.102.076.051-.038.102-.083.153-.121.09-.07.192-.122.294-.166.083-.032.173-.064.262-.084a.878.878 0 0 0 .256-.095.603.603 0 0 0 .172-.141v-.006s-.006.006 0-.007h.02ZM208.41 71.806s.058-.07.038-.05a.227.227 0 0 0-.038.05ZM215.794 72.428c-.039.013-.026.013 0 0ZM213.971 71.71c-.007 0-.013-.006-.02-.013 0 0 .013.007.026.02l-.006-.007Z" fill="#5F2A3D"/><path d="M215.907 71.71c-.192-.313-.525-.511-.87-.613a1.793 1.793 0 0 0-.524-.083c-.224 0-.454.025-.613.191-.16.16-.103.377.057.505.045.039.09.064.147.084.032.012.058.019.09.025.064.013.127.026.198.051l.172.058c.032.013.058.025.09.032-.141-.045-.032-.013.006.006.115.058.23.128.339.205l.013.012-.019-.019c.044.045.102.083.159.122.051.032.103.07.16.096.051.025.109.05.166.07.039.013.09.019.128.019.07 0 .122-.026.186-.051.006 0 .012 0 .025-.013l-.025.013c.006 0 .012 0 .019-.007h.012a.418.418 0 0 0 .058-.044c.185-.173.147-.46.026-.659Z" fill="#5F2A3D"/><path d="M215.012 72.18c.032.026.065.065 0 0ZM213.971 71.709c.013.007.032.02 0 0Z" fill="#5F2A3D"/><path d="M212.148 79.958a1.507 1.507 0 0 0-.863-.179c-.345.026-.664.14-.926.371-.173.16.051.435.249.32a1.44 1.44 0 0 1 .703-.198c.064 0 .134 0 .198.012H211.56a.706.706 0 0 1 .115.026c.154.038.256.096.377.134.077.026.173.058.25.026.012 0 .044-.032.057-.039.019-.019.039-.032.051-.064.077-.179-.121-.338-.255-.415l-.007.006ZM212.358 80.438l-.006.013c.019-.013.013-.013.006-.013Z" fill="#E54646"/><path d="M168.103 82.596c-.128-.959-1.048-1.981-2.115-1.866a6.001 6.001 0 0 0-2.282.722c-.364.198-.722.415-1.068.645a16.078 16.078 0 0 0-2.422 1.944c-.709.703-1.381 1.495-1.822 2.396a8.894 8.894 0 0 0-.607 1.592c-.128.467-.16.92-.032 1.387.198.728.869 1.457 1.7 1.393.563-.044 1.036-.243 1.445-.639.23-.224.383-.492.562-.76.199-.3.409-.582.627-.87.217-.268.428-.543.639-.818l-.345.441a11.736 11.736 0 0 1 1.949-1.95c.582-.428 1.202-.837 1.847-1.156.128-.039.25-.09.384-.109.479-.07 1.067-.575 1.285-.99a2.23 2.23 0 0 0 .255-1.375v.013ZM175.172 81.503a.946.946 0 0 0-.128-.473.903.903 0 0 0-.236-.41.652.652 0 0 0-.179-.217l-.377-.294s-.051-.031-.077-.05a2.072 2.072 0 0 0-.601-.256 4.176 4.176 0 0 0-.409-.09 9.517 9.517 0 0 0-.843-.115c-.141-.013-.275-.025-.416-.013-.275.032-.55.064-.818.122-.064.013-.134.032-.198.045-.102.025-.185.064-.294.108-.205.09-.422.211-.575.384-.282.326-.512.741-.493 1.189.02.415.154.914.493 1.188.242.192.46.384.779.46.052.013.109.02.16.026.141.02.275.045.409.077.154.038.313.057.473.09.16.031.313.076.467.127.07.026.147.051.217.077.077.032.166.045.249.057h-.025.038c.071.013.141.026.211.032.102.02.198.032.294.032.096.007.192 0 .288-.032a.956.956 0 0 0 .473-.127.909.909 0 0 0 .409-.237 1.16 1.16 0 0 0 .192-.153l.032-.032c.319-.333.504-.787.511-1.247 0-.096-.019-.166-.032-.28l.006.012ZM180.713 107.262a1.57 1.57 0 0 0-.364-.691c-.371-.479-.965-.837-1.598-.799-.064 0-.128 0-.192.007-.46.019-.837.128-1.227.345-.147.077-.281.16-.422.262a4.85 4.85 0 0 1-.39.249 4.005 4.005 0 0 0-.46.326c-.53.384-1.176.659-1.489 1.259a1.496 1.496 0 0 0-.166.908c.044.332.179.562.39.818.447.537 1.105.607 1.751.671.287.026.575.039.856.019.48-.025.908-.153 1.349-.332.345-.141.588-.236.863-.447.339-.256.645-.48.831-.882.096-.211.179-.422.268-.633a2.061 2.061 0 0 0 0-1.08Z" fill="#fff"/><path d="M212.117 264.421h-6.884l-14.221-57.966h6.877l14.228 57.966ZM254.176 264.421h-6.884l-14.222-57.966h6.884l14.222 57.966Z" fill="#8EADD5"/><path d="M210.207 264.421h-6.884l-14.221-57.966h6.877l14.228 57.966Z" fill="#B9CFE6"/><path d="M173.5 264.421h6.884l14.221-57.966h-6.884L173.5 264.421Z" fill="#8EADD5"/><path d="M252.418 264.421h-6.884l-14.222-57.966h6.878l14.228 57.966Z" fill="#B9CFE6"/><path d="M198.272 227.252h40.683v-5.963h-40.683v5.963ZM204.696 248.512h40.683v-5.964h-40.683v5.964Z" fill="#B9CFE6"/><path d="M170.846 264.421h6.884l14.221-57.966h-6.884l-14.221 57.966Z" fill="#fff"/><path d="M215.607 264.421h6.884l14.222-57.966h-6.884l-14.222 57.966Z" fill="#8EADD5"/><path d="M213.059 264.421h6.883l14.222-57.966h-6.878l-14.227 57.966Z" fill="#fff"/><path d="M224.992 221.289h-40.683v5.964h40.683v-5.964ZM218.566 242.547h-40.683v5.963h40.683v-5.963Z" fill="#fff"/><path d="M239.31 202.988h-55.87a2.448 2.448 0 0 0-2.448 2.448v.103a2.448 2.448 0 0 0 2.448 2.448h55.87a2.448 2.448 0 0 0 2.448-2.448v-.103a2.448 2.448 0 0 0-2.448-2.448Z" fill="#E9E7FB"/><path d="M31.431 155.913h45.573c1.521 0 2.953.595 3.905 1.624l6.437 6.928c.632.684 1.591 1.08 2.608 1.08h71.145c2.519 0 4.564 1.771 4.564 3.957v86.364c0 4.717-4.41 8.539-9.843 8.539H33.681c-3.81 0-6.89-2.678-6.89-5.982v-98.489c0-2.225 2.077-4.034 4.647-4.034l-.007.013Z" fill="#F3D0D0"/><path d="m64.847 104.332-19.175 19.175v73.479h93.996v-92.654H64.847Z" fill="#fff"/><path d="M64.847 123.507v-19.175l-19.175 19.175h19.175ZM15.447 177.562h126.286c2.979 0 5.529 1.841 6.079 4.379l16.478 76.118c.715 3.305-2.206 6.36-6.079 6.36H31.924c-2.978 0-5.528-1.841-6.078-4.378L9.368 183.922c-.716-3.304 2.205-6.36 6.079-6.36ZM96.503 143.68c2.403-2.435 4.8-4.877 7.204-7.319 1.412-1.438 1.54-4.026 0-5.439-1.528-1.4-3.931-1.534-5.44 0-2.435 2.391-4.87 4.787-7.299 7.184-2.403-2.403-4.82-4.8-7.26-7.171-1.42-1.464-4.098-1.534-5.504 0-1.445 1.572-1.515 3.943 0 5.503a640.936 640.936 0 0 0 7.152 7.242 638.9 638.9 0 0 0-7.146 7.235c-1.463 1.419-1.534 4.097 0 5.503 1.573 1.445 3.944 1.515 5.504 0a625.859 625.859 0 0 0 7.254-7.165c2.429 2.397 4.858 4.788 7.293 7.178 1.438 1.413 4.027 1.541 5.439 0 1.4-1.527 1.534-3.931 0-5.439a3732.483 3732.483 0 0 0-7.197-7.312ZM18.96 110.565h-.825a7.743 7.743 0 0 0-.473-1.137l.582-.582c.55-.55.55-1.444 0-1.994l-1.394-1.393a1.411 1.411 0 0 0-1.994 0l-.582.581a7.816 7.816 0 0 0-1.137-.473v-.824c0-.78-.633-1.413-1.413-1.413H9.755c-.78 0-1.412.633-1.412 1.413v.824a7.81 7.81 0 0 0-1.138.473l-.582-.581a1.411 1.411 0 0 0-1.994 0l-1.393 1.393c-.55.55-.55 1.444 0 1.994l.581.582a7.74 7.74 0 0 0-.472 1.137H2.52c-.78 0-1.413.633-1.413 1.413v1.969c0 .779.633 1.412 1.413 1.412h.825c.127.396.287.774.472 1.138l-.581.582a1.412 1.412 0 0 0 0 1.994l1.393 1.393c.55.55 1.445.55 1.994 0l.582-.581a7.81 7.81 0 0 0 1.138.473v.824c0 .78.633 1.413 1.412 1.413h1.969c.78 0 1.413-.633 1.413-1.413v-.824a7.816 7.816 0 0 0 1.137-.473l.582.581c.55.55 1.444.55 1.994 0l1.393-1.393c.55-.55.55-1.445 0-1.994l-.581-.582c.185-.364.345-.742.473-1.138h.824c.78 0 1.413-.633 1.413-1.412v-1.969c0-.78-.633-1.413-1.413-1.413Zm-8.22 7.338a4.94 4.94 0 1 1 0-9.881 4.94 4.94 0 0 1 4.94 4.94 4.94 4.94 0 0 1-4.94 4.941ZM179.008 143.942h-.824a7.799 7.799 0 0 0-.473-1.137l.581-.582c.55-.55.55-1.444 0-1.994l-1.393-1.394a1.413 1.413 0 0 0-1.994 0l-.582.582a7.765 7.765 0 0 0-1.138-.473v-.824c0-.78-.632-1.413-1.412-1.413h-1.969c-.78 0-1.412.633-1.412 1.413v.824a7.765 7.765 0 0 0-1.138.473l-.582-.582a1.413 1.413 0 0 0-1.994 0l-1.393 1.394c-.55.55-.55 1.444 0 1.994l.581.582a7.799 7.799 0 0 0-.473 1.137h-.824c-.78 0-1.413.633-1.413 1.413v1.969c0 .779.633 1.412 1.413 1.412h.824c.128.396.288.774.473 1.138l-.581.582a1.411 1.411 0 0 0 0 1.994l1.393 1.393c.55.55 1.445.55 1.994 0l.582-.582c.364.186.741.346 1.138.473v.825c0 .78.632 1.413 1.412 1.413h1.969c.78 0 1.412-.633 1.412-1.413v-.825a7.552 7.552 0 0 0 1.138-.473l.582.582c.549.55 1.444.55 1.994 0l1.393-1.393c.55-.55.55-1.445 0-1.994l-.581-.582a7.81 7.81 0 0 0 .473-1.138h.824c.78 0 1.413-.633 1.413-1.412v-1.969c0-.78-.633-1.413-1.413-1.413Zm-8.219 7.332a4.94 4.94 0 0 1-4.941-4.941 4.94 4.94 0 1 1 9.881 0 4.94 4.94 0 0 1-4.94 4.941ZM41.153 95.96l-1.087-.408c.026-.582.007-1.164-.057-1.74l1.061-.478a1.994 1.994 0 0 0 .997-2.634l-1.138-2.525a1.994 1.994 0 0 0-2.633-.997l-1.061.48a10.16 10.16 0 0 0-1.266-1.19l.41-1.086a1.986 1.986 0 0 0-1.157-2.563l-2.589-.984a1.986 1.986 0 0 0-2.563 1.157l-.41 1.086a11.266 11.266 0 0 0-1.738.058l-.48-1.061a1.994 1.994 0 0 0-2.632-.997l-2.525 1.138a1.994 1.994 0 0 0-.997 2.633l.48 1.06c-.43.39-.825.806-1.19 1.266l-1.086-.409a1.986 1.986 0 0 0-2.563 1.157l-.985 2.589a1.986 1.986 0 0 0 1.157 2.563l1.087.409c-.026.582-.007 1.163.057 1.739l-1.06.479a1.994 1.994 0 0 0-.998 2.633l1.138 2.525a1.993 1.993 0 0 0 2.633.997l1.061-.479c.384.428.806.824 1.266 1.189l-.41 1.086a1.985 1.985 0 0 0 1.158 2.563l2.588.985a1.986 1.986 0 0 0 2.563-1.157l.41-1.087a11.33 11.33 0 0 0 1.738-.057l.48 1.061a1.995 1.995 0 0 0 2.633.997l2.524-1.138a1.994 1.994 0 0 0 .998-2.633l-.48-1.061c.428-.384.825-.806 1.189-1.266l1.087.409a1.985 1.985 0 0 0 2.563-1.157l.984-2.588a1.986 1.986 0 0 0-1.157-2.564Zm-14.49 5.568c-3.592-1.362-5.407-5.382-4.046-8.974 1.362-3.592 5.382-5.408 8.974-4.046 3.592 1.361 5.407 5.382 4.046 8.974-1.361 3.592-5.382 5.407-8.974 4.046Z" fill="#E54646"/><path d="m53.13 47.99-5.183 10.994 11.135 31L88.215 79.52 74.179 40.435 53.13 47.99Z" fill="#fff"/><path d="m56.04 56.082-2.91-8.092-5.183 10.994 8.092-2.902Z" fill="#D6D3F8"/><path d="M69.582 64.15a1030.6 1030.6 0 0 0 2.154-4.666c.422-.914.044-2.16-.92-2.563-.953-.403-2.11-.058-2.564.92-.741 1.54-1.483 3.075-2.224 4.615-1.54-.729-3.08-1.445-4.634-2.148-.914-.447-2.186-.032-2.595.934-.416.984-.045 2.115.933 2.595 1.528.747 3.055 1.476 4.596 2.198a302.244 302.244 0 0 0-2.141 4.621c-.448.914-.032 2.193.933 2.595.984.416 2.115.045 2.595-.933a304.284 304.284 0 0 0 2.205-4.602l4.647 2.148c.914.422 2.16.045 2.563-.92.402-.953.057-2.116-.92-2.564-1.541-.741-3.081-1.489-4.628-2.224v-.006Z" fill="#E54646"/><path d="m114.051 27.295-9.703 3.963-11.006 26.186 24.614 10.342 13.876-33.02-17.781-7.471Z" fill="#fff"/><path d="m111.178 34.128 2.87-6.833-9.702 3.963 6.832 2.87Z" fill="#D6D3F8"/><path d="M115.078 47.154c1.362-.57 2.723-1.138 4.091-1.707.805-.333 1.285-1.342.908-2.167-.371-.812-1.311-1.265-2.167-.907-1.368.543-2.736 1.093-4.104 1.636a287.556 287.556 0 0 0-1.687-4.065c-.32-.819-1.374-1.298-2.192-.92-.838.383-1.26 1.316-.921 2.192.531 1.361 1.08 2.722 1.636 4.078-1.355.556-2.71 1.112-4.052 1.687-.818.32-1.297 1.374-.92 2.192.383.838 1.316 1.26 2.192.92 1.368-.536 2.729-1.08 4.084-1.636.563 1.362 1.132 2.717 1.701 4.078.332.806 1.342 1.285 2.166.908.812-.37 1.266-1.31.908-2.167-.55-1.374-1.093-2.742-1.643-4.11v-.012Z" fill="#E54646"/><path d="M212.35 49.81c-.153-.618-.077-1.179.227-1.683.298-.527.756-.868 1.373-1.02.974-.242 1.818-.602 2.532-1.08.707-.504 1.204-1.143 1.491-1.92.311-.783.331-1.72.06-2.814-.2-.807-.578-1.47-1.135-1.988-.533-.523-1.188-.878-1.965-1.064-.753-.192-1.558-.182-2.413.03a5.188 5.188 0 0 0-1.8.824 6.09 6.09 0 0 0-1.33 1.35c-.298.426-.7.79-1.205 1.092-.487.272-1.054.274-1.7.005-.676-.287-1.112-.72-1.306-1.303-.195-.582-.104-1.184.271-1.807a9.188 9.188 0 0 1 2.491-2.772 9.589 9.589 0 0 1 3.521-1.665c1.639-.406 3.206-.39 4.701.047a8.793 8.793 0 0 1 3.912 2.208c1.096 1.065 1.84 2.393 2.234 3.985.294 1.188.378 2.29.251 3.304a7.035 7.035 0 0 1-.951 2.731 8.01 8.01 0 0 1-1.892 2.132 11.755 11.755 0 0 1-2.613 1.517l-.124.106c-.018.03-.021.068-.01.116l.327 1.318c.153.618.08 1.19-.218 1.718-.304.504-.765.832-1.383.985-.617.153-1.178.078-1.682-.226-.509-.328-.841-.8-.994-1.418l-.67-2.709Zm4.747 10.775c-.689.17-1.268.125-1.736-.138-.45-.292-.761-.782-.931-1.47l-.15-.607c-.171-.689-.122-1.255.146-1.7.286-.474.774-.797 1.463-.967l.463-.115c.689-.17 1.259-.11 1.709.182.468.263.788.738.958 1.427l.15.606c.171.69.113 1.27-.173 1.745-.268.444-.747.752-1.436.922l-.463.115Z" fill="#fff"/><path d="M203.762 54.992c-.367-.424-.532-.895-.495-1.412.023-.534.247-.984.671-1.352.669-.579 1.188-1.2 1.557-1.861.354-.678.489-1.38.403-2.105-.069-.74-.429-1.485-1.078-2.235-.481-.555-1.043-.924-1.688-1.108a3.62 3.62 0 0 0-1.97-.05c-.668.151-1.296.48-1.884.99a4.596 4.596 0 0 0-1.085 1.367 5.389 5.389 0 0 0-.504 1.593 3.386 3.386 0 0 1-.51 1.34c-.274.409-.719.637-1.334.685-.646.045-1.162-.122-1.547-.502-.386-.38-.556-.889-.51-1.528a8.082 8.082 0 0 1 .848-3.175 8.436 8.436 0 0 1 2.1-2.717c1.125-.975 2.363-1.59 3.712-1.845a7.755 7.755 0 0 1 3.958.17c1.287.398 2.404 1.144 3.35 2.237.706.816 1.213 1.648 1.519 2.496.292.832.407 1.674.346 2.526a7.062 7.062 0 0 1-.634 2.433c-.361.77-.843 1.515-1.445 2.237l-.056.133c-.002.03.011.063.039.095l.784.905c.368.425.54.904.517 1.437-.038.518-.268.96-.692 1.328-.425.367-.895.532-1.413.495-.532-.054-.981-.293-1.348-.717l-1.611-1.86Zm8.042 6.568c-.473.41-.946.605-1.419.586-.471-.049-.911-.31-1.32-.783l-.361-.416c-.409-.473-.598-.938-.565-1.395.035-.487.289-.935.762-1.345l.318-.275c.473-.41.945-.59 1.416-.541.473.019.914.265 1.324.738l.36.416c.41.473.597.953.562 1.44-.033.456-.286.89-.759 1.3l-.318.275ZM220.789 51.344c.233-.51.593-.855 1.08-1.036.495-.2.998-.183 1.508.05.804.37 1.584.584 2.339.646a3.55 3.55 0 0 0 2.083-.505c.645-.37 1.174-1.006 1.587-1.908.306-.667.409-1.332.309-1.995a3.619 3.619 0 0 0-.771-1.813c-.414-.546-.974-.981-1.68-1.305a4.58 4.58 0 0 0-1.695-.42 5.387 5.387 0 0 0-1.659.2c-.44.131-.916.162-1.431.092-.485-.08-.877-.39-1.175-.93-.309-.57-.371-1.108-.185-1.617.185-.508.579-.874 1.179-1.097a8.103 8.103 0 0 1 3.241-.544c1.15.029 2.265.29 3.343.785 1.354.62 2.426 1.492 3.217 2.614a7.756 7.756 0 0 1 1.486 3.673c.171 1.336-.045 2.662-.648 3.976-.449.98-.997 1.786-1.642 2.416a6.206 6.206 0 0 1-2.155 1.362 7.075 7.075 0 0 1-2.477.432c-.85-.01-1.729-.14-2.635-.39l-.145.006c-.028.01-.052.035-.07.075l-.499 1.088c-.234.51-.598.865-1.094 1.066-.486.18-.984.154-1.494-.08-.51-.234-.856-.594-1.036-1.08-.172-.507-.141-1.015.093-1.525l1.026-2.236Zm-2.645 10.04c-.569-.26-.943-.61-1.122-1.048-.15-.449-.095-.958.166-1.527l.229-.5c.261-.569.606-.933 1.035-1.092.458-.17.971-.125 1.54.136l.383.175c.569.261.928.616 1.078 1.065.179.438.139.941-.122 1.51l-.23.5c-.26.57-.62.939-1.078 1.109-.429.16-.928.108-1.497-.152l-.382-.176Z" fill="#fff"/></svg>