<svg xmlns="http://www.w3.org/2000/svg" width="326" height="288" fill="none"><path fill="#4CAF50" d="M216.621 30.813c8.509 0 15.406-6.898 15.406-15.407C232.027 6.898 225.13 0 216.621 0s-15.406 6.898-15.406 15.406c0 8.509 6.897 15.407 15.406 15.407Z"/><path fill="url(#a)" d="M20.805 246.217h282.842v2.528c0 21.317-17.305 38.616-38.616 38.616H59.427c-21.317 0-38.616-17.306-38.616-38.616v-2.528h-.006Z"/><path fill="#EAEFFF" d="M42.648 54.69h76.053s-8.918-12.742-22.29-9.144c0 0 .28-7.914-7.35-8.815-5.774-.68-8.386 6.287-8.386 6.287s-1.757-8.089-11.148-8.082c-6.877 0-9.029 9.547-9.029 9.547s-16.54 2.294-17.85 10.208ZM248.504 99.38h46.711s-1.432-6.559-8.808-6.559c0 0-.227-8.516-10.707-8.614-6.332-.058-8.931 7.558-8.931 7.558s-5.237-2.703-8.835-1.588c-3.597 1.115-3.007 5.626-3.007 5.626s-6.831-.934-6.423 3.577ZM194.314 34.933h75.438s-5.127-12.814-19.594-7.142c0 0 1.096-8.79-7.324-10.254-6.74-1.173-8.97 4.757-8.97 4.757s-6.248-9.65-12.995-6.112c-5.127 2.697-5.159 9.535-5.159 9.535s-19.017 1.886-21.396 9.21v.006ZM261.155 125.727H65.19l89.424-87.298c4.776-4.66 12.398-4.66 17.169 0l89.372 87.298Z"/><path fill="#4F46E5" d="m65.19 125.727 97.985 66.732 97.98-66.732H65.19Z"/><path fill="#fff" d="M219.565 94.24H104.229v125.143h115.336V94.24Z"/><path stroke="#4F46E5" stroke-linecap="round" stroke-linejoin="round" stroke-width="2.13" d="M112.789 206.09h98.219"/><path fill="#A6BBFF" d="m163.175 192.459-97.986-66.732v120.249h195.966V125.727l-97.98 66.732Z"/><path fill="#F6DECD" d="M286.375 171.298s1.984-.143 3.176-.104c1.193.039 2.321 1.504 2.165 2.878-.156 1.374-1.782 2.035-3.182 1.445-1.4-.589-3.098-2.061-3.098-2.061l.933-2.158h.006Z"/><path fill="#4F46E5" d="m293.461 170.986-.413-.171a1.167 1.167 0 0 0-1.525.63l-3.817 9.187a1.167 1.167 0 0 0 .63 1.525l.413.172a1.167 1.167 0 0 0 1.525-.63l3.817-9.188a1.167 1.167 0 0 0-.63-1.525Z"/><path fill="#F6DECD" d="M284.132 177.922s1.802-.849 2.923-1.244c1.121-.396 2.709.564 3.059 1.905.35 1.342-.927 2.541-2.443 2.496-1.517-.046-3.63-.804-3.63-.804l.091-2.346v-.007ZM271.585 146.591c-.175-.285 1.88-4.057 1.88-4.057.22.123 3.668 1.743 5.509-2.962l1.303-4.822a4.342 4.342 0 0 0-2.677-5.516c-1.925-.667-4.006.117-5.062 1.757 0 0 0 .006-.007.013-.09.142-.175.291-.253.447-1.244 2.19-5.723 8.652-8.127 11.621-2.009 2.482-3.072 3.967.291 5.691 3.364 1.724 8.005-.746 7.143-2.165v-.007ZM279.349 189.434s19.872 5.463 20.371 13.636c.499 8.167-19.918 18.68-24.967 20.812-5.049 2.133-11.122 4.304-11.122 4.304l-1.063-1.802s19.529-19.528 23.035-19.781c3.507-.253 5.01-3.008-1.251-3.753-6.261-.752-14.019-3.267-14.019-3.267l9.016-10.143v-.006Z"/><path fill="#252639" d="M264.15 226.046v2.113c0 .239-.052.466-.162.68a10.37 10.37 0 0 0-.888 2.599c-.311 1.549.907 4.459-1.128 6.358-.369.344-.972.098-.972-.408v-10.753c0-.661.609-1.153 1.257-1.011l1.886.422h.007ZM283.303 242.561h2.113c.24 0 .467.051.681.162.447.226 1.374.641 2.599.888 1.549.311 4.459-.908 6.358 1.127.344.37.097.973-.408.973h-10.753c-.661 0-1.153-.61-1.011-1.258l.421-1.886v-.006Z"/><path fill="#F6DECD" d="M264.08 203.056c1.711 2.314 3.519 4.609 4.699 6.171.525.693.927 1.251 1.134 1.594 1.199 1.971-.181 9.547 2.133 13.546 2.314 3.999 11.076 18.997 11.55 19.646.473.641 1.788-.94 1.853-1.362.039-.259-4.452-21.239-7.894-37.274-.843-3.921-1.62-7.545-2.262-10.5-3.759 2.755-7.551 5.444-11.213 8.173v.006Z"/><path fill="#258829" d="M268.447 146.338c4.355-1.945 6.812 9.683 9.65 15.192 2.839 5.51 9.684 9.515 9.684 9.515l-2.172 3.675s-10.966-1.951-15.639-11.692c-4.667-9.736-7.506-14.02-1.53-16.69h.007Z"/><path fill="#4CAF50" d="M271.337 143.512c-7.032-4.81-18.278 8.756-18.777 28.784-.499 20.034 6.508 31.953 11.518 36.633l20.28-20.605s-11.517-4.232-11.264-19.139c.252-14.914 3.752-21.908-1.75-25.673h-.007Z"/><path fill="#4CAF50" d="M265.83 149.038c-7.668 1.627-13.086 30.975 18.212 31.227l1.569-4.751s-12.704-2.19-15.024-8.445c-1.847-4.978 1.432-19.347-4.757-18.031Z"/><path fill="#252639" d="M276.867 133.518s2.541 1.996 4.544 1.627c2.002-.37 3-3.533-.253-5.289-3.254-1.75-5.801-2.819-8.97-1.335-3.17 1.484-6.138 8.62-12.976 11.88-6.845 3.254-15.108 9.638-15.108 17.027 0 7.389 3.253 12.146 9.514 12.522 6.261.376 12.872-7.635 14.382-15.523 1.517-7.888 5.257-13.961 6.313-15.724 1.899-3.176 2.554-5.179 2.554-5.179v-.006Z"/><path stroke="#4F46E5" stroke-miterlimit="10" stroke-width="1.07" d="m299.356 245.815 8.789-35.693a5.006 5.006 0 0 1 5.425-3.779 5.008 5.008 0 0 1 4.44 5.263l-2.068 34.274-16.592-.065h.006ZM313.141 209.939l-6.008 35.901"/><path stroke="#4F46E5" stroke-miterlimit="10" stroke-width="1.07" d="M308.451 217.232s.123 3.766 2.463 6.022M315.354 228.146s-2.366 4.395-5.723 4.019M303.867 235.387s.778 3.681 4.135 5.263M316.007 212.883s-.914 3.364-3.487 2.541"/><path stroke="#4F46E5" stroke-miterlimit="10" stroke-width="1.5" d="M326.002 245.977H0"/><path stroke="#4F46E5" stroke-miterlimit="10" d="M82.565 134.211 53.658 246.216M63.298 134.211 34.39 246.216M61.404 141.527H80.68M58.086 154.375h19.256M54.762 167.221h19.243M51.441 180.066h19.224M48.117 192.906h19.218M44.799 205.752h19.198M41.475 218.598H60.66M38.154 231.445h19.172"/><path fill="#252639" d="M69.37 72.825c.201 2.075-2.988 2.658-2.988 2.658l-1.542 6.922s7.02 7.946 5.289 13.021c-1.73 5.069-27.287 3.487-27.663-3.105-.583-10.208 9.392-11.355 10.454-15.211 1.744-6.346 5.199-8.51 9.224-7.972 4.024.537 6.863-.11 7.226 3.687Z"/><path fill="#F6DECD" d="M60.732 88.465c-.253-.24-.428-.577-.545-.952l.078-3.74c.26.065.525.117.804.136 2.508.181 4.712-1.718 4.893-4.226l.415-5.639c.181-2.508-1.718-4.712-4.226-4.893-2.139-.156-4.05 1.205-4.686 3.17v.012a4.462 4.462 0 0 0-.136.525c-.674 2.567-3.707 13.553-6.527 14.493-3.195 1.069-6.242 2.663-6.242 2.663s5.6 1.77 9.496 2.612c3.895.843 12.859.778 12.859.778s-4.907-3.72-6.17-4.926l-.013-.013Z"/><path fill="#4F46E5" d="m116.387 70-9.715 15.154-8.076-3.034 8.439 4.097L116.387 70Z"/><path fill="#F6DECD" d="M96.787 90.221s.823-1.42 1.4-2.216c.577-.798 2.107-.888 2.969-.143.862.745.563 2.158-.487 2.839-1.05.68-2.845 1.154-2.845 1.154l-1.037-1.634Z"/><path fill="#252639" d="m12.14 178.199 1.407.94c.156.104.286.24.383.408.194.35.629 1.037 1.329 1.744.887.894 3.363 1.38 3.72 3.571.065.395-.37.687-.7.46l-7.143-4.77a.824.824 0 0 1-.11-1.283l1.115-1.07Z"/><path fill="#F6DECD" d="M33.969 149.598c-1.03 2.054-2.003 4.174-2.69 5.58-.305.622-.55 1.108-.726 1.387-.966 1.569-6.857 3.325-8.866 6.423-2.01 3.098-9.509 14.765-9.794 15.335-.285.571 1.316.934 1.64.83.201-.065 13.5-10.863 23.664-19.12 2.482-2.022 4.783-3.889 6.656-5.412-3.318-1.679-6.611-3.403-9.878-5.023h-.006Z"/><path fill="#252639" d="m55.365 190.469 1.672.214c.188.026.363.09.525.194a8.17 8.17 0 0 0 1.97.966c1.193.402 3.624-.272 4.926 1.529.234.325-.02.778-.421.726l-8.283-1.043a1.013 1.013 0 0 1-.83-1.348l.44-1.232v-.006Z"/><path fill="#F6DECD" d="M48.443 155.035c1.232 3.085 2.632 6.176 2.936 7.181.078.266.085.622.046 1.037-.22 2.359-1.97 6.831-1.14 9.858.978 3.559 4.711 16.917 4.944 17.513.234.596 1.647 1.186 1.809-.188 0 0 .635-15.089 1.199-27.572.2-4.446.389-8.646.531-11.874-3.46 1.361-6.935 2.677-10.318 4.045h-.007ZM17.19 126.401s-.668 1.498-1.16 2.353c-.493.856-1.997 1.102-2.936.454-.94-.648-.785-2.087.188-2.878.972-.791 2.702-1.445 2.702-1.445l1.206 1.516Z"/><path fill="#4F46E5" d="m43.848 113.703.123.02c-.04 0-.078 0-.123-.02Z"/><path fill="#4CAF50" d="m98.459 91.932-1.25-1.407a1.058 1.058 0 0 0-1.407-.149s-14.344 12.957-15.582 12.205c-4.05-2.457-13.863-10.546-15.562-11.583-2.216-1.36-3.182 2.198-7.188 1.387-4.18-.842-7.764-4.472-7.764-4.472-.584-.31-1.102-.149-1.44-.065-1.866.156-3.616 1.874-3.616 1.874l-29.23 34.973a.991.991 0 0 0 .252 1.433l.817.525a.997.997 0 0 0 1.218-.11c2.158-2.062 19.658-13.65 27.32-27.145-.48 7.402.408 13.78-1.077 16.204 0 0-19.107 30.158-17.227 37.774.765 3.104 12.263 6.948 18.874 6.954 8.386.013 23.294-1.879 22.38-5.172l-9.904-39.038s.175-2.826 1.77-4.394c1.977-1.944 5.289-11.505 5.289-11.505s10.661 8.517 16.527 8.212c6.922-.356 16.8-15.108 16.8-15.108a1.05 1.05 0 0 0 0-1.4v.007Z"/><path fill="#252639" d="M69.11 74.142s.072 1.873-4.562 1.692c-4.634-.182-5.568-1.977-6.384 2.683-.817 4.66-4.913 16.761-10.662 16.969-5.75.207-6.06-5.225-4.336-8.128 1.724-2.904 9.534-4.635 11.265-8.672 1.73-4.038 1.186-9.697 6.099-9.619 4.912.078 8.587 1.556 8.587 5.075h-.006Z"/><g fill="#4F46E5" clip-path="url(#b)"><path fill-rule="evenodd" d="M174.753 126.005a1.912 1.912 0 0 1 1.415-.226c.483.11.905.403 1.176.818l1.898 2.894a1.922 1.922 0 0 1-.297 2.452l-.006.007-.027.025-.109.102-.431.412a159.964 159.964 0 0 0-6.939 7.16c-4.211 4.631-9.211 10.692-12.577 16.572-.939 1.641-3.233 1.993-4.594.577l-12.43-12.915a1.92 1.92 0 0 1-.356-2.138c.109-.233.263-.442.454-.614l3.757-3.389a1.919 1.919 0 0 1 2.434-.109l6.342 4.755c9.907-9.769 15.525-13.518 20.29-16.383Zm.402 4.247c-4.389 2.745-9.867 6.726-19.162 16.02a1.92 1.92 0 0 1-2.505.178l-6.406-4.803-1.114 1.004 10.191 10.591c3.539-5.884 8.409-11.741 12.44-16.172a164.05 164.05 0 0 1 6.564-6.808l-.008-.01Z" clip-rule="evenodd"/><path d="M156.5 156c-3.333-3.833-10.2-11.8-11-13v-3.5l9.5 5 19.5-15.5 1.5 1-12.5 14.5-7 11.5Z"/></g><defs><radialGradient id="a" cx="0" cy="0" r="1" gradientTransform="matrix(126.4809 -2.75982 .60716 27.82578 163.852 245.052)" gradientUnits="userSpaceOnUse"><stop stop-color="#A6BBFF"/><stop offset="1" stop-color="#fff"/></radialGradient><clipPath id="b"><path fill="#fff" d="M137.387 120h46v46h-46z"/></clipPath></defs></svg>