<svg width="24" height="24" viewBox="0 0 24 24" fill="none" xmlns="http://www.w3.org/2000/svg">
<path d="M6.00821 3.99996H17.9919C18.8171 3.99996 19.5687 4.32767 20.1147 4.85455L20.116 4.85331C20.6613 5.37992 21 6.10679 21 6.90501V18.095C21 18.8929 20.6606 19.6195 20.1156 20.1459C19.5706 20.6723 18.8182 21 17.9919 21H6.00821C5.182 21 4.42891 20.6729 3.88362 20.1463C3.33896 19.6203 3 18.8942 3 18.095V6.90501C3 6.10845 3.33832 5.38282 3.88324 4.85543L3.88742 4.85139C4.43347 4.32607 5.18404 3.99996 6.00821 3.99996ZM9.22613 15.9464H7.08952L8.72998 9.4391H11.8588L13.4993 15.9464H11.3627L11.199 14.9783H9.38966L9.22613 15.9464ZM10.0655 11.712L9.75427 13.4235H10.8243L10.5233 11.712H10.0655ZM14.036 15.9464V9.44179H16.0612V15.9464H14.036ZM17.9919 5.33816H6.00821C5.79544 5.33793 5.58473 5.37829 5.38816 5.45693C5.1916 5.53556 5.01305 5.65092 4.86278 5.79639L4.86015 5.79893C4.70956 5.94405 4.59012 6.11646 4.5087 6.30627C4.42727 6.49608 4.38547 6.69955 4.38567 6.90501V18.095C4.38567 18.5246 4.56883 18.916 4.86316 19.2003C5.15791 19.4849 5.56372 19.6618 6.00821 19.6618H17.9919C18.4357 19.6618 18.8413 19.4845 19.136 19.1999C19.4307 18.9153 19.6143 18.5236 19.6143 18.095V6.90501C19.6143 6.47585 19.4312 6.08389 19.1364 5.79929V5.79675C18.8438 5.51406 18.4386 5.33816 17.9919 5.33816Z" fill="white"/>
</svg>
