<svg width="40" height="40" viewBox="0 0 40 40" fill="none" xmlns="http://www.w3.org/2000/svg">
<path d="M3.3335 33.3334H36.6668V36.6667H3.3335V33.3334ZM6.66683 20H10.0002V31.6667H6.66683V20ZM15.0002 20H18.3335V31.6667H15.0002V20ZM21.6668 20H25.0002V31.6667H21.6668V20ZM30.0002 20H33.3335V31.6667H30.0002V20ZM3.3335 11.6667L20.0002 3.33337L36.6668 11.6667V18.3334H3.3335V11.6667ZM6.66683 13.7267V15H33.3335V13.7267L20.0002 7.06004L6.66683 13.7267ZM20.0002 13.3334C19.5581 13.3334 19.1342 13.1578 18.8217 12.8452C18.5091 12.5327 18.3335 12.1087 18.3335 11.6667C18.3335 11.2247 18.5091 10.8008 18.8217 10.4882C19.1342 10.1756 19.5581 10 20.0002 10C20.4422 10 20.8661 10.1756 21.1787 10.4882C21.4912 10.8008 21.6668 11.2247 21.6668 11.6667C21.6668 12.1087 21.4912 12.5327 21.1787 12.8452C20.8661 13.1578 20.4422 13.3334 20.0002 13.3334Z" fill="#4F46E5"/>
</svg>
