<svg width="20" height="20" viewBox="0 0 20 20" fill="none" xmlns="http://www.w3.org/2000/svg">
<path d="M3.33398 4.58333C3.33398 4.36232 3.42178 4.15036 3.57806 3.99408C3.73434 3.8378 3.9463 3.75 4.16732 3.75H15.834C16.055 3.75 16.267 3.8378 16.4232 3.99408C16.5795 4.15036 16.6673 4.36232 16.6673 4.58333V7.91667H3.33398V4.58333Z" stroke="#4F46E5" stroke-width="1.8" stroke-linejoin="round"/>
<path d="M6.66797 5V2.5M13.3346 5V2.5" stroke="#4F46E5" stroke-width="1.8" stroke-linecap="round"/>
<path d="M3.33398 7.91602H16.6673V16.416C16.6673 16.637 16.5795 16.849 16.4232 17.0053C16.267 17.1616 16.055 17.2493 15.834 17.2493H4.16732C3.9463 17.2493 3.73434 17.1616 3.57806 17.0053C3.42178 16.849 3.33398 16.637 3.33398 16.416V7.91602Z" stroke="#4F46E5" stroke-width="1.8" stroke-linejoin="round"/>
</svg>

