<?xml version="1.0" encoding="UTF-8"?>
<svg version="1.1" xmlns="http://www.w3.org/2000/svg" width="512" height="512">
<path d="M0 0 C1.26582983 -0.00382555 2.53165966 -0.00765109 3.83584797 -0.01159257 C7.32879651 -0.02183331 10.82164196 -0.01970083 14.3145988 -0.01541197 C18.08974854 -0.01293759 21.86487392 -0.02196773 25.64001465 -0.02944946 C33.02796076 -0.04217868 40.41587049 -0.04399238 47.80382572 -0.0416492 C53.81086275 -0.03986391 59.81788876 -0.0416202 65.82492447 -0.04587364 C66.68089109 -0.04646883 67.53685772 -0.04706402 68.41876272 -0.04767724 C70.15783587 -0.04888904 71.89690902 -0.05010317 73.63598217 -0.05131962 C89.93370328 -0.06218828 106.23140368 -0.06003584 122.52912594 -0.05393478 C137.42649214 -0.04876606 152.32379295 -0.06002105 167.22114621 -0.07903299 C182.53202846 -0.09842231 197.84287978 -0.10666548 213.15377438 -0.10290974 C221.74395534 -0.10099938 230.33408064 -0.1034692 238.92425156 -0.11762428 C246.23708719 -0.12955298 253.5498329 -0.13092628 260.86266981 -0.11883412 C264.59064409 -0.1129559 268.31845402 -0.11181654 272.04641724 -0.12383652 C276.09503916 -0.13673825 280.14327193 -0.12620585 284.19189453 -0.11352539 C285.35990817 -0.12089968 286.52792181 -0.12827396 287.7313298 -0.13587171 C305.07493713 -0.02185327 321.47566613 7.06024316 333.66824341 19.40522766 C344.50675091 31.51982855 350.56026275 46.19260595 350.48362732 62.39323425 C350.48745287 63.26704306 350.49127841 64.14085186 350.49521989 65.04113972 C350.50547044 67.94495436 350.50157294 70.84856833 350.49758911 73.75239563 C350.50193998 75.84422487 350.50712438 77.93605251 350.51307678 80.02787781 C350.52643757 85.69321006 350.5270487 91.35847547 350.52451348 97.0238204 C350.5234418 101.76027623 350.52833219 106.49671864 350.5331189 111.23317158 C350.54420398 122.41081381 350.5446571 133.58842244 350.53860474 144.7660675 C350.53256496 156.2819029 350.54487842 167.79761611 350.56617481 179.31343067 C350.5838103 189.21519621 350.58978909 199.11692292 350.58653706 209.01870358 C350.58472719 214.92611142 350.58733092 220.83343209 350.6012516 226.74082565 C350.61385698 232.29769586 350.61186012 237.85437604 350.59884071 243.41124344 C350.5964813 245.44490372 350.59918671 247.47857749 350.60746384 249.51222229 C350.68328972 269.59812489 346.7835061 287.32521466 332.50222778 302.29975891 C321.12460602 313.53691621 305.71479777 320.49465956 289.71871746 320.48442489 C288.80188249 320.4736226 287.88504753 320.46282031 286.94042969 320.45169067 C285.94285302 320.44831072 284.94527636 320.44493077 283.9174701 320.44144839 C280.5945299 320.42807691 277.27185799 320.40051507 273.94900513 320.37324524 C271.55825799 320.36125367 269.16750526 320.35033573 266.77674866 320.34040833 C261.63674415 320.3180547 256.49679991 320.2906225 251.35683823 320.26000404 C243.21962537 320.21295892 235.08245948 320.19502945 226.94512939 320.1829834 C225.5559552 320.18080153 224.16678102 320.17861323 222.77760684 320.1764186 C219.9658014 320.17205129 217.15399578 320.16782311 214.34219003 320.16365945 C207.1256746 320.15283184 199.90916432 320.14027779 192.69265747 320.12471008 C191.96898102 320.12315966 191.24530457 320.12160924 190.49969853 320.12001183 C178.78309958 320.09365513 167.06702227 320.02723187 155.35067831 319.94778649 C143.29411816 319.86715112 131.23812312 319.8364897 119.18129933 319.84985369 C112.42242754 319.8558103 105.6652818 319.83860262 98.9067955 319.76214027 C92.54477183 319.69218925 86.18553194 319.68348634 79.82325935 319.72048187 C77.49771043 319.72331565 75.1720067 319.70416083 72.8468647 319.66056633 C61.30475094 319.45628178 52.41437169 319.46758798 43.5713501 327.56762695 C41.89555202 329.23684049 40.28104672 330.93840528 38.69553971 332.69337308 C36.51183781 335.01752525 34.10425068 336.91632342 31.59793091 338.88569641 C27.5955418 342.12798789 23.64697456 345.42462769 19.72293091 348.76069641 C14.87344369 352.88183589 9.97131968 356.93061253 5.03543091 360.94819641 C1.90493425 363.52216033 -1.1887937 366.13638727 -4.27706909 368.76069641 C-9.1232711 372.87883051 -14.01943827 376.9276055 -18.95675659 380.93647766 C-21.57296768 383.0924965 -24.14717478 385.28851634 -26.71481323 387.50166321 C-29.37781972 389.78473562 -32.07472493 392.02427366 -34.77706909 394.26069641 C-35.56984253 394.93100891 -36.36261597 395.60132141 -37.17941284 396.29194641 C-42.2361822 400.16910772 -46.52464473 401.18004121 -52.89816284 400.85444641 C-57.47306853 399.91091091 -60.68280015 397.71993041 -63.77706909 394.26069641 C-65.81767504 390.95457352 -66.02825683 388.39099186 -66.03154469 384.53617764 C-66.03737688 383.36109282 -66.04320907 382.186008 -66.049218 380.97531456 C-66.04543868 379.68321966 -66.04165935 378.39112477 -66.0377655 377.05987549 C-66.04078536 375.67420307 -66.04467401 374.28853231 -66.04935807 372.90286452 C-66.05966894 369.09077967 -66.05744838 365.27878855 -66.05317748 361.4666959 C-66.05071571 357.35675924 -66.05971779 353.24684546 -66.06721497 349.13691711 C-66.07998123 341.08186206 -66.0817531 333.02684031 -66.0794147 324.97177684 C-66.07763283 318.42257241 -66.07937838 311.8733781 -66.08363914 305.32417488 C-66.08453193 303.92680664 -66.08453193 303.92680664 -66.08544275 302.50120874 C-66.08665449 300.60872892 -66.08786863 298.7162491 -66.08908512 296.82376928 C-66.09996896 279.06343997 -66.09779471 261.30312963 -66.09170028 243.54279924 C-66.08653548 227.30331306 -66.09777351 211.06388694 -66.1167985 194.82441264 C-66.13618467 178.14863421 -66.1444312 161.47288418 -66.14067525 144.7970944 C-66.13876373 135.43554018 -66.14124556 126.07403702 -66.15538979 116.71249199 C-66.16731479 108.73894727 -66.16869625 100.76548501 -66.15659962 92.79193913 C-66.15071758 88.72578496 -66.14959255 84.65978153 -66.16160202 80.59363747 C-66.17248402 76.86575657 -66.16933014 73.13815185 -66.15534034 69.41028375 C-66.15145578 67.43427761 -66.1622219 65.45825909 -66.17363721 63.4822821 C-66.07118122 46.51648655 -59.81596157 30.55208367 -48.05636597 18.22163391 C-34.64780147 4.97860724 -18.34988616 -0.05914851 0 0 Z M-25.77706909 43.26069641 C-33.35122034 53.39453312 -33.93002434 63.70189991 -33.89732361 75.92218018 C-33.89817803 77.09197357 -33.89903246 78.26176697 -33.89991277 79.46700865 C-33.90127179 82.70065677 -33.89815909 85.93426449 -33.89313471 89.16790783 C-33.88880666 92.65997827 -33.89027831 96.1520469 -33.89103699 99.64411926 C-33.89156073 105.68996563 -33.88842955 111.73580118 -33.88279915 117.78164482 C-33.87466389 126.52286406 -33.87206685 135.26407809 -33.87081116 144.00530071 C-33.86862383 158.1881732 -33.86197237 172.37103993 -33.85250854 186.5539093 C-33.84332619 200.32929963 -33.83624938 214.1046884 -33.83200073 227.88008118 C-33.83173801 228.72953585 -33.83147529 229.57899053 -33.8312046 230.45418625 C-33.82989954 234.71575211 -33.82863584 238.97731798 -33.8273927 243.23888385 C-33.81703001 278.57949214 -33.79942035 313.92009375 -33.77706909 349.26069641 C-32.51921729 348.32703285 -31.26273275 347.39152717 -30.00680542 346.45527649 C-28.95702263 345.67414238 -28.95702263 345.67414238 -27.8860321 344.87722778 C-24.62102229 342.37458039 -21.54711211 339.66992035 -18.46456909 336.94819641 C-13.22665407 332.36518319 -7.92791978 327.88438258 -2.51925659 323.50288391 C0.59293846 320.95815463 3.66000443 318.36429595 6.72293091 315.76069641 C14.95543448 308.77386095 23.30957004 301.9502818 31.78543091 295.26069641 C32.39378784 294.77923157 33.00214478 294.29776672 33.62893677 293.80171204 C39.56587541 289.13763554 39.56587541 289.13763554 44.28296661 289.12761784 C45.13769703 289.12337679 45.99242745 289.11913574 46.8730588 289.11476618 C48.2898484 289.11534538 48.2898484 289.11534538 49.73526001 289.11593628 C50.73446708 289.11240943 51.73367415 289.10888259 52.76316023 289.10524887 C56.13321858 289.09451897 59.50324872 289.0908734 62.87332153 289.08711243 C65.28100709 289.08081027 67.68869146 289.07404485 70.09637451 289.06684875 C75.29322477 289.05215266 80.49007336 289.04035723 85.68693542 289.03090096 C93.21167422 289.01703126 100.73637938 288.99584258 108.26109403 288.97247242 C120.48306555 288.93452994 132.70504318 288.89957498 144.92703247 288.86787415 C145.6589696 288.86597365 146.39090672 288.86407316 147.14502376 288.86211508 C157.51841752 288.83531754 167.89181597 288.81143637 178.26521939 288.78873008 C178.99473099 288.78713278 179.72424259 288.78553547 180.4758606 288.78388977 C181.20448203 288.7822963 181.93310346 288.78070284 182.68380433 288.77906109 C194.84965405 288.75225698 207.01546823 288.71783926 219.18127966 288.67723602 C226.68217164 288.65250682 234.18302544 288.63415456 241.68395168 288.62408041 C247.44056521 288.61578873 253.19711091 288.5972667 258.95368576 288.57501984 C261.31026253 288.56755962 263.66685278 288.5634642 266.02344131 288.56302452 C269.24730871 288.56193758 272.47091083 288.5486498 275.69473267 288.53244019 C276.62141329 288.53505704 277.54809392 288.53767389 278.50285578 288.54037005 C290.69412687 288.44501118 301.29481217 285.99041251 310.22293091 277.26069641 C316.89169564 268.33822171 318.38028462 259.18638392 318.35664368 248.19714355 C318.35890923 247.41417619 318.36117479 246.63120882 318.363509 245.82451516 C318.36980952 243.21623155 318.36902218 240.60800043 318.36819458 237.99971008 C318.37118853 236.12330051 318.37459161 234.24689155 318.37837219 232.3704834 C318.38719228 227.28360855 318.38954947 222.19675053 318.39018798 217.10986876 C318.3908996 213.92890928 318.39303606 210.74795405 318.3956852 207.56699562 C318.40493198 196.46155654 318.40902091 185.35612945 318.40823364 174.25068665 C318.40763301 163.9118721 318.4181838 153.57310976 318.43397731 143.23430842 C318.44706852 134.34660859 318.45241688 125.4589258 318.45177823 116.5712164 C318.45152371 111.26801137 318.45434948 105.96485274 318.46495628 100.66165733 C318.47466388 95.67200803 318.47469821 90.68244927 318.46743965 85.69279671 C318.46639712 83.86673729 318.4687369 82.04067215 318.47480011 80.2146225 C318.52142946 65.19244178 318.31832951 51.60826317 307.22293091 40.26069641 C297.07696023 32.67747609 286.74907854 32.1096558 274.5148468 32.12698364 C272.75236421 32.12358531 272.75236421 32.12358531 270.95427591 32.12011832 C267.70573357 32.11489481 264.45722617 32.11413144 261.20868099 32.1153127 C257.70005517 32.11551723 254.19143753 32.10999291 250.68281555 32.10525513 C243.81364005 32.09695958 236.94447312 32.09420078 230.07529303 32.09364275 C224.49011327 32.09316708 218.90493633 32.09110981 213.31975746 32.08794212 C197.47456152 32.07913866 181.62937234 32.07452228 165.78417393 32.0752726 C164.93050426 32.07531255 164.07683459 32.07535251 163.19729614 32.07539368 C162.3425807 32.07543456 161.48786526 32.07547544 160.60724936 32.07551756 C146.75667215 32.07592397 132.90612214 32.06635473 119.0555528 32.05225531 C104.8239048 32.03788261 90.59227004 32.03098561 76.3606146 32.03184909 C68.37463152 32.03218074 60.38867695 32.02944752 52.40270042 32.01867104 C45.60327177 32.00955429 38.80388456 32.00740044 32.00445243 32.01418046 C28.53790478 32.01743969 25.07143658 32.01752398 21.60489655 32.00882721 C17.84051559 32.0011052 14.07634245 32.00575374 10.31196594 32.01345825 C9.22527609 32.00831469 8.13858623 32.00317113 7.01896638 31.9978717 C-5.60401217 32.05485034 -16.49026352 34.18026429 -25.77706909 43.26069641 Z " fill="#4f46e5" transform="translate(65.77706909179688,-0.2606964111328125)"/>
<path d="M0 0 C0.75466553 0.01611328 1.50933105 0.03222656 2.28686523 0.04882812 C18.4243248 0.61475208 33.94772444 8.13056709 45.2578125 19.58203125 C57.5053637 33.27157242 62.12571647 48.64802797 62.07992554 66.66581726 C62.08445665 67.980094 62.08898776 69.29437073 62.09365618 70.64847404 C62.10583227 74.27648698 62.10563216 77.90440733 62.10326743 81.53243601 C62.10285792 85.45268892 62.11391077 89.37291267 62.12338257 93.29315186 C62.13996116 100.96416683 62.14549059 108.63515107 62.14660732 116.30618247 C62.14755877 122.54018883 62.15167387 128.77418508 62.15800858 135.00818825 C62.17560817 152.68797268 62.18484882 170.36773288 62.18334763 188.04752614 C62.18326772 188.99968675 62.1831878 189.95184737 62.18310547 190.93286133 C62.18302371 191.88618529 62.18294195 192.83950926 62.18285771 193.82172183 C62.18204395 209.28830258 62.20120742 224.75478615 62.2293822 240.22133877 C62.25809278 256.10737394 62.27192368 271.99336166 62.27019465 287.87942344 C62.26953038 296.79642936 62.27503956 305.71333323 62.29655075 314.63031578 C62.31473795 322.2177937 62.31912978 329.80512324 62.3055319 337.39261349 C62.2989913 341.26380765 62.2989244 345.13471692 62.3162384 349.00588417 C62.33480808 353.20085082 62.32244432 357.39515467 62.30697632 361.59013367 C62.31726344 362.81551194 62.32755057 364.04089022 62.33814943 365.30340117 C62.2862534 371.64859632 62.14954158 375.65125088 57.8125 380.4375 C53.27039264 384.75250199 49.08804527 384.95414753 43.10546875 385.1640625 C35.17463521 383.41419887 28.70344308 376.87947266 22.625 371.75 C21.13386898 370.50654449 19.64166702 369.2643722 18.1484375 368.0234375 C17.41592773 367.41467773 16.68341797 366.80591797 15.92871094 366.17871094 C12.90816789 363.69341871 9.83653489 361.2775185 6.75 358.875 C1.72030821 354.95610714 -3.2480069 350.96949795 -8.1875 346.9375 C-18.17855435 338.77168282 -18.17855435 338.77168282 -28.40578365 330.90611553 C-30.1875 329.4375 -30.1875 329.4375 -31.94169712 327.45433521 C-38.30326909 320.97473065 -44.24774845 320.54404816 -52.8608743 320.41495478 C-55.96448257 320.41188142 -59.06630602 320.4482318 -62.16967773 320.48510742 C-64.40944086 320.48241034 -66.64920209 320.47615202 -68.88894653 320.46661377 C-73.69913217 320.45377996 -78.50835497 320.46608347 -83.31844902 320.49815941 C-90.9297648 320.54884351 -98.54043345 320.54378806 -106.15187073 320.53157043 C-116.82706791 320.5203544 -127.50188819 320.53479886 -138.17700195 320.5715332 C-149.14054437 320.60914762 -160.10402512 320.63856586 -171.06762695 320.65161133 C-171.74280227 320.65242233 -172.41797759 320.65323333 -173.11361276 320.65406891 C-184.39263758 320.66703533 -195.67165139 320.66762666 -206.95068318 320.66343576 C-214.51115712 320.66219267 -222.07131166 320.67906192 -229.63171566 320.71108377 C-234.34125212 320.72858823 -239.05075293 320.73409484 -243.76031876 320.73687744 C-245.93751314 320.74084524 -248.11470546 320.74999576 -250.29185295 320.76482582 C-271.44971679 320.90469042 -271.44971679 320.90469042 -280.1875 317.4375 C-280.92384391 317.14993426 -281.66018782 316.86236853 -282.41884518 316.56608868 C-300.39280029 309.22269169 -311.07147849 296.80459091 -319.14453125 279.3359375 C-322.28700094 270.60293185 -322.56012164 262.15551516 -322.55810547 252.98901367 C-322.56251202 250.74387531 -322.59902399 248.50065582 -322.63671875 246.25585938 C-322.64258274 244.81250663 -322.64655493 243.36914468 -322.6484375 241.92578125 C-322.65665527 240.63196533 -322.66487305 239.33814941 -322.67333984 238.00512695 C-321.95114435 232.7018894 -319.49700098 229.68152593 -315.6875 226.0625 C-310.52249991 223.66446425 -305.7872712 223.68368465 -300.1875 224.4375 C-295.22019068 226.74375076 -292.74873917 229.64447566 -290.1875 234.4375 C-289.61470231 238.01858425 -289.58207644 241.56585778 -289.5625 245.1875 C-289.39030572 257.72324359 -288.36996318 269.9999684 -279.1875 279.4375 C-269.75816309 286.39821223 -260.16014788 287.60578691 -248.70823669 287.52842712 C-247.7729166 287.52630944 -246.8375965 287.52419176 -245.87393337 287.52200991 C-242.74982634 287.51397296 -239.62579069 287.49893292 -236.50170898 287.48413086 C-234.25741233 287.47733786 -232.01311385 287.471127 -229.76881409 287.4654541 C-224.93928239 287.4530129 -220.1097633 287.43842215 -215.28024101 287.42277336 C-207.63490565 287.40001803 -199.9896194 287.39437528 -192.34425354 287.39344788 C-190.40684261 287.39317523 -190.40684261 287.39317523 -188.43029207 287.39289707 C-183.77955603 287.39250439 -179.12882006 287.39246628 -174.47808401 287.392664 C-169.7060108 287.39282516 -164.93393824 287.39231362 -160.16186523 287.39086914 C-159.14154942 287.39057215 -159.14154942 287.39057215 -158.10062117 287.39026917 C-147.09141878 287.38607532 -136.08253646 287.34953759 -125.07344674 287.30191296 C-113.74803926 287.25375378 -102.42315327 287.24461225 -91.09762627 287.26825243 C-84.74759384 287.28017212 -78.39870612 287.27438684 -72.04882622 287.22556877 C-66.0703876 287.17999258 -60.09376751 287.18156058 -54.11528587 287.21831512 C-51.92966702 287.22355817 -49.74392744 287.21192215 -47.55851364 287.18152809 C-33.29198572 286.99541024 -24.79222295 288.67307745 -14.1875 298.4375 C-12.66361798 299.6641579 -11.13414058 300.88398188 -9.59375 302.08984375 C-8.28807137 303.18060651 -6.98593236 304.27562132 -5.6875 305.375 C-4.2458115 306.57804611 -2.80308804 307.77985294 -1.359375 308.98046875 C-0.65876953 309.5636084 0.04183594 310.14674805 0.76367188 310.74755859 C8.20946789 316.88909816 15.89561446 322.73529315 23.54589844 328.61816406 C24.14908905 329.0820755 24.75227966 329.54598694 25.37374878 330.0239563 C26.85329281 331.16185583 28.33289099 332.29968496 29.8125 333.4375 C29.7306886 299.33866986 29.63850248 265.23988567 29.53244839 231.14112259 C29.51992987 227.11328768 29.50749704 223.08545252 29.49511719 219.05761719 C29.4914182 217.85483878 29.4914182 217.85483878 29.48764448 216.62776183 C29.44794642 203.65297692 29.41518602 190.67818333 29.38500018 177.70337321 C29.35386016 164.38497274 29.31523986 151.06660902 29.26970994 137.74824989 C29.24186186 129.5334995 29.21981291 121.31877592 29.20523749 113.10399108 C29.19467612 107.46691029 29.17683335 101.8298815 29.15333296 96.19283994 C29.13999776 92.94305433 29.13088896 89.6933549 29.12828636 86.44354057 C29.12495293 82.91303481 29.10944575 79.38277986 29.0909729 75.85232544 C29.093875 74.32602042 29.093875 74.32602042 29.09683573 72.76888096 C29.00675058 61.22156047 27.16134034 50.01825258 18.8125 41.4375 C12.39612646 36.70094958 6.24767459 34.48827037 -1.6875 33.5625 C-8.35064502 32.57705193 -11.90627024 30.83879449 -16.5625 25.9375 C-18.96053575 20.77249991 -18.94131535 16.0372712 -18.1875 10.4375 C-14.50647128 2.50913045 -8.45784537 -0.26576105 0 0 Z " fill="#4f46e5" transform="translate(450.1875,127.5625)"/>
<path d="M0 0 C1.25090675 -0.00935994 1.25090675 -0.00935994 2.52708435 -0.01890898 C5.31391906 -0.03482936 8.09987796 -0.0222386 10.88671875 -0.00964355 C12.88770049 -0.0150651 14.88867824 -0.02218794 16.88964844 -0.03088379 C22.3193745 -0.04911614 27.74879647 -0.04204986 33.17852783 -0.02936745 C38.86121438 -0.0192394 44.54387493 -0.02863259 50.2265625 -0.03491211 C59.76957879 -0.04218906 69.31247126 -0.03259948 78.85546875 -0.0135498 C89.88799463 0.00821896 100.92022482 0.00116763 111.95274353 -0.02085543 C121.42551708 -0.03900799 130.89820162 -0.04156843 140.37098694 -0.03110075 C146.02846117 -0.02486506 151.68579642 -0.02403236 157.34326172 -0.0372467 C162.66212809 -0.0488024 167.98061328 -0.04078433 173.29943848 -0.01766968 C175.25133633 -0.01238113 177.20326628 -0.01389885 179.15515137 -0.02272034 C181.82001297 -0.0336536 184.48365366 -0.01993932 187.1484375 0 C188.30671303 -0.01338433 188.30671303 -0.01338433 189.48838806 -0.02703905 C194.6676624 0.04811473 197.57125259 1.26427255 201.57421875 4.50793457 C205.20255538 8.32723629 205.88422333 11.39072463 206.07421875 16.50793457 C205.88422333 21.62514451 205.20255538 24.68863285 201.57421875 28.50793457 C196.83204604 32.35058647 193.08756051 33.08449805 187.1484375 33.01586914 C185.89753075 33.02522908 185.89753075 33.02522908 184.62135315 33.03477812 C181.83451844 33.0506985 179.04855954 33.03810774 176.26171875 33.0255127 C174.26073701 33.03093424 172.25975926 33.03805708 170.25878906 33.04675293 C164.829063 33.06498529 159.39964103 33.057919 153.96990967 33.04523659 C148.28722312 33.03510854 142.60456257 33.04450173 136.921875 33.05078125 C127.37885871 33.0580582 117.83596624 33.04846862 108.29296875 33.02941895 C97.26044287 33.00765018 86.22821268 33.01470151 75.19569397 33.03672457 C65.72292042 33.05487713 56.25023588 33.05743757 46.77745056 33.04696989 C41.11997633 33.0407342 35.46264108 33.0399015 29.80517578 33.05311584 C24.48630941 33.06467154 19.16782422 33.05665347 13.84899902 33.03353882 C11.89710117 33.02825027 9.94517122 33.02976799 7.99328613 33.03858948 C5.32842453 33.04952274 2.66478384 33.03580846 0 33.01586914 C-1.15827553 33.02925347 -1.15827553 33.02925347 -2.33995056 33.04290819 C-7.5192249 32.96775441 -10.42281509 31.75159659 -14.42578125 28.50793457 C-18.05411788 24.68863285 -18.73578583 21.62514451 -18.92578125 16.50793457 C-18.73578583 11.39072463 -18.05411788 8.32723629 -14.42578125 4.50793457 C-9.68360854 0.66528267 -5.93912301 -0.06862891 0 0 Z " fill="#4f46e5" transform="translate(114.42578125,95.4920654296875)"/>
<path d="M0 0 C1.37045026 -0.00542487 2.74089468 -0.01254958 4.11132812 -0.02124023 C7.82214736 -0.03943355 11.53252041 -0.0324229 15.24334717 -0.01972389 C19.13229549 -0.00957537 23.02120638 -0.0189947 26.91015625 -0.02526855 C33.44017372 -0.03253959 39.97001005 -0.02297163 46.5 -0.00390625 C54.04255185 0.01786159 61.58467116 0.01080982 69.12721252 -0.01121187 C75.61063837 -0.02938147 82.09393423 -0.03191662 88.57737732 -0.0214572 C92.44635098 -0.01523078 96.31512153 -0.01436299 100.18408203 -0.02760315 C103.82206402 -0.03918392 107.45949 -0.03109613 111.09741211 -0.00802612 C113.06428265 -0.00024035 115.03120039 -0.01207597 116.99804688 -0.02453613 C127.73721866 0.0783295 127.73721866 0.0783295 132.5625 4.51757812 C136.19083663 8.33687985 136.87250458 11.40036819 137.0625 16.51757812 C136.87250458 21.63478806 136.19083663 24.6982764 132.5625 28.51757812 C126.80959292 33.81024048 120.62887603 33.08269404 113.125 33.03515625 C111.75454974 33.04058112 110.38410532 33.04770583 109.01367188 33.05639648 C105.30285264 33.0745898 101.59247959 33.06757915 97.88165283 33.05488014 C93.99270451 33.04473162 90.10379362 33.05415095 86.21484375 33.0604248 C79.68482628 33.06769584 73.15498995 33.05812788 66.625 33.0390625 C59.08244815 33.01729466 51.54032884 33.02434643 43.99778748 33.04636812 C37.51436163 33.06453772 31.03106577 33.06707287 24.54762268 33.05661345 C20.67864902 33.05038703 16.80987847 33.04951924 12.94091797 33.0627594 C9.30293598 33.07434017 5.66551 33.06625238 2.02758789 33.04318237 C0.06071735 33.0353966 -1.90620039 33.04723222 -3.87304688 33.05969238 C-14.61221866 32.95682675 -14.61221866 32.95682675 -19.4375 28.51757812 C-23.06583663 24.6982764 -23.74750458 21.63478806 -23.9375 16.51757812 C-23.74750458 11.40036819 -23.06583663 8.33687985 -19.4375 4.51757812 C-13.68459292 -0.77508423 -7.50387603 -0.04753779 0 0 Z " fill="#4f46e5" transform="translate(119.4375,159.482421875)"/>
</svg>
