<svg width="20" height="18" viewBox="0 0 20 18" fill="none" xmlns="http://www.w3.org/2000/svg">
<path d="M3.76663 3.94432L1.1608 1.33932L2.33996 0.160156L18.8391 16.6602L17.66 17.8385L14.9016 15.0802C13.436 16.0098 11.7356 16.5021 9.99996 16.4993C5.50663 16.4993 1.7683 13.266 0.984131 8.99932C1.34249 7.05825 2.31882 5.28507 3.76746 3.94432H3.76663ZM12.2975 12.476L11.0775 11.256C10.6108 11.4793 10.0864 11.5523 9.57657 11.465C9.0667 11.3777 8.59647 11.1344 8.23069 10.7686C7.86491 10.4028 7.6216 9.93258 7.53431 9.42271C7.44702 8.91284 7.52003 8.38845 7.7433 7.92182L6.5233 6.70182C5.99306 7.50306 5.75602 8.46293 5.85232 9.4189C5.94862 10.3749 6.37234 11.2682 7.05173 11.9476C7.73112 12.6269 8.62443 13.0507 9.58039 13.147C10.5364 13.2433 11.4962 13.0062 12.2975 12.476ZM6.64496 2.13266C7.68413 1.72432 8.81663 1.49932 9.99996 1.49932C14.4933 1.49932 18.2316 4.73266 19.0158 8.99932C18.7605 10.3874 18.1865 11.6973 17.3391 12.826L14.1225 9.60932C14.218 8.96567 14.1615 8.30858 13.9574 7.6907C13.7533 7.07282 13.4074 6.51133 12.9472 6.05121C12.4871 5.59109 11.9256 5.24513 11.3078 5.04105C10.6899 4.83697 10.0328 4.78044 9.38913 4.87599L6.64496 2.13349V2.13266Z" fill="#111827"/>
</svg>
