<svg width="46" height="46" viewBox="0 0 46 46" fill="none" xmlns="http://www.w3.org/2000/svg">
<rect width="46" height="46" rx="23" fill="#4F46E5"/>
<g clip-path="url(#clip0_594_27339)">
<path fill-rule="evenodd" clip-rule="evenodd" d="M26 24C27.0609 24 28.0783 24.4214 28.8284 25.1716C29.5786 25.9217 30 26.9391 30 28V30C30 30.2652 29.8946 30.5196 29.7071 30.7071C29.5196 30.8946 29.2652 31 29 31C28.7348 31 28.4804 30.8946 28.2929 30.7071C28.1054 30.5196 28 30.2652 28 30V28C28 27.4696 27.7893 26.9609 27.4142 26.5858C27.0391 26.2107 26.5304 26 26 26H19C18.4696 26 17.9609 26.2107 17.5858 26.5858C17.2107 26.9609 17 27.4696 17 28V30C17 30.2652 16.8946 30.5196 16.7071 30.7071C16.5196 30.8946 16.2652 31 16 31C15.7348 31 15.4804 30.8946 15.2929 30.7071C15.1054 30.5196 15 30.2652 15 30V28C15 26.9391 15.4214 25.9217 16.1716 25.1716C16.9217 24.4214 17.9391 24 19 24H26ZM22.5 14C23.6935 14 24.8381 14.4741 25.682 15.318C26.5259 16.1619 27 17.3065 27 18.5C27 19.6935 26.5259 20.8381 25.682 21.682C24.8381 22.5259 23.6935 23 22.5 23C21.3065 23 20.1619 22.5259 19.318 21.682C18.4741 20.8381 18 19.6935 18 18.5C18 17.3065 18.4741 16.1619 19.318 15.318C20.1619 14.4741 21.3065 14 22.5 14ZM22.5 16C21.837 16 21.2011 16.2634 20.7322 16.7322C20.2634 17.2011 20 17.837 20 18.5C20 19.163 20.2634 19.7989 20.7322 20.2678C21.2011 20.7366 21.837 21 22.5 21C23.163 21 23.7989 20.7366 24.2678 20.2678C24.7366 19.7989 25 19.163 25 18.5C25 17.837 24.7366 17.2011 24.2678 16.7322C23.7989 16.2634 23.163 16 22.5 16Z" fill="white"/>
</g>
<defs>
<clipPath id="clip0_594_27339">
<rect width="24" height="24" fill="white" transform="translate(11 11)"/>
</clipPath>
</defs>
</svg>
