<svg width="24" height="24" viewBox="0 0 24 24" fill="none" xmlns="http://www.w3.org/2000/svg">
<g clip-path="url(#clip0_328_6817)">
<path d="M18.3 21H5.7C4.98392 21 4.29716 20.7155 3.79081 20.2092C3.28446 19.7028 3 19.0161 3 18.3V3.9C3 3.66131 3.09482 3.43239 3.2636 3.2636C3.43239 3.09482 3.66131 3 3.9 3H16.5C16.7387 3 16.9676 3.09482 17.1364 3.2636C17.3052 3.43239 17.4 3.66131 17.4 3.9V14.7H21V18.3C21 19.0161 20.7155 19.7028 20.2092 20.2092C19.7028 20.7155 19.0161 21 18.3 21ZM17.4 16.5V18.3C17.4 18.5387 17.4948 18.7676 17.6636 18.9364C17.8324 19.1052 18.0613 19.2 18.3 19.2C18.5387 19.2 18.7676 19.1052 18.9364 18.9364C19.1052 18.7676 19.2 18.5387 19.2 18.3V16.5H17.4ZM15.6 19.2V4.8H4.8V18.3C4.8 18.5387 4.89482 18.7676 5.0636 18.9364C5.23239 19.1052 5.46131 19.2 5.7 19.2H15.6ZM6.6 7.5H13.8V9.3H6.6V7.5ZM6.6 11.1H13.8V12.9H6.6V11.1ZM6.6 14.7H11.1V16.5H6.6V14.7Z" fill="white"/>
</g>
<defs>
<clipPath id="clip0_328_6817">
<rect width="24" height="24" fill="white"/>
</clipPath>
</defs>
</svg>
