<svg width="22" height="22" viewBox="0 0 22 22" fill="none" xmlns="http://www.w3.org/2000/svg">
<path d="M5.18182 19H3V5.90909H19V19H13.9091M8.09091 5.90909V3H13.9091V5.90909M12.4604 15.2735C12.6921 15.3336 12.9326 15.3636 13.1818 15.3636C13.6366 15.3636 14.0849 15.2569 14.491 15.0522C14.897 14.8475 15.2495 14.5505 15.52 14.1849C15.7904 13.8194 15.9715 13.3955 16.0485 12.9474C16.1255 12.4992 16.0964 12.0392 15.9635 11.6044C15.8307 11.1695 15.5977 10.7718 15.2833 10.4433C14.9689 10.1147 14.5818 9.86446 14.1532 9.71256C13.7246 9.56066 13.2664 9.51135 12.8153 9.5686C12.3641 9.62584 11.9327 9.78804 11.5556 10.0422M7.87418 13.7098C7.36803 14.0651 6.98825 14.5724 6.78997 15.1582C6.5917 15.7439 6.58523 16.3776 6.77152 16.9673C6.95781 17.5569 7.32715 18.0719 7.82595 18.4374C8.32476 18.8029 8.92706 19 9.54545 19C10.2277 19.0006 10.8884 18.7615 11.4122 18.3243C11.9359 17.8872 12.2894 17.2799 12.4108 16.6085C12.5322 15.9372 12.4138 15.2446 12.0763 14.6517C11.7388 14.0588 11.2036 13.6034 10.5644 13.3651M8.81818 13.9091C9.58972 13.9091 10.3297 13.6026 10.8752 13.057C11.4208 12.5115 11.7273 11.7715 11.7273 11C11.7273 10.2285 11.4208 9.48852 10.8752 8.94296C10.3297 8.3974 9.58972 8.09091 8.81818 8.09091C8.04664 8.09091 7.3067 8.3974 6.76114 8.94296C6.21558 9.48852 5.90909 10.2285 5.90909 11C5.90909 11.7715 6.21558 12.5115 6.76114 13.057C7.3067 13.6026 8.04664 13.9091 8.81818 13.9091Z" stroke="#4F46E5" stroke-width="1.5"/>
</svg>
