<?xml version="1.0" encoding="UTF-8"?>
<svg version="1.1" xmlns="http://www.w3.org/2000/svg" width="512" height="512">
<path d="M0 0 C2.50031054 2.69466241 2.95867775 3.71590951 3.5 7.4375 C3 11 3 11 1 13.9375 C-2.02230439 16.01533427 -3.88666375 16.78222239 -7.5625 16.56640625 C-11.88360784 15.56230267 -15.72514479 13.5220174 -19.65625 11.5078125 C-32.14592708 5.87578522 -48.36533339 6.06606545 -61.1171875 10.74609375 C-77.5544633 17.89564054 -88.9756524 28.75758742 -96 45.37109375 C-101.38990859 59.54065813 -100.27335669 75.63508336 -94.55859375 89.49609375 C-88.30351649 103.39855577 -78.45066544 113.5259132 -64.33203125 119.5703125 C-51.82775149 124.18200683 -40.16795382 125.25603782 -27 122.8125 C-23.00629038 122.12661321 -21.26002696 121.92066974 -17.3125 123.125 C-13.74576271 126.01694915 -13.74576271 126.01694915 -13 129 C-13.13388786 132.74886 -13.31306074 135.13330094 -15.671875 138.109375 C-24.05670516 144.91853238 -39.71303274 143.80549335 -50 143 C-58.34904788 141.90323098 -65.81678218 139.54857792 -73.4765625 136.0859375 C-77.65703856 134.2869091 -79.17548436 133.70349492 -83.6171875 135.30078125 C-85.04445311 135.95416521 -86.4633807 136.62596617 -87.875 137.3125 C-88.6280542 137.67496826 -89.3811084 138.03743652 -90.15698242 138.41088867 C-116.04848522 151.28703192 -135.32880817 173.38273318 -144.875 200.625 C-145.68038469 203.08888058 -146.36813673 205.4918094 -147 208 C-147.25531494 208.91821533 -147.51062988 209.83643066 -147.77368164 210.7824707 C-151.04344141 224.2830672 -150.56412435 238.12541626 -150.6875 251.9375 C-150.790625 260.868125 -150.89375 269.79875 -151 279 C-125.92 279 -100.84 279 -75 279 C-74.01 272.73 -73.02 266.46 -72 260 C-71.18088562 256.40217901 -70.36131378 252.95408931 -69.3125 249.4375 C-69.05831299 248.57237793 -68.80412598 247.70725586 -68.54223633 246.81591797 C-60.5529151 220.65035291 -45.53479971 198.03390741 -26 179 C-25.51144531 178.45472656 -25.02289063 177.90945312 -24.51953125 177.34765625 C-14.1195771 166.12121568 -0.29590688 158.29867904 13 151 C14.67162897 150.00831741 16.34015207 149.01127772 18 148 C17.29875 147.175 16.5975 146.35 15.875 145.5 C-2.6711072 123.14889026 -9.44661319 97.55150022 -6.78173828 68.63134766 C-3.64596121 45.14884134 9.9941919 22.9702238 28.265625 8.1640625 C50.7829474 -8.31384561 76.62057957 -14.36859151 104.359375 -10.50390625 C107.66093866 -9.84284656 110.79572497 -9.03068769 114 -8 C115.06605469 -7.6596875 116.13210938 -7.319375 117.23046875 -6.96875 C142.90388303 2.11049806 162.40000045 20.45767096 174.09521484 44.91455078 C183.87031127 67.44527762 184.08623861 94.8132796 175.3125 117.625 C170.67629294 128.91952719 163.87386692 138.72307701 156 148 C156.48766846 148.26103516 156.97533691 148.52207031 157.4777832 148.79101562 C167.11195621 153.97402143 176.39582625 159.19230209 185 166 C185.85207031 166.6496875 186.70414062 167.299375 187.58203125 167.96875 C223.62479403 196.25413924 240.91836874 233.55102807 249 278 C274.08 278.33 299.16 278.66 325 279 C324.896875 270.069375 324.79375 261.13875 324.6875 251.9375 C324.65015747 247.75694946 324.65015747 247.75694946 324.61206055 243.49194336 C324.45889868 231.35954555 324.2653782 219.74361482 321 208 C320.81236084 207.25516357 320.62472168 206.51032715 320.43139648 205.74291992 C316.04192798 189.19537127 307.10754976 174.82280857 296 162 C295.35675781 161.25492188 294.71351563 160.50984375 294.05078125 159.7421875 C285.31287711 150.37879348 274.35975814 143.30190522 262.9375 137.6875 C262.14045654 137.284104 261.34341309 136.88070801 260.5222168 136.46508789 C256.86153046 134.75423702 254.8716761 133.83146164 250.828125 134.61328125 C249.89484375 135.07089844 248.9615625 135.52851563 248 136 C246.99582031 136.4021875 245.99164063 136.804375 244.95703125 137.21875 C243.40048828 137.85296875 243.40048828 137.85296875 241.8125 138.5 C226.62566383 144.29767732 207.53187398 145.76529394 192 140 C188.94955026 137.51349895 188.11427345 136.41900265 187.0625 132.5625 C186.99153439 128.51746011 187.33048553 127.01396795 190 124 C194.96752582 121.07043349 199.3056353 122.45999654 204.66015625 123.47265625 C220.94934358 126.0446332 236.15218731 122.36656621 249.7265625 113.1484375 C262.30559451 103.60965492 270.79010262 89.72710299 273 74 C274.34831306 57.50724202 270.87774813 42.50837856 260.82421875 29.09765625 C251.05031009 17.87200986 237.85822836 9.22277357 222.69970703 7.78125 C220.23294675 7.66074879 217.78216869 7.62023782 215.3125 7.625 C213.99910645 7.62741699 213.99910645 7.62741699 212.65917969 7.62988281 C203.55342868 7.80067844 195.70788914 9.92300779 187.6875 14.25 C183.53789281 16.44736583 180.67353077 16.68953733 176 16 C173 13.9375 173 13.9375 171 11 C170.34747708 6.93985741 170.38838387 4.92456925 172.671875 1.47265625 C181.0794843 -7.45690195 196.87902121 -10.76668698 208.76171875 -11.3828125 C231.20223551 -12.03912356 251.17475199 -6.34989977 268 9 C268.6084375 9.51691406 269.216875 10.03382812 269.84375 10.56640625 C283.19080223 22.66975589 291.37527296 42.18013899 292.3203125 59.89453125 C293.00214113 81.22433796 288.07616192 99.55458311 274 116 C273.195625 117.010625 272.39125 118.02125 271.5625 119.0625 C271.046875 119.701875 270.53125 120.34125 270 121 C270.845625 121.25007812 271.69125 121.50015625 272.5625 121.7578125 C298.91433911 131.28040891 320.45578661 157.22123526 332.0390625 181.84130859 C338.52902159 196.42063234 343.04916687 212.22819858 343.17700195 228.2487793 C343.18685875 229.27943008 343.18685875 229.27943008 343.19691467 230.3309021 C343.2164451 232.57867573 343.228257 234.82638364 343.23828125 237.07421875 C343.24235678 237.84611856 343.2464323 238.61801838 343.25063133 239.4133091 C343.27139352 243.48981068 343.28574417 247.56627946 343.29516602 251.64282227 C343.30628261 255.84958649 343.34076984 260.05582937 343.38033772 264.26240826 C343.40645089 267.50432835 343.41485249 270.74612218 343.41844749 273.9881382 C343.42331776 275.53950381 343.43494439 277.09086362 343.45348549 278.64212608 C343.47779274 280.80831384 343.47692981 282.9731224 343.4699707 285.1394043 C343.47583694 286.37071579 343.48170319 287.60202728 343.48774719 288.87065125 C342.90573649 292.60478747 341.97675752 293.74657972 339 296 C335.22207881 297.25930706 331.69949553 297.13135546 327.76489258 297.11352539 C326.50602486 297.11374443 326.50602486 297.11374443 325.22172546 297.1139679 C322.44596783 297.11327087 319.67027718 297.10548829 316.89453125 297.09765625 C314.97067807 297.09579132 313.04682441 297.09436777 311.12297058 297.09336853 C306.05785818 297.08954924 300.99277442 297.07972394 295.92767334 297.06866455 C290.75972888 297.05843781 285.59177979 297.0538682 280.42382812 297.04882812 C270.28253949 297.03810117 260.14127213 297.02103177 250 297 C250.00444122 297.84080612 250.00888245 298.68161224 250.01345825 299.54789734 C250.05356081 307.47832897 250.08399756 315.40872647 250.10362434 323.33923626 C250.11405392 327.41622436 250.12819802 331.49312855 250.15087891 335.57006836 C250.17263677 339.50579972 250.18457484 343.44145045 250.18975449 347.37723732 C250.19344496 348.87751344 250.20065155 350.37778524 250.21146011 351.87802696 C250.22601431 353.98217624 250.22797632 356.08599389 250.22705078 358.19018555 C250.231492 359.38709518 250.23593323 360.58400482 250.24050903 361.81718445 C249.94546108 365.72174968 249.15160179 368.50076019 246.75748438 371.61759812 C244.34227521 373.5173531 242.76191233 373.37703022 239.70694065 373.38031673 C238.6026813 373.38875668 237.49842195 373.39719662 236.36070019 373.40589231 C235.14262753 373.39988227 233.92455487 373.39387222 232.66957092 373.38768005 C230.73435559 373.39575836 230.73435559 373.39575836 228.76004499 373.40399987 C225.17157625 373.41850779 221.58333612 373.41419323 217.99485457 373.40683305 C214.1276968 373.40211681 210.26058961 373.4145975 206.39344788 373.42485046 C198.81450692 373.44207429 191.23564874 373.44287107 183.65669329 373.43763756 C177.49832302 373.43360125 171.33997729 373.43503299 165.1816082 373.44038582 C164.30615541 373.44113424 163.43070262 373.44188266 162.52872096 373.44265376 C160.75041648 373.44418519 158.972112 373.44572354 157.19380753 373.44726873 C140.50526333 373.46100675 123.81676596 373.45554697 107.12822282 373.44408352 C91.8506672 373.43414991 76.57323267 373.4470917 61.29569573 373.47101771 C45.62003679 373.49538282 29.94443431 373.50502296 14.26875681 373.49836498 C5.46351408 373.49486698 -3.34163549 373.49714304 -12.14686394 373.51461601 C-19.64269265 373.52930571 -27.13836262 373.53001598 -34.63418811 373.5125451 C-38.46053244 373.50400586 -42.28659281 373.50195624 -46.11292267 373.51719666 C-50.25637668 373.53349622 -54.39913952 373.51895834 -58.54258728 373.50120544 C-59.75842922 373.51081045 -60.97427115 373.52041546 -62.22695678 373.53031152 C-63.33382388 373.52049723 -64.44069098 373.51068294 -65.58109951 373.50057125 C-66.53788741 373.50046391 -67.4946753 373.50035658 -68.48045677 373.50024599 C-71.73739786 372.85359238 -72.92464578 371.5315999 -75 369 C-76.39218754 365.56784179 -76.12030871 361.96670409 -76.11352539 358.30371094 C-76.11367142 357.63988403 -76.11381744 356.97605713 -76.1139679 356.29211426 C-76.11327332 354.1061675 -76.10550231 351.92030681 -76.09765625 349.734375 C-76.09579045 348.21551561 -76.09436731 346.69665562 -76.09336853 345.17779541 C-76.0895561 341.18622161 -76.0797367 337.19468438 -76.06866455 333.203125 C-76.05842303 329.1276092 -76.05386504 325.05208747 -76.04882812 320.9765625 C-76.03811327 312.98435825 -76.02105216 304.99218368 -76 297 C-77.06631149 297.00666183 -78.13262299 297.01332367 -79.23124695 297.02018738 C-89.28078364 297.08100547 -99.33028299 297.12597603 -109.37996197 297.15543652 C-114.5465989 297.17109162 -119.71308725 297.19232722 -124.87963867 297.22631836 C-129.86576104 297.25891711 -134.85174049 297.27685418 -139.8379612 297.28463173 C-141.7401638 297.29017429 -143.64235859 297.30099755 -145.54450035 297.31719017 C-148.20911938 297.33897126 -150.87314805 297.34196664 -153.5378418 297.34057617 C-154.7171225 297.35675491 -154.7171225 297.35675491 -155.92022705 297.3732605 C-161.72665107 297.34048026 -164.93414654 296.06585346 -169 292 C-169.26742554 289.19863892 -169.26742554 289.19863892 -169.29052734 285.57275391 C-169.29724457 284.9120842 -169.30396179 284.25141449 -169.31088257 283.57072449 C-169.32996342 281.37259471 -169.33379538 279.17477016 -169.3359375 276.9765625 C-169.34237147 275.43549477 -169.34910027 273.89442825 -169.35610962 272.35336304 C-169.36811653 269.10664049 -169.37178825 265.86002444 -169.37060547 262.61328125 C-169.37044451 259.31975968 -169.3840626 256.02680361 -169.41162109 252.73339844 C-169.75915606 210.60967826 -161.53329415 175.29162003 -131.41015625 144.3203125 C-123.58329727 136.54956809 -107.58911325 121 -96 121 C-96.87011719 119.98292969 -96.87011719 119.98292969 -97.7578125 118.9453125 C-113.71787246 99.93019155 -119.77492568 79.62128576 -118 55 C-116.11525412 39.34444956 -108.54743253 24.56119394 -98 13 C-97.48308594 12.3915625 -96.96617188 11.783125 -96.43359375 11.15625 C-72.49693428 -15.24006621 -29.33175386 -18.47414332 0 0 Z M28.35742188 33.36767578 C24.61931373 37.86281806 21.74713106 42.85072642 19 48 C18.50757813 48.91523437 18.01515625 49.83046875 17.5078125 50.7734375 C9.36617924 67.20123006 8.28291285 87.61500476 13.609375 105.1171875 C17.41273124 116.28316021 23.03993789 126.27486035 31 135 C31.51691406 135.6084375 32.03382813 136.216875 32.56640625 136.84375 C44.84430502 150.38328749 64.45005228 158.35302586 82.3984375 159.28515625 C105.06951668 159.96504667 125.15574666 152.28513137 141.75 136.8125 C156.29763737 121.46260321 163.58077364 101.58866881 163.41723633 80.58496094 C162.88350261 62.73097892 156.08716053 45.27521477 144 32 C143.00226563 30.88238281 143.00226563 30.88238281 141.984375 29.7421875 C129.38744903 16.37494592 111.31591287 7.37790851 92.765625 6.69921875 C90.92718237 6.67973988 89.08851149 6.6762651 87.25 6.6875 C86.2813501 6.69313965 85.3127002 6.6987793 84.31469727 6.70458984 C62.46739908 7.07355182 42.81910611 17.15469532 28.35742188 33.36767578 Z M25.5625 165.5625 C24.48778442 166.10994873 24.48778442 166.10994873 23.39135742 166.66845703 C5.89812234 175.65806328 -10.46252985 186.63065774 -23 202 C-23.76183594 202.92425781 -24.52367187 203.84851563 -25.30859375 204.80078125 C-61.00815299 249.04424686 -58 298.3669689 -58 355 C37.7 355 133.4 355 232 355 C233.72347229 308.79765783 233.72347229 308.79765783 227.75 262.0625 C227.53456543 261.20390381 227.31913086 260.34530762 227.09716797 259.46069336 C217.4960344 222.67922418 193.0898775 190.99252227 160.52514648 171.64770508 C150.15944116 164.89283079 150.15944116 164.89283079 138.6015625 162.171875 C135.32663237 163.21434525 132.47262167 164.69998371 129.4375 166.3125 C107.90609578 177.39525671 82.14891432 179.7457744 58.9609375 172.34960938 C51.53452784 169.86272127 44.36703641 167.04856106 37.69921875 162.8828125 C33.3106007 160.60274887 29.49938542 163.5429021 25.5625 165.5625 Z " fill="#ffffff" transform="translate(169,75)"/>
</svg>
