<svg width="22" height="22" viewBox="0 0 22 22" fill="none" xmlns="http://www.w3.org/2000/svg">
<g clip-path="url(#clip0_200_4935)">
<path d="M4.14327 5.4395L1.27685 2.574L2.57394 1.27692L20.723 19.4269L19.4259 20.7231L16.3918 17.6889C14.7796 18.7115 12.9091 19.2531 10.9999 19.25C6.05727 19.25 1.9451 15.6933 1.08252 11C1.47671 8.86482 2.55068 6.91432 4.14419 5.4395H4.14327ZM13.5272 14.8243L12.1852 13.4823C11.6719 13.7279 11.0951 13.8082 10.5342 13.7122C9.97335 13.6162 9.45609 13.3486 9.05373 12.9462C8.65138 12.5438 8.38374 12.0266 8.28772 11.4657C8.19169 10.9049 8.27201 10.328 8.5176 9.81475L7.1756 8.47275C6.59234 9.35412 6.3316 10.41 6.43753 11.4615C6.54346 12.5131 7.00955 13.4957 7.75688 14.2431C8.50421 14.9904 9.48685 15.4565 10.5384 15.5624C11.59 15.6683 12.6458 15.4076 13.5272 14.8243V14.8243ZM7.30944 3.44667C8.45252 2.9975 9.69827 2.75 10.9999 2.75C15.9426 2.75 20.0548 6.30667 20.9174 11C20.6365 12.5269 20.0051 13.9678 19.073 15.2093L15.5347 11.671C15.6398 10.963 15.5776 10.2402 15.3531 9.56052C15.1286 8.88085 14.7481 8.26321 14.2419 7.75708C13.7358 7.25095 13.1182 6.87039 12.4385 6.6459C11.7588 6.42141 11.036 6.35923 10.328 6.46433L7.30944 3.44758V3.44667Z" fill="#9DA0A6"/>
</g>
<defs>
<clipPath id="clip0_200_4935">
<rect width="22" height="22" fill="white"/>
</clipPath>
</defs>
</svg>
