<svg width="16" height="17" viewBox="0 0 16 17" fill="none" xmlns="http://www.w3.org/2000/svg">
<path d="M1.35012 13.7001V0.8501L6.73267 0.850734L6.73341 15.5683H3.20846H3.20838C2.73381 15.5684 2.2772 15.3868 1.93219 15.061C1.58995 14.7377 1.38326 14.2967 1.3536 13.8272L1.35012 13.7001ZM9.68333 15.5687L9.68275 11.6842H15.0668V13.7117C15.0668 14.2045 14.871 14.6772 14.5225 15.0257C14.1741 15.3741 13.7015 15.5699 13.2088 15.57C13.2088 15.57 13.2087 15.57 13.2087 15.57C13.2086 15.57 13.2085 15.57 13.2085 15.57L9.68333 15.5687ZM13.2094 0.850834C13.6839 0.850794 14.1405 1.03232 14.4855 1.35819C14.8278 1.68143 15.0345 2.12239 15.0641 2.59192L15.0676 2.71982L15.0669 8.73417H9.6827L9.68338 0.850162L13.2091 0.850834H13.2094Z" stroke="#4F46E5" stroke-width="1.7"/>
</svg>
