<svg width="25" height="25" viewBox="0 0 25 25" fill="none" xmlns="http://www.w3.org/2000/svg">
<path d="M20.7143 14.1429V12.5C20.7143 12.0643 20.5412 11.6464 20.2331 11.3383C19.925 11.0302 19.5071 10.8571 19.0714 10.8571H2.64286C2.20714 10.8571 1.78928 11.0302 1.48118 11.3383C1.17309 11.6464 1 12.0643 1 12.5V22.3571C1 22.7929 1.17309 23.2107 1.48118 23.5188C1.78928 23.8269 2.20714 24 2.64286 24H19.0714C19.5071 24 19.925 23.8269 20.2331 23.5188C20.5412 23.2107 20.7143 22.7929 20.7143 22.3571V20.7143M20.7143 14.1429H14.1429C13.2714 14.1429 12.4357 14.489 11.8195 15.1052C11.2033 15.7214 10.8571 16.5571 10.8571 17.4286C10.8571 18.3 11.2033 19.1357 11.8195 19.7519C12.4357 20.3681 13.2714 20.7143 14.1429 20.7143H20.7143M20.7143 14.1429C21.5857 14.1429 22.4214 14.489 23.0376 15.1052C23.6538 15.7214 24 16.5571 24 17.4286C24 18.3 23.6538 19.1357 23.0376 19.7519C22.4214 20.3681 21.5857 20.7143 20.7143 20.7143M5.92857 10.8571V5.92857C5.92857 4.62143 6.44783 3.36783 7.37212 2.44355C8.2964 1.51926 9.55 1 10.8571 1C12.1643 1 13.4179 1.51926 14.3422 2.44355C15.2665 3.36783 15.7857 4.62143 15.7857 5.92857V10.8571M19.8929 17.4286H21.5357M16.6071 17.4286H18.25M13.3214 17.4286H14.9643" stroke="white" stroke-width="1.8"/>
</svg>
