<svg width="190" height="201" viewBox="0 0 190 201" fill="none" xmlns="http://www.w3.org/2000/svg">
<circle cx="94.5882" cy="106.412" r="94.5882" fill="#EDEDFC"/>
<path d="M163.954 66.0993H24.9026L15.0379 5.72964C14.6244 3.2487 16.3374 0.88589 18.8774 0.472399C19.1137 0.413329 19.35 0.41333 19.5863 0.41333H169.388C171.928 0.41333 173.996 2.48079 173.996 5.0208C173.996 5.25708 173.996 5.49336 173.937 5.72964L163.954 66.0993Z" fill="#4F46E5"/>
<path d="M163.954 66.513H24.9028C24.7256 66.513 24.5484 66.3948 24.4893 66.1586L14.6246 5.78887C14.152 3.07165 16.0422 0.47256 18.7595 0.0590692C19.0548 -9.02219e-07 19.2911 0 19.5865 0H169.388C172.165 0 174.409 2.24467 174.409 5.02096C174.409 5.31631 174.409 5.55259 174.35 5.84794L164.486 66.2176C164.308 66.3948 164.19 66.513 163.954 66.513ZM25.2572 65.686H163.599L173.464 5.67073C173.819 3.367 172.283 1.24047 170.038 0.886052C169.802 0.826982 169.566 0.826978 169.329 0.826978H19.5274C17.2236 0.826978 15.3334 2.65815 15.3334 4.96189C15.3334 5.19817 15.3334 5.43445 15.3925 5.67073L25.2572 65.686Z" fill="#4F46E5"/>
<path d="M161.414 151.633H27.4425C24.489 151.633 22.0671 149.211 22.0671 146.258C22.0671 146.199 22.0671 146.14 22.0671 146.08L24.9616 66.572H163.895L166.789 146.08C166.907 149.034 164.603 151.574 161.65 151.692C161.532 151.633 161.473 151.633 161.414 151.633Z" fill="white"/>
<path d="M161.414 151.987H27.4428C24.253 151.987 21.713 149.447 21.713 146.258C21.713 146.198 21.713 146.08 21.713 146.021L24.6075 66.5129C24.6075 66.3357 24.7847 66.1584 24.9619 66.1584H163.895C164.072 66.1584 164.249 66.3357 164.249 66.5129L167.144 146.021C167.262 149.211 164.781 151.869 161.65 151.987C161.591 151.987 161.473 151.987 161.414 151.987ZM25.3163 66.9264L22.4219 146.08C22.3037 148.857 24.4893 151.16 27.2656 151.219C27.3247 151.219 27.3837 151.219 27.4428 151.219H161.414C164.19 151.219 166.435 148.975 166.435 146.198C166.435 146.139 166.435 146.08 166.435 146.021L163.54 66.8673L25.3163 66.9264Z" fill="#4F46E5"/>
<path d="M154.207 61.492H34.6493C32.9953 61.492 31.5777 60.3106 31.2823 58.6566L22.7762 9.86467C22.4218 7.97443 23.7213 6.20232 25.5525 5.90697C25.7297 5.8479 25.966 5.8479 26.1432 5.8479H162.772C164.663 5.8479 166.199 7.38373 166.199 9.27397C166.199 9.45118 166.199 9.68746 166.139 9.86467L157.633 58.6566C157.338 60.3106 155.92 61.492 154.207 61.492Z" fill="white"/>
<path d="M154.207 61.8466H34.6493C32.8181 61.8466 31.2232 60.547 30.8688 58.7158L22.3627 9.9239C22.0083 7.85645 23.3669 5.90713 25.4343 5.49364C25.6706 5.43457 25.8478 5.43457 26.0841 5.43457H162.713C164.84 5.43457 166.494 7.1476 166.494 9.27413C166.494 9.51041 166.494 9.68762 166.435 9.9239L157.929 58.7158C157.692 60.547 156.098 61.8466 154.207 61.8466ZM26.1432 6.20248C24.4892 6.20248 23.0715 7.5611 23.0715 9.27413C23.0715 9.45134 23.0715 9.62855 23.1306 9.80576L31.6367 58.5977C31.873 60.0745 33.1725 61.1377 34.6493 61.1377H154.266C155.743 61.1377 157.043 60.0745 157.279 58.5977L165.785 9.80576C166.08 8.1518 164.958 6.5569 163.304 6.26155C163.127 6.20248 162.95 6.20248 162.772 6.20248H26.1432Z" fill="#4F46E5"/>
<path d="M116.048 142.654H72.8085C70.1504 142.654 68.0239 140.528 68.0239 137.87L68.8508 118.317C68.8508 115.718 70.9183 113.592 73.5174 113.533H115.398C117.997 113.592 120.065 115.718 120.065 118.317L120.892 137.87C120.833 140.528 118.706 142.654 116.048 142.654ZM73.4583 114.36C71.3318 114.419 69.6188 116.191 69.6778 118.317L68.8508 137.87C68.8508 140.055 70.6229 141.827 72.8085 141.827H116.048C118.233 141.827 120.006 140.055 120.006 137.87L119.179 118.317C119.238 116.191 117.525 114.419 115.339 114.36H73.4583Z" fill="#D1D3D4"/>
<path d="M152.494 105.972H36.3622C34.3538 105.972 32.7589 104.377 32.7589 102.369V102.309L33.3496 76.1414C33.4087 74.1921 35.0036 72.6562 36.9529 72.6562H151.962C153.912 72.6562 155.507 74.1921 155.566 76.1414L156.156 102.309C156.216 104.318 154.621 105.913 152.671 105.972C152.612 105.972 152.553 105.972 152.494 105.972ZM36.8938 73.4832C35.4171 73.4832 34.1766 74.6646 34.1175 76.2005L33.5268 102.369C33.4677 103.904 34.7082 105.145 36.244 105.204H36.3031H152.494C154.03 105.204 155.27 103.963 155.27 102.428V102.369L154.68 76.2005C154.621 74.7237 153.439 73.5423 151.903 73.4832H36.8938Z" fill="#D1D3D4"/>
<path d="M47.4675 14.1179H54.8512C57.8638 14.1179 60.2857 15.7719 60.6992 18.6073C61.1127 21.4426 59.2815 22.9194 56.328 22.9194H52.5475L53.2563 26.6999H49.9484L47.4675 14.1179ZM55.6192 20.2021C56.6824 20.2021 57.4503 19.6705 57.2731 18.5482C57.0959 17.4258 56.2098 16.9533 55.0875 16.9533H51.4842L52.0749 20.2021H55.6192Z" fill="#D1D3D4"/>
<path d="M70.8593 24.9277H64.5388L64.0072 26.6999H60.5811L64.716 14.0588H67.9649L75.3487 26.6999H71.9226L70.8593 24.9277ZM69.3826 22.2696L66.7835 17.6621H66.7244L65.3067 22.2696H69.3826Z" fill="#D1D3D4"/>
<path d="M77.7113 21.9743L71.2726 14.1179H75.3485L79.2471 19.257H79.3062L82.3778 14.1179H86.4537L81.1964 21.9743L81.5508 26.6999H78.2429L77.7113 21.9743Z" fill="#D1D3D4"/>
<path d="M87.3397 14.1179H91.1793L95.964 22.565H96.023L100.69 14.1179H104.529L104.175 26.6999H100.867L100.985 19.257L96.6728 26.6999H95.4323L91.0611 19.257H91.0021L91.1793 26.6999H87.8713L87.3397 14.1179Z" fill="#D1D3D4"/>
<path d="M106.951 14.1179H117.584L117.347 17.0124H110.318L110.2 19.198H116.521L116.343 21.797H110.082L109.964 24.0417H116.816L116.58 26.6999H106.479L106.951 14.1179Z" fill="#D1D3D4"/>
<path d="M119.533 14.1179H123.195L128.216 22.2696H128.275L129.339 14.1179H132.824L131.052 26.7589H127.507L122.605 18.8435H122.546L121.719 26.6999H118.411L119.533 14.1179Z" fill="#D1D3D4"/>
<path d="M138.672 17.0124H133.946L134.36 14.1179H147.473L146.883 17.0124H142.098L140.326 26.6999H137.018L138.672 17.0124Z" fill="#D1D3D4"/>
<path d="M141.389 37.6278H47.4676C47.2313 37.6278 47.0541 37.4506 47.0541 37.2143C47.0541 36.978 47.2313 36.8008 47.4676 36.8008H141.33C141.566 36.8008 141.744 36.978 141.744 37.2143C141.803 37.4506 141.625 37.6278 141.389 37.6278Z" fill="#4F46E5"/>
<path d="M120.419 169.413L116.875 141.06C116.875 141.06 119.769 117.254 116.875 104.909C113.981 92.5629 101.103 81.694 96.7911 79.3903C96.3186 79.154 94.1921 80.1582 93.7786 80.3354C91.9474 80.9852 90.1753 81.8122 88.5213 82.8164C85.0362 84.8247 81.551 87.1875 79.4836 90.7318C77.7706 93.6262 77.298 97.1113 77.3571 100.478C73.3994 100.951 71.3319 106.149 72.9859 109.516C74.9943 113.533 83.0278 125.583 82.7324 127.001C82.4371 128.419 83.205 139.937 89.9981 148.798L89.4074 172.426L120.419 169.413Z" fill="white"/>
<path d="M89.4664 172.839C89.3482 172.839 89.2892 172.78 89.171 172.721C89.0529 172.662 89.0529 172.544 89.0529 172.426L89.6436 148.916C82.9096 140.055 82.0236 128.596 82.378 126.883C82.437 126.056 79.07 120.444 76.7663 116.723C75.0533 113.887 73.3993 111.229 72.6314 109.693C71.6863 107.626 71.8044 105.263 72.9267 103.255C73.6947 101.66 75.2305 100.478 76.9435 100.124C76.8844 96.3435 77.5933 93.1537 79.1291 90.5546C81.1966 86.9513 84.7998 84.5885 88.285 82.5211C89.998 81.5169 91.7701 80.6308 93.6604 79.981C93.7785 79.922 93.8966 79.8629 94.1329 79.8038C95.7278 79.1541 96.5548 78.8587 96.9683 79.095C101.753 81.635 114.394 92.6811 117.229 104.909C120.006 116.9 117.407 139.878 117.229 141.119L120.774 169.413C120.774 169.531 120.774 169.65 120.714 169.709C120.655 169.768 120.537 169.827 120.419 169.886L89.4664 172.839ZM96.6139 79.8038C95.905 79.981 95.1962 80.2173 94.4874 80.5717C94.2511 80.6899 94.0148 80.749 93.9557 80.808C92.1245 81.4578 90.4115 82.2848 88.7575 83.289C85.3315 85.2974 81.8463 87.6011 79.897 91.0272C78.4203 93.5672 77.7114 96.757 77.8296 100.537C77.8296 100.774 77.7114 100.951 77.4751 100.951C75.8212 101.187 74.4035 102.25 73.6947 103.727C72.6905 105.499 72.6314 107.567 73.3993 109.398C74.1672 110.875 75.7621 113.592 77.4751 116.368C81.4919 122.984 83.3822 126.174 83.1459 127.119C82.8505 128.537 83.7366 139.937 90.3524 148.561C90.4115 148.621 90.4706 148.739 90.4115 148.798L89.8208 171.953L119.888 169L116.402 141.119C116.402 141.06 116.402 141.06 116.402 141C116.402 140.764 119.238 117.136 116.402 105.027C113.685 93.1537 101.339 82.2848 96.6139 79.8038Z" fill="#4F46E5"/>
<path d="M66.0747 37.5686L52.6657 86.8922C51.6615 90.4955 53.7881 94.1578 57.3914 95.162L100.69 106.917C104.293 107.921 107.955 105.795 108.96 102.25C108.96 102.25 108.96 102.25 108.96 102.191L126.562 37.5686H66.0747Z" fill="white"/>
<path d="M126.503 37.5687L108.901 102.191C108.133 105.145 105.415 107.153 102.403 107.153C101.812 107.153 101.221 107.094 100.631 106.917L57.3914 95.1621C53.7881 94.217 51.6616 90.4955 52.6658 86.8923L66.0747 37.5687H126.503ZM126.503 36.7417H66.0747C65.7203 36.7417 65.3658 36.978 65.2477 37.3324L51.8978 86.715C50.8346 90.7318 53.1974 94.8667 57.2142 95.9891L100.513 107.744C104.529 108.866 108.664 106.444 109.787 102.428L127.33 37.864C127.39 37.7459 127.389 37.6868 127.389 37.5687C127.389 37.0961 127.035 36.7417 126.503 36.7417Z" fill="#4F46E5"/>
<path d="M96.3185 37.5688L95.3734 41.054C94.6646 43.6531 96.2004 46.3112 98.7995 47.0201L109.727 49.9736C112.327 50.6824 114.985 49.1466 115.694 46.5475L117.82 38.8093C117.938 38.3958 117.997 37.9823 117.938 37.5098L96.3185 37.5688Z" fill="#68E1FD"/>
<path d="M103.998 78.15C105.593 78.5635 106.538 80.2174 106.124 81.8123L102.048 96.698C101.635 98.2929 99.9809 99.238 98.386 98.8245C96.7912 98.411 95.846 96.7571 96.2595 95.1622L100.335 80.2765C100.749 78.6225 102.403 77.6774 103.998 78.15Z" fill="#D1D3D4"/>
<path d="M77.1799 37.5686C77.3571 37.864 77.6525 38.0412 78.0069 38.1593L81.0786 38.9863C81.9055 39.2226 82.7325 38.75 82.9097 37.923L83.0279 37.5686H77.1799Z" fill="#D1D3D4"/>
<path d="M77.2388 41.1719L80.3104 41.9989C81.1374 42.2352 81.61 43.0622 81.3737 43.8301L78.302 55.0534C78.0658 55.8804 77.2388 56.3529 76.4709 56.1167L73.3992 55.2897C72.5722 55.0534 72.0997 54.2264 72.336 53.4585L75.4076 42.2352C75.5848 41.4082 76.4118 40.9356 77.2388 41.1719Z" fill="#D1D3D4"/>
<path d="M72.5722 58.2432L75.6439 59.0701C76.4709 59.3064 76.9434 60.1334 76.7071 60.9013L73.6355 72.1246C73.3992 72.9516 72.5722 73.4242 71.8043 73.1879L68.7327 72.3609C67.9057 72.1246 67.4331 71.2977 67.6694 70.5298L70.7411 59.3064C70.9773 58.5385 71.8043 58.0069 72.5722 58.2432Z" fill="#D1D3D4"/>
<path d="M67.9057 75.3736L70.9774 76.2006C71.8044 76.4368 72.2769 77.2638 72.0406 78.0317L68.969 89.2551C68.7327 90.082 67.9057 90.5546 67.1378 90.3183L64.0662 89.4913C63.2392 89.2551 62.7666 88.4281 63.0029 87.6602L66.0745 76.4368C66.3108 75.6098 67.1378 75.1373 67.9057 75.3736Z" fill="#D1D3D4"/>
<path d="M88.2257 136.807C88.2257 136.807 88.2257 128.182 89.3481 117.609C89.3481 117.609 80.4875 93.8035 83.3229 89.196C86.1583 84.5885 91.0611 87.4829 93.6602 91.7951C96.2593 96.1072 104.824 116.486 104.824 116.486" fill="white"/>
<path d="M88.2259 137.22C87.9896 137.22 87.8124 137.043 87.8124 136.807C87.8124 136.747 87.8124 128.123 88.9347 117.668C88.2259 115.837 80.1333 93.6263 82.9686 89.0188C84.0319 87.3648 85.3905 86.4788 86.9854 86.4788H87.0445C89.4073 86.4788 92.1245 88.4871 94.0148 91.6179C96.6138 95.8709 104.884 115.482 105.238 116.309C105.297 116.545 105.179 116.782 105.002 116.841C104.825 116.9 104.588 116.841 104.47 116.605C104.411 116.427 95.8459 96.2253 93.3059 91.9723C91.5929 89.1369 89.171 87.3057 87.0445 87.2467H86.9854C85.6859 87.2467 84.5635 87.9555 83.6775 89.3732C81.4328 92.9765 87.2808 110.816 89.7026 117.432C89.7026 117.491 89.7026 117.55 89.7026 117.609C88.5803 128.064 88.5803 136.688 88.5803 136.807C88.6394 136.984 88.4622 137.161 88.2259 137.22Z" fill="#4F46E5"/>
<path d="M85.3314 120.562C85.1542 120.562 85.0361 120.503 84.977 120.326C84.7407 119.913 79.5426 110.816 78.0067 107.39C77.0616 105.322 76.7663 103.019 77.2388 100.833C77.2979 100.597 77.5342 100.479 77.7705 100.597C77.9477 100.656 78.0658 100.892 78.0658 101.069C77.6523 103.137 77.9477 105.204 78.8337 107.094C80.3105 110.461 85.6859 119.854 85.7449 119.972C85.8631 120.149 85.804 120.444 85.6268 120.562C85.6268 120.562 85.6268 120.562 85.5677 120.562C85.4496 120.562 85.3905 120.562 85.3314 120.562Z" fill="#4F46E5"/>
<path d="M83.7365 125.17C83.1458 125.17 82.6142 124.992 82.1416 124.697C81.4918 124.284 80.9602 123.752 80.4876 123.22C80.3104 123.043 80.3104 122.807 80.4876 122.63C80.6649 122.452 80.9011 122.452 81.0783 122.63C81.4918 123.161 82.0235 123.575 82.5551 123.988C83.0277 124.343 83.6774 124.402 84.2681 124.284C84.977 123.929 85.4495 123.161 85.4495 122.393C85.4495 121.507 85.2133 120.621 84.8588 119.794C84.7998 119.558 84.8588 119.322 85.0951 119.263C85.2723 119.204 85.5086 119.263 85.5677 119.44C85.9221 120.031 86.5719 120.444 87.2807 120.503C87.6351 120.503 87.9896 120.326 88.2258 120.09C88.403 119.912 88.5212 119.676 88.5212 119.44C88.5212 119.204 88.6984 119.026 88.9347 119.026C89.171 119.026 89.3482 119.204 89.3482 119.44C89.3482 119.912 89.171 120.385 88.8165 120.739C88.403 121.153 87.8714 121.389 87.2807 121.448C86.8672 121.448 86.4537 121.33 86.0993 121.153C86.2174 121.625 86.2765 122.157 86.2765 122.63C86.2765 123.752 85.6268 124.815 84.5635 125.288C84.2681 125.111 84.0319 125.17 83.7365 125.17Z" fill="#4F46E5"/>
<path d="M125.027 180.578H84.6818L86.8083 158.131H122.014L125.027 180.578Z" fill="#4F46E5"/>
<path d="M125.027 180.991H84.6225C84.5044 180.991 84.3863 180.932 84.3272 180.873C84.2681 180.814 84.209 180.696 84.209 180.577L86.3356 158.072C86.3356 157.835 86.5128 157.717 86.7491 157.717H121.896C122.132 157.717 122.25 157.894 122.309 158.072L125.381 180.577C125.381 180.696 125.381 180.814 125.263 180.932C125.322 180.932 125.204 180.991 125.027 180.991ZM85.0951 180.164H124.554L121.6 158.485H87.1626L85.0951 180.164Z" fill="#4F46E5"/>
</svg>
