<svg width="24" height="24" viewBox="0 0 24 24" fill="none" xmlns="http://www.w3.org/2000/svg">
<path d="M11.2724 1.36153L11.25 1.35035L11.2276 1.36153L1.47764 6.23653L1.45 6.25035V6.28125V18.4688V18.4997L1.47768 18.5135L11.2277 23.3768L11.25 23.3879L11.2723 23.3768L21.0223 18.5135L21.05 18.4997V18.4688V6.28125V6.25035L21.0224 6.23653L11.2724 1.36153ZM8.53727 4.50034L11.25 3.14962L18.4622 6.74994L15.7033 8.12375L8.53727 4.50034ZM6.74985 5.39968L13.9273 9.02303L11.2501 10.3504L4.03784 6.75006L6.74985 5.39968ZM3.05 17.5003V8.04965L10.45 11.7497V21.2003L3.05 17.5003ZM19.45 17.5003L12.05 21.2003V11.7497L19.45 8.04965V17.5003Z" fill="white" stroke="white" stroke-width="0.1"/>
</svg>
