<svg width="24" height="24" viewBox="0 0 24 24" fill="none" xmlns="http://www.w3.org/2000/svg">
<path d="M9.85 5C9.85 4.36487 10.3649 3.85 11 3.85H13C13.6351 3.85 14.15 4.36487 14.15 5C14.15 5.63513 13.6351 6.15 13 6.15H11C10.3649 6.15 9.85 5.63513 9.85 5ZM11 2.15C9.72191 2.15 8.64055 2.99122 8.27894 4.15H7C6.24413 4.15 5.51922 4.45027 4.98475 4.98475C4.45027 5.51922 4.15 6.24413 4.15 7V19C4.15 19.7559 4.45027 20.4808 4.98475 21.0153C5.51922 21.5497 6.24413 21.85 7 21.85H17C17.7559 21.85 18.4808 21.5497 19.0153 21.0153C19.5497 20.4808 19.85 19.7559 19.85 19V7C19.85 6.24413 19.5497 5.51922 19.0153 4.98475C18.4808 4.45027 17.7559 4.15 17 4.15H15.7211C15.3594 2.99122 14.2781 2.15 13 2.15H11ZM15.7211 5.85H17C17.305 5.85 17.5975 5.97116 17.8132 6.18683C18.0288 6.40249 18.15 6.695 18.15 7V19C18.15 19.305 18.0288 19.5975 17.8132 19.8132C17.5975 20.0288 17.305 20.15 17 20.15H7C6.695 20.15 6.40249 20.0288 6.18683 19.8132C5.97116 19.5975 5.85 19.305 5.85 19V7C5.85 6.695 5.97116 6.40249 6.18683 6.18683C6.40249 5.97116 6.695 5.85 7 5.85H8.27894C8.64055 7.00878 9.72191 7.85 11 7.85H13C14.2781 7.85 15.3594 7.00878 15.7211 5.85ZM10 13.15C9.53056 13.15 9.15 13.5306 9.15 14C9.15 14.4694 9.53056 14.85 10 14.85H11.15V16C11.15 16.4694 11.5306 16.85 12 16.85C12.4694 16.85 12.85 16.4694 12.85 16V14.85H14C14.4694 14.85 14.85 14.4694 14.85 14C14.85 13.5306 14.4694 13.15 14 13.15H12.85V12C12.85 11.5306 12.4694 11.15 12 11.15C11.5306 11.15 11.15 11.5306 11.15 12V13.15H10Z" fill="white" stroke="white" stroke-width="0.2" stroke-linecap="round" stroke-linejoin="round"/>
</svg>
