<svg width="24" height="24" viewBox="0 0 24 24" fill="none" xmlns="http://www.w3.org/2000/svg">
<rect x="6" y="8.79883" width="12.6222" height="2.66667" rx="0.2" fill="white"/>
<rect x="6" y="12.5332" width="12.6222" height="2.66667" rx="0.2" fill="white"/>
<path d="M12.1566 19.8119C12.2366 19.9093 12.3856 19.9093 12.4656 19.8119L14.8907 16.8603C14.998 16.7298 14.9051 16.5333 14.7362 16.5333H9.88601C9.7171 16.5333 9.62425 16.7298 9.73148 16.8603L12.1566 19.8119Z" fill="white"/>
<path d="M12.1566 4.18808C12.2366 4.0907 12.3856 4.0907 12.4656 4.18808L14.8907 7.1397C14.998 7.27022 14.9051 7.46667 14.7362 7.46667L9.88601 7.46667C9.7171 7.46667 9.62425 7.27022 9.73148 7.1397L12.1566 4.18808Z" fill="white"/>
</svg>
