<svg width="24" height="24" viewBox="0 0 24 24" fill="none" xmlns="http://www.w3.org/2000/svg">
<path d="M17.75 16H7.17002C5.08002 16 3.22002 14.47 3.02002 12.39C2.96529 11.8345 3.02749 11.2737 3.20261 10.7437C3.37773 10.2137 3.6619 9.72623 4.03681 9.31269C4.41173 8.89915 4.86908 8.56871 5.37943 8.34262C5.88979 8.11654 6.44183 7.99983 7.00002 8.00001H19.36C20.67 8.00001 21.86 8.94001 21.99 10.24C22.0265 10.5886 21.9892 10.941 21.8806 11.2743C21.7721 11.6076 21.5946 11.9144 21.3598 12.1746C21.125 12.4349 20.8381 12.6429 20.5177 12.7851C20.1973 12.9273 19.8506 13.0005 19.5 13H9.00002C8.45002 13 8.00002 12.55 8.00002 12C8.00002 11.45 8.45002 11 9.00002 11H17.75C18.16 11 18.5 10.66 18.5 10.25C18.5 9.84001 18.16 9.50001 17.75 9.50001H9.14002C7.83002 9.50001 6.64002 10.44 6.51002 11.74C6.47356 12.0886 6.51083 12.441 6.6194 12.7743C6.72797 13.1076 6.90542 13.4144 7.14023 13.6746C7.37504 13.9349 7.66196 14.1429 7.98236 14.2851C8.30276 14.4273 8.64948 14.5005 9.00002 14.5H19.33C21.42 14.5 23.28 12.97 23.48 10.89C23.5355 10.3344 23.4739 9.77323 23.2991 9.24288C23.1242 8.71253 22.8401 8.22475 22.465 7.81104C22.09 7.39734 21.6323 7.0669 21.1216 6.84107C20.6108 6.61525 20.0584 6.49906 19.5 6.50001H7.23002C4.36002 6.50001 1.79002 8.60001 1.52002 11.46C1.44537 12.2245 1.53153 12.9962 1.77297 13.7254C2.01441 14.4546 2.40579 15.1252 2.92192 15.694C3.43806 16.2629 4.06754 16.7175 4.76988 17.0285C5.47223 17.3395 6.23189 17.5002 7.00002 17.5H17.75C18.16 17.5 18.5 17.16 18.5 16.75C18.5 16.34 18.16 16 17.75 16Z" fill="#757982"/>
</svg>
