<svg width="84" height="84" viewBox="0 0 84 84" fill="none" xmlns="http://www.w3.org/2000/svg">
<g filter="url(#filter0_d_594_27346)">
<rect x="20" y="16" width="44" height="44" rx="22" fill="#4F46E5"/>
</g>
<path d="M52.9508 27.943C53.0008 27.818 53.013 27.6812 52.986 27.5493C52.9589 27.4175 52.8938 27.2965 52.7986 27.2014C52.7035 27.1062 52.5825 27.0411 52.4507 27.014C52.3188 26.987 52.182 26.9992 52.0571 27.0492L32.0556 35.0501H32.0542L31.4328 35.2976C31.3151 35.3445 31.2126 35.4231 31.1368 35.5246C31.0609 35.6261 31.0146 35.7466 31.0029 35.8728C30.9913 35.999 31.0147 36.126 31.0707 36.2397C31.1266 36.3534 31.2129 36.4494 31.32 36.5172L31.8838 36.8746L31.8851 36.8774L38.753 41.247L43.1226 48.1149L43.1254 48.1176L43.4828 48.6814C43.5508 48.7881 43.6469 48.8739 43.7605 48.9295C43.8741 48.9851 44.0009 49.0083 44.1268 48.9965C44.2528 48.9847 44.373 48.9384 44.4743 48.8627C44.5756 48.7869 44.6541 48.6847 44.7011 48.5672L52.9508 27.943ZM50.4305 30.5416L40.1266 40.8455L39.831 40.3808C39.7768 40.2955 39.7045 40.2232 39.6192 40.169L39.1545 39.8734L49.4584 29.5695L51.0781 28.9219L50.4319 30.5416H50.4305Z" fill="white"/>
<defs>
<filter id="filter0_d_594_27346" x="0" y="0" width="84" height="84" filterUnits="userSpaceOnUse" color-interpolation-filters="sRGB">
<feFlood flood-opacity="0" result="BackgroundImageFix"/>
<feColorMatrix in="SourceAlpha" type="matrix" values="0 0 0 0 0 0 0 0 0 0 0 0 0 0 0 0 0 0 127 0" result="hardAlpha"/>
<feOffset dy="4"/>
<feGaussianBlur stdDeviation="10"/>
<feComposite in2="hardAlpha" operator="out"/>
<feColorMatrix type="matrix" values="0 0 0 0 0.847309 0 0 0 0 0.872658 0 0 0 0 0.895833 0 0 0 0.4 0"/>
<feBlend mode="normal" in2="BackgroundImageFix" result="effect1_dropShadow_594_27346"/>
<feBlend mode="normal" in="SourceGraphic" in2="effect1_dropShadow_594_27346" result="shape"/>
</filter>
</defs>
</svg>
