<svg width="20" height="20" viewBox="0 0 20 20" fill="none" xmlns="http://www.w3.org/2000/svg">
<path d="M8.39022 3.25641C8.39022 2.76595 8.76747 2.38077 9.21788 2.38077H10.7821C11.2325 2.38077 11.6098 2.76595 11.6098 3.25641C11.6098 3.74687 11.2325 4.13205 10.7821 4.13205H9.21788C8.76747 4.13205 8.39022 3.74687 8.39022 3.25641ZM9.21788 0.85C8.19883 0.85 7.34047 1.54111 7.0359 2.49103H5.15084C4.53824 2.49103 3.95227 2.74639 3.52139 3.19842C3.09075 3.6502 2.85 4.26147 2.85 4.89744V16.7436C2.85 17.3796 3.09075 17.9908 3.52139 18.4426C3.95227 18.8946 4.53824 19.15 5.15084 19.15H14.8492C15.4618 19.15 16.0477 18.8946 16.4786 18.4426C16.9093 17.9908 17.15 17.3796 17.15 16.7436V4.89744C17.15 4.26147 16.9093 3.6502 16.4786 3.19842C16.0477 2.74639 15.4618 2.49103 14.8492 2.49103H12.9641C12.6595 1.54111 11.8012 0.85 10.7821 0.85H9.21788ZM10.7821 5.66282C11.8012 5.66282 12.6595 4.97171 12.9641 4.02179H14.8492C15.0663 4.02179 15.2761 4.11221 15.4319 4.27569C15.588 4.43942 15.6768 4.66294 15.6768 4.89744V16.7436C15.6768 16.9781 15.588 17.2016 15.4319 17.3653C15.2761 17.5288 15.0663 17.6192 14.8492 17.6192H5.15084C4.93371 17.6192 4.72394 17.5288 4.56811 17.3653C4.41205 17.2016 4.32318 16.9781 4.32318 16.7436V4.89744C4.32318 4.66294 4.41204 4.43942 4.56811 4.27569C4.72394 4.11221 4.93371 4.02179 5.15084 4.02179H7.0359C7.34047 4.97171 8.19883 5.66282 9.21788 5.66282H10.7821Z" fill="#777B84" stroke="#777B84" stroke-width="0.3" stroke-linecap="round" stroke-linejoin="round"/>
<rect x="6" y="8" width="8" height="1.5" rx="0.75" fill="#777B84"/>
<rect x="6" y="11" width="8" height="1.5" rx="0.75" fill="#777B84"/>
<rect x="6" y="14" width="5" height="1.5" rx="0.75" fill="#777B84"/>
</svg>
