<svg width="20" height="20" viewBox="0 0 20 20" fill="none" xmlns="http://www.w3.org/2000/svg">
<path d="M10.7889 9.55357H14.0031M10.7889 14.0137H14.0031M17.1429 17.4286C17.1429 17.7696 17.0074 18.0966 16.7663 18.3377C16.5252 18.5788 16.1981 18.7143 15.8571 18.7143H4.28571C3.94472 18.7143 3.6177 18.5788 3.37658 18.3377C3.13546 18.0966 3 17.7696 3 17.4286V3.28571C3 2.94472 3.13546 2.6177 3.37658 2.37658C3.6177 2.13546 3.94472 2 4.28571 2H11.4677C11.8087 2.00007 12.1357 2.13558 12.3767 2.37671L16.7661 6.76614C17.0073 7.00721 17.1428 7.33418 17.1429 7.67514V17.4286Z" stroke="#757982" stroke-width="1.6" stroke-linecap="round" stroke-linejoin="round"/>
<path d="M5.81641 13.9408L6.89383 15.0183L8.68998 12.5047M5.81641 9.40099L6.89383 10.4784L8.68998 7.96484" stroke="#757982" stroke-width="1.6" stroke-linecap="round" stroke-linejoin="round"/>
</svg>
