<svg width="18" height="20" viewBox="0 0 18 20" fill="none" xmlns="http://www.w3.org/2000/svg">
<path d="M9 2C7.93913 2 6.92172 2.42143 6.17157 3.17157C5.42143 3.92172 5 4.93913 5 6C5 7.06087 5.42143 8.07828 6.17157 8.82843C6.92172 9.57857 7.93913 10 9 10C10.0609 10 11.0783 9.57857 11.8284 8.82843C12.5786 8.07828 13 7.06087 13 6C13 4.93913 12.5786 3.92172 11.8284 3.17157C11.0783 2.42143 10.0609 2 9 2ZM3 6C3 4.4087 3.63214 2.88258 4.75736 1.75736C5.88258 0.632141 7.4087 0 9 0C10.5913 0 12.1174 0.632141 13.2426 1.75736C14.3679 2.88258 15 4.4087 15 6C15 7.5913 14.3679 9.11742 13.2426 10.2426C12.1174 11.3679 10.5913 12 9 12C7.4087 12 5.88258 11.3679 4.75736 10.2426C3.63214 9.11742 3 7.5913 3 6ZM5 16C4.20435 16 3.44129 16.3161 2.87868 16.8787C2.31607 17.4413 2 18.2044 2 19C2 19.2652 1.89464 19.5196 1.70711 19.7071C1.51957 19.8946 1.26522 20 1 20C0.734784 20 0.48043 19.8946 0.292893 19.7071C0.105357 19.5196 0 19.2652 0 19C0 17.6739 0.526784 16.4021 1.46447 15.4645C2.40215 14.5268 3.67392 14 5 14H13C14.3261 14 15.5979 14.5268 16.5355 15.4645C17.4732 16.4021 18 17.6739 18 19C18 19.2652 17.8946 19.5196 17.7071 19.7071C17.5196 19.8946 17.2652 20 17 20C16.7348 20 16.4804 19.8946 16.2929 19.7071C16.1054 19.5196 16 19.2652 16 19C16 18.2044 15.6839 17.4413 15.1213 16.8787C14.5587 16.3161 13.7956 16 13 16H5Z" fill="#4F46E5"/>
</svg>
