<svg width="20" height="20" viewBox="0 0 20 20" fill="none" xmlns="http://www.w3.org/2000/svg">
<path d="M9.2 9.2V6H10.8V9.2H14V10.8H10.8V14H9.2V10.8H6V9.2H9.2ZM10 18C5.5816 18 2 14.4184 2 10C2 5.5816 5.5816 2 10 2C14.4184 2 18 5.5816 18 10C18 14.4184 14.4184 18 10 18ZM10 16.4C11.6974 16.4 13.3253 15.7257 14.5255 14.5255C15.7257 13.3253 16.4 11.6974 16.4 10C16.4 8.30261 15.7257 6.67475 14.5255 5.47452C13.3253 4.27428 11.6974 3.6 10 3.6C8.30261 3.6 6.67475 4.27428 5.47452 5.47452C4.27428 6.67475 3.6 8.30261 3.6 10C3.6 11.6974 4.27428 13.3253 5.47452 14.5255C6.67475 15.7257 8.30261 16.4 10 16.4Z" fill="#757982"/>
</svg>
