<svg width="22" height="22" viewBox="0 0 22 22" fill="none" xmlns="http://www.w3.org/2000/svg">
<g clip-path="url(#clip0_5_370)">
<path d="M1.08264 11C1.94431 6.30667 6.05739 2.75 11.0001 2.75C15.9427 2.75 20.0549 6.30667 20.9175 11C20.0558 15.6933 15.9427 19.25 11.0001 19.25C6.05739 19.25 1.94523 15.6933 1.08264 11ZM11.0001 15.5833C12.2156 15.5833 13.3814 15.1004 14.241 14.2409C15.1005 13.3814 15.5834 12.2156 15.5834 11C15.5834 9.78442 15.1005 8.61864 14.241 7.75909C13.3814 6.89955 12.2156 6.41667 11.0001 6.41667C9.78448 6.41667 8.61869 6.89955 7.75915 7.75909C6.89961 8.61864 6.41673 9.78442 6.41673 11C6.41673 12.2156 6.89961 13.3814 7.75915 14.2409C8.61869 15.1004 9.78448 15.5833 11.0001 15.5833ZM11.0001 13.75C10.2707 13.75 9.57124 13.4603 9.05552 12.9445C8.53979 12.4288 8.25006 11.7293 8.25006 11C8.25006 10.2707 8.53979 9.57118 9.05552 9.05546C9.57124 8.53973 10.2707 8.25 11.0001 8.25C11.7294 8.25 12.4289 8.53973 12.9446 9.05546C13.4603 9.57118 13.7501 10.2707 13.7501 11C13.7501 11.7293 13.4603 12.4288 12.9446 12.9445C12.4289 13.4603 11.7294 13.75 11.0001 13.75Z" fill="#9DA0A6"/>
</g>
<defs>
<clipPath id="clip0_5_370">
<rect width="22" height="22" fill="white"/>
</clipPath>
</defs>
</svg>
