<svg width="37" height="24" viewBox="0 0 37 24" fill="none" xmlns="http://www.w3.org/2000/svg">
<g clip-path="url(#clip0_4160_12531)">
<path d="M34.0329 24.0019H2.83286C2.19634 24.0019 1.58589 23.749 1.13581 23.299C0.685718 22.8489 0.432861 22.2384 0.432861 21.6019L0.432861 11.5059H2.16186L2.55186 10.5619H3.42486L3.81386 11.5019H7.21586V10.7869L7.51986 11.5069H9.28586L9.58986 10.7749V11.5049H18.0429V9.96091H18.2029C18.3169 9.96491 18.3499 9.97491 18.3499 10.1649V11.5069H22.7229V11.1479C23.1699 11.3749 23.6969 11.5079 24.2559 11.5079L24.3509 11.5069H24.3459H26.1859L26.5799 10.5669H27.4529L27.8379 11.5069H31.3839V10.6129L31.9199 11.5069H34.7559V5.60291H31.9489V6.29991L31.5559 5.60291H28.6699V6.29991L28.3089 5.60291H24.4119C23.8214 5.57307 23.2332 5.69458 22.7029 5.95591L22.7239 5.94691V5.60291H20.0359V5.94691C19.7105 5.69046 19.2996 5.56779 18.8869 5.60391H18.8929H9.06986L8.41086 7.12891L7.73386 5.60391H4.63986V6.30091L4.29886 5.60391H1.65886L0.435861 8.40391V2.40391C0.435861 1.76739 0.688718 1.15694 1.13881 0.70685C1.58889 0.256763 2.19934 0.00390625 2.83586 0.00390625H34.0359C34.6724 0.00390625 35.2828 0.256763 35.7329 0.70685C36.183 1.15694 36.4359 1.76739 36.4359 2.40391V12.8839H34.5629C34.5329 12.8819 34.4969 12.8819 34.4619 12.8819C34.0279 12.8819 33.6249 13.0119 33.2889 13.2349L33.2969 13.2299V12.8839H30.5269C30.0941 12.86 29.666 12.983 29.3119 13.2329L29.3179 13.2289V12.8829H24.3719V13.2289C23.967 13.0006 23.5097 12.8813 23.0449 12.8829H23.0059H23.0079H19.7449V13.2289C19.3186 12.9558 18.8127 12.8343 18.3089 12.8839L18.3179 12.8829H14.6669L13.8309 13.7869L13.0489 12.8829H7.59486V18.7909H12.9469L13.8079 17.8729L14.6189 18.7909H17.9179V17.4079H18.3779C18.8202 17.4252 19.2613 17.3513 19.6739 17.1909L19.6519 17.1989V18.7929H22.3719V17.2539H22.5029C22.6689 17.2539 22.6859 17.2599 22.6859 17.4279V18.7939H30.9519L31.0529 18.7959C31.5269 18.7959 31.9689 18.6539 32.3369 18.4109L32.3279 18.4159V18.7939H34.9499L35.0749 18.7959C35.5659 18.7959 36.0329 18.6949 36.4569 18.5119L36.4339 18.5209V21.6029C36.4339 22.2394 36.181 22.8499 35.7309 23.3C35.2808 23.75 34.6704 24.0029 34.0339 24.0029L34.0329 24.0019ZM21.5379 17.9629H20.5199V13.7279H22.8559C23.2778 13.6888 23.7026 13.7598 24.0889 13.9339L24.0729 13.9279C24.3859 14.0999 24.5949 14.4279 24.5949 14.8039L24.5929 14.8709V14.8679L24.5939 14.9059C24.5939 15.3919 24.3009 15.8099 23.8809 15.9919L23.8729 15.9949C24.0739 16.0669 24.2419 16.1899 24.3669 16.3489L24.3689 16.3509C24.51 16.5846 24.5692 16.8588 24.5369 17.1299L24.5379 17.1239V17.9619H23.5219V17.4319C23.57 17.1433 23.5121 16.8471 23.3589 16.5979L23.3619 16.6029C23.2563 16.5228 23.1356 16.4649 23.007 16.4328C22.8785 16.4006 22.7447 16.3949 22.6139 16.4159L22.6199 16.4149H21.5379V17.9619V17.9629ZM21.5379 14.6029V15.5539H22.7679C22.9416 15.5699 23.1164 15.5389 23.2739 15.4639L23.2679 15.4669C23.3322 15.4254 23.3851 15.3684 23.4218 15.3011C23.4585 15.2339 23.4778 15.1585 23.4779 15.0819L23.4769 15.0589V15.0599C23.4818 14.9835 23.465 14.9072 23.4284 14.8399C23.3917 14.7727 23.3368 14.7172 23.2699 14.6799L23.2679 14.6789C23.1161 14.611 22.9494 14.5835 22.7839 14.5989H22.7879L21.5379 14.6029ZM12.5129 17.9619H8.50586V13.7279H12.5759L13.8209 15.1159L15.1079 13.7279H18.3409C19.4889 13.7279 20.0469 14.1849 20.0469 15.1229C20.0469 16.0779 19.4699 16.5419 18.2869 16.5419H17.0219V17.9609H15.0549L13.8089 16.5619L12.5139 17.9619H12.5129ZM16.0139 14.1819L14.4599 15.8519L16.0139 17.5759V14.1819ZM9.51486 16.2369V17.0789H12.0029L13.1529 15.8369L12.0469 14.6029H9.51386V15.3729H11.7359V16.2359L9.51486 16.2369ZM17.0219 14.6039V15.6819H18.3289C18.7289 15.6819 18.9589 15.4779 18.9589 15.1219C18.9589 14.7819 18.7449 14.6029 18.3399 14.6029L17.0219 14.6039ZM35.0599 17.9639H33.1059V17.0539H35.0519C35.1975 17.074 35.3451 17.0359 35.4629 16.9479L35.4619 16.9489C35.4994 16.9141 35.5294 16.8718 35.5499 16.8248C35.5704 16.7779 35.5809 16.7272 35.5809 16.6759V16.6599C35.5809 16.6093 35.57 16.5593 35.5487 16.5133C35.5275 16.4674 35.4965 16.4266 35.4579 16.3939C35.3544 16.3191 35.2267 16.2856 35.0999 16.2999H35.1019L34.9149 16.2939C34.0009 16.2699 32.9659 16.2419 32.9659 14.9889C32.9659 14.3789 33.3479 13.7279 34.4169 13.7279H36.4339V14.6299H34.5889C34.4464 14.614 34.3024 14.6426 34.1769 14.7119L34.1809 14.7099C34.1315 14.7424 34.0918 14.7876 34.0659 14.8407C34.0401 14.8939 34.029 14.953 34.0339 15.0119V15.0109V15.0219C34.0339 15.0893 34.0551 15.155 34.0946 15.2095C34.1341 15.2641 34.1899 15.3048 34.2539 15.3259L34.2559 15.3269C34.3827 15.366 34.5154 15.3823 34.6479 15.3749H34.6449L35.1939 15.3889C35.6077 15.3476 36.0211 15.4708 36.3449 15.7319L36.3419 15.7299C36.3719 15.7539 36.3979 15.7799 36.4209 15.8089L36.4219 15.8099L36.4339 17.4219C36.2657 17.6184 36.0518 17.7705 35.8109 17.8649C35.5701 17.9592 35.3098 17.9929 35.0529 17.9629L35.0599 17.9639ZM31.1109 17.9639H29.1389V17.0539H31.1009C31.2477 17.0731 31.3963 17.0352 31.5159 16.9479L31.5139 16.9489C31.5512 16.9139 31.5809 16.8716 31.6012 16.8247C31.6215 16.7777 31.632 16.7271 31.6319 16.6759V16.6659C31.6318 16.6144 31.6208 16.5636 31.5996 16.5167C31.5784 16.4698 31.5475 16.4279 31.5089 16.3939C31.4035 16.319 31.2743 16.2856 31.1459 16.2999H31.1479L30.9619 16.2939C30.0509 16.2699 29.0169 16.2419 29.0169 14.9889C29.0169 14.3789 29.3969 13.7279 30.4639 13.7279H32.4919V14.6299H30.6359C30.4943 14.6141 30.3514 14.6428 30.2269 14.7119L30.2309 14.7099C30.1783 14.7461 30.1365 14.7957 30.1099 14.8537C30.0833 14.9116 30.0728 14.9757 30.0795 15.0391C30.0863 15.1025 30.1101 15.1629 30.1483 15.2139C30.1866 15.2649 30.2379 15.3046 30.2969 15.3289L30.2989 15.3299C30.4273 15.3693 30.5617 15.3856 30.6959 15.3779H30.6929L31.2379 15.3919C31.6539 15.3518 32.0692 15.4752 32.3959 15.7359L32.3929 15.7329C32.5028 15.8541 32.5863 15.9967 32.6383 16.1517C32.6903 16.3068 32.7095 16.471 32.6949 16.6339V16.6289C32.6979 17.5119 32.1629 17.9619 31.1079 17.9619L31.1109 17.9639ZM28.5329 17.9639H25.1529V13.7269H28.5299V14.6019H26.1629V15.3719H28.4749V16.2349H26.1629V17.0769L28.5329 17.0809V17.9609V17.9639ZM30.5029 10.6779H28.4419L28.0479 9.73391H25.9459L25.5639 10.6779H24.3799C23.8481 10.7059 23.3245 10.5384 22.9079 10.2069L22.9129 10.2099C22.7149 9.99142 22.5646 9.73408 22.4717 9.45429C22.3787 9.17451 22.345 8.87842 22.3729 8.58491L22.3719 8.59291C22.3461 8.29399 22.3814 7.99296 22.4756 7.7081C22.5698 7.42325 22.721 7.16053 22.9199 6.93591L22.9179 6.93791C23.1279 6.75429 23.3734 6.61585 23.6392 6.53121C23.905 6.44657 24.1854 6.41753 24.4629 6.44591L24.4549 6.44491H25.4349V7.34791H24.4749C24.3344 7.32981 24.1917 7.34292 24.0568 7.38631C23.922 7.42969 23.7984 7.50228 23.6949 7.59891L23.6959 7.59791C23.482 7.87171 23.3783 8.21553 23.4049 8.56191V8.55691C23.373 8.91278 23.473 9.26795 23.6859 9.55491L23.6829 9.55091C23.8817 9.71337 24.1361 9.79162 24.3919 9.76891H24.3879H24.8419L26.2729 6.43891H27.7929L29.5059 10.4389V6.43891H31.0469L32.8249 9.38691V6.43891H33.8649V10.6709H32.4209L30.5009 7.49291V10.6709L30.5029 10.6779ZM27.0039 7.15991L26.3069 8.84791H27.7039L27.0039 7.15991ZM17.2049 10.6759H16.1929V6.44191H18.5209C18.9458 6.39781 19.3748 6.47005 19.7619 6.65091L19.7469 6.64491C19.9025 6.73097 20.0323 6.85715 20.1226 7.01031C20.213 7.16348 20.2608 7.33806 20.2609 7.51591L20.2589 7.58591V7.58291V7.61391C20.2589 7.84486 20.1924 8.07093 20.0671 8.26498C19.9419 8.45904 19.7633 8.61283 19.5529 8.70791L19.5449 8.71091C19.7459 8.78691 19.9149 8.90891 20.0439 9.06491L20.0459 9.06691C20.1885 9.30148 20.2474 9.57753 20.2129 9.84991L20.2139 9.84391V10.6749H19.1929L19.1889 10.1409V10.0609C19.2252 9.7998 19.1674 9.5343 19.0259 9.31191L19.0289 9.31691C18.9229 9.2391 18.8027 9.18304 18.675 9.15197C18.5473 9.12091 18.4147 9.11545 18.2849 9.13591L18.2909 9.13491H17.2059V10.6749L17.2049 10.6759ZM17.2049 7.32291V8.26291H18.4329C18.6063 8.28173 18.7816 8.2505 18.9379 8.17291L18.9329 8.17491C18.9969 8.13597 19.0499 8.0812 19.0867 8.01588C19.1234 7.95056 19.1428 7.87687 19.1429 7.80191L19.1419 7.77391V7.77491C19.1469 7.69892 19.1297 7.62311 19.0922 7.55683C19.0547 7.49054 18.9986 7.43669 18.9309 7.40191L18.9289 7.40091C18.7767 7.33562 18.611 7.30817 18.4459 7.32091H18.4489L17.2049 7.32291ZM6.48886 10.6759H4.43286L4.04386 9.73191H1.93586L1.54386 10.6759H0.443861L2.25686 6.44191H3.75986L5.48086 10.4489V6.44191H7.13186L8.45586 9.31291L9.67286 6.44191H11.3579V10.6739H10.3179L10.3159 7.36191L8.84886 10.6749H7.96086L6.48986 7.35691V10.6749L6.48886 10.6759ZM2.98486 7.15991L2.29586 8.84791H3.67786L2.98486 7.15991ZM21.8729 10.6749H20.8409V6.44191H21.8739V10.6739L21.8729 10.6749ZM15.4869 10.6749H12.1129V6.44191H15.4929V7.32191H13.1249V8.08491H15.4359V8.95391H13.1229V9.79991H15.4909V10.6739L15.4869 10.6749Z" fill="#016FD0"/>
</g>
<defs>
<clipPath id="clip0_4160_12531">
<rect width="36" height="24" fill="white" transform="translate(0.432861)"/>
</clipPath>
</defs>
</svg>
