<svg width="50" height="39" viewBox="0 0 50 39" fill="none" xmlns="http://www.w3.org/2000/svg">
<path d="M0 32.7955C0 34.441 0.65848 36.0192 1.83058 37.1827C3.00268 38.3463 4.5924 39 6.25 39H43.75C45.4076 39 46.9973 38.3463 48.1694 37.1827C49.3415 36.0192 50 34.441 50 32.7955V15.733H0V32.7955ZM7.36607 24.375C7.36607 23.4935 7.71883 22.648 8.34674 22.0247C8.97465 21.4013 9.82628 21.0511 10.7143 21.0511H16.0714C16.9594 21.0511 17.8111 21.4013 18.439 22.0247C19.0669 22.648 19.4196 23.4935 19.4196 24.375V26.5909C19.4196 27.4725 19.0669 28.3179 18.439 28.9412C17.8111 29.5646 16.9594 29.9148 16.0714 29.9148H10.7143C9.82628 29.9148 8.97465 29.5646 8.34674 28.9412C7.71883 28.3179 7.36607 27.4725 7.36607 26.5909V24.375ZM43.75 0H6.25C4.5924 0 3.00268 0.653692 1.83058 1.81727C0.65848 2.98085 0 4.559 0 6.20455V9.08523H50V6.20455C50 4.559 49.3415 2.98085 48.1694 1.81727C46.9973 0.653692 45.4076 0 43.75 0Z" fill="#4F46E5"/>
</svg>
