<svg width="37" height="24" viewBox="0 0 37 24" fill="none" xmlns="http://www.w3.org/2000/svg">
<rect x="0.35" y="0.1" width="35.8" height="23.8" rx="2.9" fill="white" stroke="black" stroke-width="0.2"/>
<path d="M16.7623 9.85413C16.7768 9.80337 16.7913 9.74895 16.9982 9.74895C17.6403 9.74895 17.7635 10.195 17.7635 10.5615C17.7635 10.7827 17.6438 11.8999 16.5012 11.8999C16.3307 11.8999 16.2436 11.8782 16.2436 11.7585C16.2436 11.7004 16.2908 11.5408 16.3234 11.4211L16.7623 9.85413ZM16.0987 9.69803C16.2836 9.71256 16.378 9.73075 16.378 9.85413C16.378 9.92675 16.3489 10.0391 16.3381 10.079L15.892 11.6824C15.8304 11.9073 15.7759 11.9181 15.5981 11.9507V12.0088H16.5159C17.5823 12.0088 18.1663 11.3376 18.1663 10.6051C18.1663 10.2243 17.9414 9.6401 17.1072 9.6401H16.0988V9.69803H16.0987ZM18.9169 11.6351C18.7755 11.8492 18.6159 12.0487 18.4127 12.0487C18.2423 12.0487 18.2423 11.8891 18.2423 11.8238C18.2423 11.6533 18.5287 10.7536 18.5287 10.6521C18.5287 10.576 18.4997 10.5578 18.3002 10.5578V10.4997C18.4381 10.4925 18.7391 10.4344 18.8805 10.4091L18.8914 10.4162L18.5722 11.5842C18.5576 11.635 18.5141 11.78 18.5141 11.8236C18.5141 11.849 18.5394 11.878 18.5722 11.878C18.6157 11.878 18.7209 11.8054 18.8697 11.5951L18.9169 11.6351ZM18.8444 10.0209C18.7538 10.0209 18.6703 9.95914 18.6703 9.83226C18.6703 9.70538 18.7538 9.63643 18.8408 9.63643C18.9605 9.63643 19.0221 9.75613 19.0221 9.83593C19.0221 9.90839 18.964 10.0209 18.8444 10.0209ZM20.6109 11.6315C20.4296 11.8745 20.3026 12.0413 20.1067 12.0413C19.9398 12.0413 19.9326 11.9325 19.9326 11.8273C19.9326 11.7403 20.2011 10.8551 20.2011 10.7101C20.2011 10.6448 20.1794 10.594 20.1104 10.594C19.9363 10.594 19.7077 10.9061 19.5772 11.1091C19.4104 11.3593 19.3632 11.5154 19.2146 12.0086H18.9426C19.055 11.5987 19.298 10.75 19.298 10.6737C19.298 10.6192 19.2618 10.5793 19.066 10.5793V10.5213C19.2618 10.485 19.4576 10.4488 19.6536 10.4089L19.6645 10.4161L19.4323 11.1742L19.4394 11.1814C19.6099 10.9129 19.9436 10.4087 20.2446 10.4087C20.4116 10.4087 20.4949 10.4957 20.4949 10.6481C20.4949 10.8041 20.2047 11.7001 20.2047 11.8089C20.2047 11.8633 20.2555 11.8707 20.2628 11.8707C20.3355 11.8707 20.4261 11.7547 20.5603 11.584L20.6109 11.6315ZM21.0752 11.0946C21.2094 10.7717 21.456 10.4925 21.652 10.4925C21.7427 10.4925 21.7789 10.5615 21.7789 10.6376C21.7789 10.6667 21.7609 11.1019 21.0136 11.2543L21.0752 11.0946ZM21.8223 11.6133C21.641 11.762 21.4886 11.8854 21.2927 11.8854C21.1403 11.8854 20.9518 11.8019 20.9518 11.5552C20.9518 11.4825 20.97 11.4101 20.9881 11.334L21.0896 11.3194C21.6772 11.236 22.0181 10.9421 22.0181 10.6556C22.0181 10.496 21.9056 10.4089 21.7206 10.4089C21.2093 10.4089 20.6361 11.0183 20.6361 11.537C20.6361 11.7655 20.7522 12.0483 21.1331 12.0483C21.4959 12.0483 21.826 11.7146 21.8659 11.6565L21.8223 11.6133ZM22.0437 12.0086L22.3375 10.9495C22.3737 10.8152 22.3954 10.692 22.3954 10.6593C22.3954 10.6086 22.3774 10.5506 22.2649 10.5506C22.225 10.5506 22.1851 10.5615 22.1452 10.5687V10.5071C22.3302 10.4817 22.5442 10.4344 22.7075 10.4091L22.7183 10.4162L22.5407 11.1381L22.5479 11.1453L22.5769 11.0727C22.6966 10.8333 22.9724 10.4089 23.2008 10.4089C23.2843 10.4089 23.3749 10.4633 23.3749 10.5865C23.3749 10.7752 23.2444 10.7752 23.2045 10.7752C23.0485 10.7752 23.103 10.6446 23.0158 10.6446C22.9035 10.6446 22.6858 11.0473 22.6567 11.1017C22.5188 11.3628 22.4681 11.5261 22.3193 12.0086H22.0437ZM23.1898 11.479C23.2151 11.6386 23.2732 11.9724 23.5671 11.9724C23.7701 11.9724 23.8282 11.7982 23.8282 11.6785C23.8282 11.4391 23.3966 11.0909 23.3966 10.8116C23.3966 10.6992 23.4474 10.4089 23.8318 10.4089C23.9951 10.4089 24.0676 10.4707 24.1764 10.4707C24.2382 10.4707 24.2599 10.4344 24.2779 10.4052H24.3287L24.2561 10.9096H24.198C24.1799 10.7027 24.0928 10.4924 23.8571 10.4924C23.7773 10.4924 23.6612 10.5249 23.6612 10.7027C23.6612 10.9313 24.1036 11.2542 24.1036 11.5623C24.1036 11.9577 23.7662 12.0485 23.5632 12.0485C23.4544 12.0485 23.3093 11.9795 23.2041 11.9795C23.1534 11.9795 23.1388 12.0158 23.1171 12.0558H23.059L23.1317 11.479H23.1898ZM27.3286 10.3111C27.3214 10.2096 27.2887 9.72341 26.77 9.72341C26.0446 9.72341 25.6745 10.6012 25.6745 11.1345C25.6745 11.6098 25.874 11.9108 26.3057 11.9108C26.7155 11.9108 26.9695 11.6532 27.1436 11.4827L27.2052 11.5335C27.071 11.6931 26.7481 12.0739 26.2185 12.0739C25.7977 12.0739 25.2683 11.8199 25.2683 11.0946C25.2683 10.3945 25.9102 9.59285 26.7409 9.59285C27.002 9.59285 27.2234 9.67983 27.3067 9.67983C27.4119 9.67983 27.4336 9.63626 27.4518 9.60003H27.5279L27.3937 10.3219L27.3286 10.3111ZM27.9959 11.5951C27.8109 11.8744 27.6693 12.0485 27.4444 12.0485C27.2848 12.0485 27.2703 11.9251 27.2703 11.8236C27.2703 11.7473 27.7964 9.85396 27.7964 9.77783C27.7964 9.68367 27.6439 9.68367 27.5496 9.68718V9.62908C27.7383 9.60738 27.9269 9.57466 28.1154 9.53125L28.1336 9.54928L27.5858 11.6495C27.5787 11.6822 27.5496 11.78 27.5496 11.8199C27.5496 11.8416 27.5496 11.8926 27.604 11.8926C27.6947 11.8926 27.771 11.7911 27.9486 11.5623L27.9959 11.5951ZM29.6717 11.6169C29.4431 11.947 29.3488 12.0413 29.1675 12.0413C29.0042 12.0413 28.9971 11.9071 28.9971 11.8527C28.9971 11.7874 29.0697 11.4827 29.153 11.1852H29.1421C28.8954 11.5951 28.6271 12.0485 28.3005 12.0485C28.17 12.0485 28.101 11.9941 28.101 11.8345C28.101 11.6749 28.3767 10.7607 28.3767 10.6628C28.3767 10.5576 28.3077 10.5576 28.1591 10.5576V10.5071C28.3422 10.4849 28.5239 10.4522 28.7032 10.4091L28.7141 10.4162L28.3839 11.733C28.373 11.78 28.3839 11.8562 28.4601 11.8562C28.6161 11.8562 28.8446 11.5153 28.968 11.3266C29.1458 11.0582 29.2256 10.8296 29.367 10.4415H29.6355L29.349 11.5261C29.3273 11.5987 29.28 11.7583 29.28 11.8128C29.28 11.8308 29.2835 11.8709 29.3236 11.8709C29.3925 11.8709 29.4941 11.7438 29.6211 11.5842L29.6717 11.6169ZM30.9884 10.895C30.9884 11.1997 30.6438 11.9652 30.1468 11.9652C29.9764 11.9652 29.9764 11.8709 29.9764 11.8455C29.9764 11.4647 30.3246 10.5867 30.7236 10.5867C30.9522 10.5867 30.9884 10.7827 30.9884 10.895ZM29.98 9.67633C30.1904 9.68 30.2158 9.69803 30.2158 9.78151C30.2158 9.83226 30.1832 9.92291 30.1578 10.0246L29.6645 11.8418V11.8563C29.6645 11.9361 29.9438 12.0487 30.1361 12.0487C30.6911 12.0487 31.2968 11.4211 31.2968 10.848C31.2968 10.5832 31.1191 10.4091 30.8652 10.4091C30.5388 10.4091 30.3103 10.7465 30.1906 10.9349L30.1834 10.9314C30.3068 10.5214 30.4735 9.84678 30.5533 9.54945L30.5353 9.53142C30.3467 9.56764 30.1617 9.59302 29.9804 9.61489V9.67633H29.98ZM15.5993 14.7771C15.7771 14.7444 15.8315 14.7335 15.8931 14.5086L16.3392 12.9053C16.3609 12.8326 16.3791 12.7457 16.3791 12.6804C16.3791 12.5535 16.2813 12.5427 16.1252 12.5245V12.4664H17.0212V12.5245C16.8436 12.5572 16.7855 12.5644 16.7237 12.7929L16.2776 14.3998C16.2559 14.4724 16.2377 14.5449 16.2377 14.632C16.2377 14.748 16.3284 14.7591 16.4845 14.7771V14.8352H15.5993V14.7771Z" fill="black"/>
<path d="M18.2292 14.4599C18.0477 14.703 17.9208 14.8699 17.7248 14.8699C17.5581 14.8699 17.5507 14.7611 17.5507 14.6559C17.5507 14.5689 17.8192 13.6838 17.8192 13.5387C17.8192 13.4734 17.7975 13.4226 17.7285 13.4226C17.5544 13.4226 17.3258 13.7347 17.1953 13.9377C17.0283 14.1879 16.9813 14.3439 16.8325 14.8372H16.5605C16.6729 14.4273 16.916 13.5784 16.916 13.5023C16.916 13.4479 16.8798 13.408 16.6839 13.408V13.3499C16.8798 13.3136 17.0756 13.2772 17.2716 13.2373L17.2824 13.2447L17.0504 14.0028L17.0576 14.0101C17.228 13.7417 17.5617 13.2375 17.8627 13.2375C18.0297 13.2375 18.1132 13.3246 18.1132 13.4771C18.1132 13.633 17.823 14.529 17.823 14.6379C17.823 14.6923 17.8738 14.6995 17.8811 14.6995C17.9537 14.6995 18.0444 14.5834 18.1784 14.413L18.2292 14.4599ZM19.1977 13.4006H18.893L18.5738 14.6085C18.5701 14.6193 18.5701 14.6265 18.5701 14.6375C18.5701 14.6701 18.5881 14.6991 18.6282 14.6991C18.7008 14.6991 18.8277 14.5287 18.9184 14.4126L18.9654 14.438C18.7805 14.7173 18.639 14.8769 18.4504 14.8769C18.3778 14.8769 18.2763 14.8407 18.2763 14.7319C18.2763 14.6774 18.3452 14.4562 18.3597 14.3981L18.6209 13.4006H18.3524C18.3489 13.3789 18.3489 13.3607 18.3597 13.3425C18.3814 13.3098 18.483 13.2844 18.5447 13.2519C18.6644 13.1901 18.8386 13.027 18.9401 12.8999C18.9546 12.8819 18.9691 12.8492 19.0017 12.8565C19.027 12.8492 19.0344 12.8819 19.027 12.911L18.9255 13.2846H19.2157L19.1977 13.4006ZM19.5204 13.923C19.6546 13.6001 19.9013 13.3208 20.0972 13.3208C20.1878 13.3208 20.2242 13.3898 20.2242 13.4659C20.2242 13.4949 20.206 13.9302 19.4589 14.0826L19.5204 13.923ZM20.2676 14.4417C20.0863 14.5904 19.9339 14.7137 19.7381 14.7137C19.5856 14.7137 19.3972 14.6302 19.3972 14.3836C19.3972 14.311 19.4152 14.2385 19.4334 14.1624L19.5349 14.1479C20.1225 14.0644 20.4635 13.7706 20.4635 13.4839C20.4635 13.3243 20.3509 13.2372 20.166 13.2372C19.6546 13.2372 19.0813 13.8465 19.0813 14.3652C19.0813 14.5938 19.1973 14.8766 19.5783 14.8766C19.9411 14.8766 20.2711 14.5429 20.311 14.4849L20.2676 14.4417ZM20.5615 14.837L20.8553 13.7779C20.8915 13.6437 20.9134 13.5203 20.9134 13.4878C20.9134 13.437 20.8952 13.3789 20.7828 13.3789C20.7429 13.3789 20.703 13.3898 20.6631 13.3971V13.3353C20.8481 13.31 21.0621 13.2627 21.2254 13.2373L21.2363 13.2447L21.0586 13.9666L21.0658 13.9737L21.0949 13.9011C21.2146 13.6617 21.4902 13.2372 21.7187 13.2372C21.8022 13.2372 21.8929 13.2916 21.8929 13.415C21.8929 13.6036 21.7623 13.6036 21.7224 13.6036C21.5665 13.6036 21.6209 13.4731 21.5339 13.4731C21.4214 13.4731 21.2037 13.8757 21.1748 13.9302C21.0369 14.1913 20.9862 14.3545 20.8374 14.837H20.5615Z" fill="black"/>
<path d="M23.3469 14.4608C23.1656 14.7039 23.0386 14.8709 22.8428 14.8709C22.6758 14.8709 22.6686 14.762 22.6686 14.6568C22.6686 14.5699 22.9371 13.6847 22.9371 13.5396C22.9371 13.4743 22.9154 13.4236 22.8464 13.4236C22.6725 13.4236 22.4438 13.7356 22.3132 13.9386C22.1464 14.1889 22.0992 14.3448 21.9504 14.8381H21.6785C21.791 14.4283 22.0339 13.5794 22.0339 13.5032C22.0339 13.4488 21.9977 13.4089 21.8017 13.4089V13.3508C21.9975 13.3146 22.1935 13.2782 22.3893 13.2383L22.4002 13.2456L22.168 14.0037L22.1751 14.0111C22.3456 13.7426 22.6793 13.2384 22.9805 13.2384C23.1474 13.2384 23.2307 13.3256 23.2307 13.478C23.2307 13.6339 22.9406 14.53 22.9406 14.6388C22.9406 14.6932 22.9913 14.7004 22.9987 14.7004C23.0713 14.7004 23.162 14.5844 23.2962 14.4139L23.3469 14.4608Z" fill="black"/>
<path d="M23.6264 14.4417C23.6264 14.1151 23.9529 13.3173 24.3773 13.3173C24.4825 13.3173 24.5841 13.3862 24.5841 13.5604C24.5841 13.9158 24.2287 14.6993 23.8441 14.6993C23.7461 14.6993 23.6264 14.634 23.6264 14.4417ZM24.9431 14.438C24.7798 14.5976 24.7072 14.6884 24.6529 14.6884C24.6239 14.6884 24.6022 14.6667 24.6022 14.6412C24.6022 14.5288 24.9359 13.2917 24.9468 13.2483L24.9214 13.2375L24.7002 13.2629L24.6893 13.2737L24.6531 13.4335H24.6459C24.6351 13.3318 24.5154 13.2375 24.3594 13.2375C23.877 13.2375 23.322 13.9158 23.322 14.449C23.322 14.5542 23.3329 14.8769 23.6957 14.8769C23.9134 14.8769 24.1055 14.7681 24.4065 14.3256L24.4137 14.3328C24.3556 14.554 24.3376 14.6338 24.3376 14.7173C24.3376 14.7789 24.3376 14.8732 24.49 14.8732C24.6459 14.8732 24.7693 14.7427 24.987 14.4742L24.9431 14.438ZM26.0204 13.4006H25.7157L25.3965 14.6085C25.3928 14.6193 25.3928 14.6265 25.3928 14.6375C25.3928 14.6701 25.411 14.6991 25.4509 14.6991C25.5236 14.6991 25.6504 14.5287 25.7411 14.4126L25.7882 14.438C25.6032 14.7173 25.4618 14.8769 25.2731 14.8769C25.2005 14.8769 25.099 14.8407 25.099 14.7318C25.099 14.6774 25.168 14.4562 25.1825 14.3981L25.4436 13.4006H25.1751C25.1716 13.3789 25.1716 13.3607 25.1825 13.3425C25.2042 13.3098 25.3057 13.2844 25.3675 13.2518C25.4872 13.1901 25.6613 13.027 25.7628 12.8999C25.7773 12.8819 25.7918 12.8492 25.8246 12.8565C25.8499 12.8492 25.8571 12.8819 25.8499 12.9109L25.7484 13.2846H26.0386L26.0204 13.4006ZM26.7169 14.4635C26.5753 14.6776 26.4159 14.8771 26.2127 14.8771C26.0423 14.8771 26.0423 14.7175 26.0423 14.6522C26.0423 14.4817 26.3288 13.5822 26.3288 13.4806C26.3288 13.4043 26.2997 13.3862 26.1002 13.3862V13.3281C26.2379 13.321 26.5389 13.2629 26.6805 13.2375L26.6914 13.2448L26.3722 14.4128C26.3576 14.4635 26.3141 14.6086 26.3141 14.6522C26.3141 14.6776 26.3394 14.7066 26.3722 14.7066C26.4157 14.7066 26.5209 14.634 26.6695 14.4236L26.7169 14.4635ZM26.6443 12.8493C26.5536 12.8493 26.4702 12.7877 26.4702 12.6607C26.4702 12.5338 26.5536 12.4648 26.6406 12.4648C26.7603 12.4648 26.8219 12.5845 26.8219 12.6643C26.8221 12.7368 26.764 12.8493 26.6443 12.8493ZM27.9031 13.3136C28.077 13.3136 28.157 13.4732 28.157 13.6619C28.157 14.05 27.8705 14.8008 27.457 14.8008C27.2757 14.8008 27.1668 14.6702 27.1668 14.4634C27.1667 14.0355 27.4967 13.3136 27.9031 13.3136ZM27.9284 13.2373C27.3989 13.2373 26.862 13.8215 26.862 14.3545C26.862 14.6555 27.0253 14.8767 27.4097 14.8767C27.9647 14.8767 28.4617 14.2203 28.4617 13.774C28.4615 13.5348 28.3492 13.2373 27.9284 13.2373Z" fill="black"/>
<path d="M30.0432 14.4615C29.8619 14.7046 29.7349 14.8715 29.5391 14.8715C29.3721 14.8715 29.3649 14.7627 29.3649 14.6575C29.3649 14.5705 29.6334 13.6854 29.6334 13.5403C29.6334 13.475 29.6117 13.4242 29.5427 13.4242C29.3686 13.4242 29.14 13.7363 29.0095 13.9393C28.8425 14.1895 28.7955 14.3455 28.6467 14.8388H28.3748C28.4873 14.4289 28.7302 13.58 28.7302 13.5039C28.7302 13.4495 28.694 13.4096 28.498 13.4096V13.3515C28.6938 13.3152 28.8898 13.2788 29.0856 13.2389L29.0965 13.2463L28.8642 14.0044L28.8714 14.0117C29.0419 13.7433 29.3756 13.2391 29.6768 13.2391C29.8437 13.2391 29.927 13.3262 29.927 13.4787C29.927 13.6346 29.6369 14.5306 29.6369 14.6395C29.6369 14.6939 29.6876 14.7011 29.695 14.7011C29.7676 14.7011 29.8583 14.585 29.9925 14.4146L30.0432 14.4615ZM30.395 14.4433C30.395 14.1167 30.7215 13.3189 31.1459 13.3189C31.2511 13.3189 31.3526 13.3878 31.3526 13.562C31.3526 13.9174 30.9972 14.7009 30.6127 14.7009C30.5147 14.7009 30.395 14.6356 30.395 14.4433ZM31.7117 14.4396C31.5484 14.5992 31.4758 14.69 31.4216 14.69C31.3925 14.69 31.3708 14.6683 31.3708 14.6428C31.3708 14.5304 31.7045 13.2934 31.7154 13.2499L31.69 13.2391L31.4686 13.2645L31.4578 13.2753L31.4216 13.4351H31.4144C31.4035 13.3334 31.2838 13.2391 31.1279 13.2391C30.6454 13.2391 30.0905 13.9174 30.0905 14.4506C30.0905 14.5558 30.1013 14.8785 30.4641 14.8785C30.6816 14.8785 30.874 14.7697 31.175 14.3273L31.1822 14.3344C31.1241 14.5556 31.106 14.6355 31.106 14.7189C31.106 14.7805 31.106 14.8749 31.2583 14.8749C31.4144 14.8749 31.5376 14.7443 31.7553 14.4758L31.7117 14.4396ZM32.5351 14.4251C32.3501 14.7044 32.2087 14.8785 31.9838 14.8785C31.8242 14.8785 31.8097 14.7553 31.8097 14.6536C31.8097 14.5775 32.3356 12.684 32.3356 12.6079C32.3356 12.5135 32.1832 12.5135 32.0888 12.5172V12.4591C32.2792 12.4371 32.4681 12.4044 32.6548 12.3611L32.6728 12.3793L32.1251 14.4795C32.1179 14.5121 32.0888 14.6101 32.0888 14.65C32.0888 14.6717 32.0888 14.7226 32.1433 14.7226C32.2339 14.7226 32.3101 14.6211 32.4879 14.3925L32.5351 14.4251ZM33.0438 12.4429H33.081C33.1156 12.4429 33.1436 12.4601 33.1436 12.5119C33.1436 12.56 33.1264 12.5943 33.0819 12.5943H33.0438V12.4429ZM32.9423 12.4393C32.9867 12.4438 32.9859 12.4429 32.9859 12.4828V12.6995C32.9859 12.7384 32.9867 12.7384 32.9423 12.7431V12.7566H33.0874V12.7431C33.0421 12.7386 33.0438 12.7386 33.0438 12.6995V12.6107H33.0864C33.1435 12.695 33.1662 12.7566 33.1952 12.7566H33.2523V12.7484C33.2349 12.7358 33.2079 12.705 33.1844 12.6723L33.1326 12.6015C33.1735 12.588 33.2042 12.5534 33.2042 12.5074C33.2042 12.4511 33.1543 12.4257 33.1009 12.4257H32.9421V12.4393H32.9423ZM33.3939 12.5962C33.3939 12.4247 33.2607 12.2852 33.0882 12.2852C33.0474 12.285 33.007 12.293 32.9693 12.3086C32.9316 12.3243 32.8974 12.3472 32.8687 12.3761C32.8399 12.405 32.8172 12.4394 32.8018 12.4772C32.7864 12.5149 32.7787 12.5554 32.779 12.5962C32.779 12.7675 32.9142 12.9054 33.0882 12.9054C33.2607 12.9054 33.3939 12.7675 33.3939 12.5962ZM33.344 12.5962C33.344 12.7403 33.2306 12.8673 33.0882 12.8673C32.9431 12.8673 32.8289 12.7403 32.8289 12.5962C32.8289 12.4519 32.9423 12.3232 33.0882 12.3232C33.2316 12.3232 33.344 12.4511 33.344 12.5962Z" fill="black"/>
<path d="M11.0924 15.7931C13.1674 15.8033 14.8689 14.1016 14.8544 12.0311C14.8688 9.90399 13.1674 8.20246 11.0924 8.20313H6.93456C4.83469 8.20262 3.13316 9.90399 3.10645 12.0311C3.13316 14.1016 4.83469 15.8031 6.93439 15.7931H11.0924Z" fill="#2D4F9E"/>
<path d="M3.37061 12.0326C3.39131 10.0481 4.97715 8.46209 6.93461 8.46877C8.8899 8.46209 10.4759 10.0481 10.4984 12.0328C10.4759 13.9609 8.8899 15.5469 6.93461 15.5307C4.97715 15.5469 3.39131 13.9607 3.37061 12.0326Z" fill="white"/>
<path d="M6.14238 9.91797C5.32216 10.2881 4.70679 11.0794 4.69043 12.0299C4.70679 12.9446 5.29278 13.7503 6.14238 14.0758V9.91797ZM7.72638 14.076C8.57397 13.7504 9.15979 12.9446 9.17832 12.03C9.15979 11.0591 8.5738 10.2532 7.72638 9.91814V14.076Z" fill="#2D4F9E"/>
</svg>
