<svg width="39" height="30" viewBox="0 0 39 30" fill="none" xmlns="http://www.w3.org/2000/svg">
<g clip-path="url(#clip0_4160_12524)">
<path d="M38.7879 23.8512C38.7879 27.1705 36.085 29.8733 32.7658 29.8733H0V6.02212C0 2.70288 2.70288 0 6.02212 0H38.7879V23.8512Z" fill="white"/>
<path d="M28.1187 17.7331H30.608C30.6793 17.7331 30.8452 17.7095 30.9164 17.7095C31.3906 17.6146 31.7937 17.1878 31.7937 16.5951C31.7937 16.0261 31.3906 15.5993 30.9164 15.4808C30.8452 15.457 30.703 15.457 30.6082 15.457H28.1188V17.7331H28.1187Z" fill="url(#paint0_linear_4160_12524)"/>
<path d="M30.3236 2.01562C27.9527 2.01562 26.0085 3.93623 26.0085 6.33078V10.8118H32.1018C32.2441 10.8118 32.41 10.8118 32.5285 10.8355C33.9036 10.9067 34.9232 11.6179 34.9232 12.8506C34.9232 13.8227 34.2356 14.6526 32.9553 14.8187V14.8659C34.3541 14.9608 35.4211 15.7432 35.4211 16.9523C35.4211 18.2564 34.2356 19.1099 32.6708 19.1099H25.9849V27.8823H32.3152C34.6861 27.8823 36.6303 25.9618 36.6303 23.5671V2.01562H30.3236Z" fill="url(#paint1_linear_4160_12524)"/>
<path d="M31.4853 13.1332C31.4853 12.5641 31.0823 12.1847 30.608 12.1135C30.5608 12.1135 30.4421 12.0898 30.3711 12.0898H28.1187V14.1762H30.3711C30.4423 14.1762 30.5844 14.1762 30.6082 14.1526C31.0824 14.0814 31.4855 13.7021 31.4855 13.133L31.4853 13.1332Z" fill="url(#paint2_linear_4160_12524)"/>
<path d="M6.47258 2.01562C4.10167 2.01562 2.15743 3.93623 2.15743 6.33078V16.9762C3.36667 17.5688 4.62318 17.9482 5.87985 17.9482C7.37349 17.9482 8.17955 17.0473 8.17955 15.8144V10.788H11.8782V15.7906C11.8782 17.7347 10.6691 19.3234 6.56743 19.3234C4.07803 19.3234 2.13379 18.7779 2.13379 18.7779V27.8585H8.46409C10.835 27.8585 12.7792 25.938 12.7792 23.5434V2.01593H6.47242L6.47258 2.01562Z" fill="url(#paint3_linear_4160_12524)"/>
<path d="M18.3982 2.01562C16.0273 2.01562 14.083 3.93623 14.083 6.33078V11.9735C15.1738 11.0488 17.0704 10.4561 20.1289 10.5984C21.7648 10.6696 23.5192 11.12 23.5192 11.12V12.9456C22.6419 12.4952 21.5989 12.092 20.2474 11.9971C17.9239 11.8312 16.5251 12.9693 16.5251 14.9608C16.5251 16.9761 17.9239 18.1141 20.2474 17.9244C21.5989 17.8296 22.6421 17.4029 23.5192 16.9761V18.8017C23.5192 18.8017 21.7885 19.2521 20.1289 19.3234C17.0704 19.4655 15.1738 18.8727 14.0832 17.9482V27.9059H20.4135C22.7844 27.9059 24.7285 25.9855 24.7285 23.5908V2.01593H18.3982V2.01562Z" fill="url(#paint4_linear_4160_12524)"/>
</g>
<defs>
<linearGradient id="paint0_linear_4160_12524" x1="26.0045" y1="16.5979" x2="36.659" y2="16.5979" gradientUnits="userSpaceOnUse">
<stop stop-color="#007940"/>
<stop offset="0.2285" stop-color="#00873F"/>
<stop offset="0.7433" stop-color="#40A737"/>
<stop offset="1" stop-color="#5CB531"/>
</linearGradient>
<linearGradient id="paint1_linear_4160_12524" x1="26.0043" y1="14.9386" x2="36.6594" y2="14.9386" gradientUnits="userSpaceOnUse">
<stop stop-color="#007940"/>
<stop offset="0.2285" stop-color="#00873F"/>
<stop offset="0.7433" stop-color="#40A737"/>
<stop offset="1" stop-color="#5CB531"/>
</linearGradient>
<linearGradient id="paint2_linear_4160_12524" x1="26.0042" y1="13.1301" x2="36.6593" y2="13.1301" gradientUnits="userSpaceOnUse">
<stop stop-color="#007940"/>
<stop offset="0.2285" stop-color="#00873F"/>
<stop offset="0.7433" stop-color="#40A737"/>
<stop offset="1" stop-color="#5CB531"/>
</linearGradient>
<linearGradient id="paint3_linear_4160_12524" x1="2.15253" y1="14.9386" x2="12.9717" y2="14.9386" gradientUnits="userSpaceOnUse">
<stop stop-color="#1F286F"/>
<stop offset="0.4751" stop-color="#004E94"/>
<stop offset="0.8261" stop-color="#0066B1"/>
<stop offset="1" stop-color="#006FBC"/>
</linearGradient>
<linearGradient id="paint4_linear_4160_12524" x1="14.0217" y1="14.9385" x2="24.5297" y2="14.9385" gradientUnits="userSpaceOnUse">
<stop stop-color="#6C2C2F"/>
<stop offset="0.1735" stop-color="#882730"/>
<stop offset="0.5731" stop-color="#BE1833"/>
<stop offset="0.8585" stop-color="#DC0436"/>
<stop offset="1" stop-color="#E60039"/>
</linearGradient>
<clipPath id="clip0_4160_12524">
<rect width="38.7879" height="30" fill="white"/>
</clipPath>
</defs>
</svg>
