<svg width="54" height="41" viewBox="0 0 54 41" fill="none" xmlns="http://www.w3.org/2000/svg">
<g clip-path="url(#clip0_243_4974)">
<path d="M9.81702 40.7967V38.0831C9.81702 37.0426 9.1686 36.3644 8.05717 36.3644C7.50156 36.3644 6.89955 36.5453 6.48274 37.1333C6.15874 36.6357 5.69573 36.3644 5.00111 36.3644C4.53789 36.3644 4.07509 36.4999 3.70448 36.9975V36.4548H2.73206V40.7967H3.70448V38.3995C3.70448 37.6308 4.12129 37.2689 4.76971 37.2689C5.41771 37.2689 5.74213 37.676 5.74213 38.3995V40.7967H6.71456V38.3995C6.71456 37.6308 7.17735 37.2689 7.77937 37.2689C8.42779 37.2689 8.75179 37.676 8.75179 38.3995V40.7967H9.81702ZM24.2179 36.4548H22.6437V35.1432H21.6713V36.4548H20.7915V37.314H21.6711V39.3042C21.6711 40.2993 22.0879 40.8872 23.1993 40.8872C23.6161 40.8872 24.0789 40.7516 24.4034 40.5707L24.1253 39.7565C23.8475 39.9374 23.5235 39.9827 23.2919 39.9827C22.8289 39.9827 22.6437 39.7113 22.6437 39.2589V37.314H24.2179V36.4548ZM32.4605 36.3642C31.9049 36.3642 31.5345 36.6357 31.3029 36.9975V36.4548H30.3305V40.7967H31.3029V38.3544C31.3029 37.6308 31.6269 37.2237 32.2289 37.2237C32.4141 37.2237 32.6457 37.2691 32.8309 37.3142L33.1087 36.4097C32.9235 36.3644 32.6457 36.3644 32.4605 36.3644M20.0042 36.8168C19.541 36.5002 18.8928 36.3646 18.1982 36.3646C17.087 36.3646 16.3462 36.9073 16.3462 37.7666C16.3462 38.4904 16.9018 38.8973 17.8742 39.0331L18.3372 39.0784C18.8466 39.1687 19.1244 39.3044 19.1244 39.5307C19.1244 39.8471 18.754 40.0733 18.1056 40.0733C17.4574 40.0733 16.948 39.8471 16.6238 39.6211L16.1608 40.3447C16.6702 40.7065 17.3648 40.8874 18.0592 40.8874C19.3558 40.8874 20.0969 40.2996 20.0969 39.4853C20.0969 38.7164 19.4948 38.3093 18.5686 38.1737L18.1056 38.1284C17.6888 38.0831 17.3648 37.9928 17.3648 37.7215C17.3648 37.4048 17.6888 37.2239 18.1982 37.2239C18.754 37.2239 19.3096 37.45 19.5874 37.5857L20.0042 36.8168ZM45.843 36.3646C45.2872 36.3646 44.9168 36.6359 44.6852 36.9977V36.455H43.7128V40.7969H44.6852V38.3546C44.6852 37.6311 45.0094 37.2239 45.6112 37.2239C45.7966 37.2239 46.0282 37.2693 46.2134 37.3144L46.4913 36.4099C46.306 36.3646 46.0282 36.3646 45.843 36.3646ZM33.433 38.626C33.433 39.9376 34.359 40.8874 35.7946 40.8874C36.4428 40.8874 36.9058 40.7518 37.3688 40.39L36.9058 39.6211C36.5354 39.8924 36.165 40.028 35.7482 40.028C34.961 40.028 34.4054 39.4853 34.4054 38.626C34.4054 37.8119 34.961 37.2691 35.7482 37.2239C36.165 37.2239 36.5354 37.3595 36.9058 37.6311L37.3688 36.8621C36.9058 36.5002 36.4428 36.3646 35.7946 36.3646C34.359 36.3646 33.433 37.3144 33.433 38.626ZM42.4164 38.626V36.455H41.4439V36.9977C41.1197 36.5908 40.6567 36.3646 40.0547 36.3646C38.8045 36.3646 37.8321 37.3144 37.8321 38.626C37.8321 39.9376 38.8045 40.8874 40.0547 40.8874C40.7029 40.8874 41.1661 40.6613 41.4439 40.2542V40.7969H42.4164V38.626ZM38.8507 38.626C38.8507 37.8571 39.3601 37.2239 40.1935 37.2239C40.9807 37.2239 41.5365 37.8119 41.5365 38.626C41.5365 39.3949 40.9807 40.028 40.1935 40.028C39.3601 39.9827 38.8507 39.3949 38.8507 38.626ZM27.228 36.3646C25.9314 36.3646 25.0052 37.2691 25.0052 38.626C25.0052 39.9829 25.9312 40.8874 27.2742 40.8874C27.9224 40.8874 28.5708 40.7065 29.0803 40.2996L28.617 39.6211C28.2466 39.8924 27.7836 40.0733 27.3206 40.0733C26.7186 40.0733 26.1166 39.802 25.9776 39.0329H29.2655V38.6713C29.3119 37.2691 28.4785 36.3646 27.228 36.3646ZM27.2278 37.1786C27.8296 37.1786 28.2466 37.5406 28.339 38.2191H26.0238C26.1164 37.6311 26.5332 37.1786 27.2278 37.1786ZM51.3531 38.626V34.7363H50.3807V36.9977C50.0565 36.5908 49.5935 36.3646 48.9915 36.3646C47.7413 36.3646 46.7688 37.3144 46.7688 38.626C46.7688 39.9376 47.7413 40.8874 48.9915 40.8874C49.6399 40.8874 50.1029 40.6613 50.3807 40.2542V40.7969H51.3531V38.626ZM47.7877 38.626C47.7877 37.8571 48.2969 37.2239 49.1305 37.2239C49.9177 37.2239 50.4733 37.8119 50.4733 38.626C50.4733 39.3949 49.9177 40.028 49.1305 40.028C48.2969 39.9827 47.7877 39.3949 47.7877 38.626ZM15.2807 38.626V36.455H14.3083V36.9977C13.9841 36.5908 13.5211 36.3646 12.9191 36.3646C11.6688 36.3646 10.6964 37.3144 10.6964 38.626C10.6964 39.9376 11.6688 40.8874 12.9191 40.8874C13.5675 40.8874 14.0305 40.6613 14.3083 40.2542V40.7969H15.2807V38.626ZM11.6688 38.626C11.6688 37.8571 12.1783 37.2239 13.0117 37.2239C13.7989 37.2239 14.3547 37.8119 14.3547 38.626C14.3547 39.3949 13.7989 40.028 13.0117 40.028C12.1783 39.9827 11.6688 39.3949 11.6688 38.626Z" fill="black"/>
<path d="M19.6801 3.48242H34.2664V29.0819H19.6801V3.48242Z" fill="#FF5F00"/>
<path d="M20.6063 16.2824C20.6063 11.0811 23.1067 6.4677 26.95 3.48253C24.1256 1.31159 20.5601 0 16.6704 0C7.45516 0 0 7.28172 0 16.2824C0 25.2828 7.45516 32.5647 16.6702 32.5647C20.5599 32.5647 24.1253 31.2531 26.95 29.082C23.1067 26.1421 20.6063 21.4836 20.6063 16.2824Z" fill="#EB001B"/>
<path d="M53.9465 16.2824C53.9465 25.2828 46.4913 32.5647 37.2763 32.5647C33.3866 32.5647 29.8211 31.2531 26.9965 29.082C30.8861 26.097 33.3404 21.4836 33.3404 16.2824C33.3404 11.0811 30.8397 6.4677 26.9965 3.48253C29.8209 1.31159 33.3866 0 37.2763 0C46.4913 0 53.9465 7.32705 53.9465 16.2824Z" fill="#F79E1B"/>
</g>
<defs>
<clipPath id="clip0_243_4974">
<rect width="54" height="41" fill="white"/>
</clipPath>
</defs>
</svg>
