<svg width="60" height="47" viewBox="0 0 60 47" fill="none" xmlns="http://www.w3.org/2000/svg">
<rect width="59.1421" height="46.7635" rx="8" fill="white"/>
<g clip-path="url(#clip0_7189_14702)">
<path d="M17.4753 32.332H40.8087V34.6654H17.4753V32.332ZM19.8087 22.9987H22.142V31.1654H19.8087V22.9987ZM25.642 22.9987H27.9753V31.1654H25.642V22.9987ZM30.3087 22.9987H32.642V31.1654H30.3087V22.9987ZM36.142 22.9987H38.4753V31.1654H36.142V22.9987ZM17.4753 17.1654L29.142 11.332L40.8087 17.1654V21.832H17.4753V17.1654ZM19.8087 18.6074V19.4987H38.4753V18.6074L29.142 13.9407L19.8087 18.6074ZM29.142 18.332C28.8326 18.332 28.5358 18.2091 28.317 17.9903C28.0983 17.7715 27.9753 17.4748 27.9753 17.1654C27.9753 16.8559 28.0983 16.5592 28.317 16.3404C28.5358 16.1216 28.8326 15.9987 29.142 15.9987C29.4514 15.9987 29.7482 16.1216 29.967 16.3404C30.1858 16.5592 30.3087 16.8559 30.3087 17.1654C30.3087 17.4748 30.1858 17.7715 29.967 17.9903C29.7482 18.2091 29.4514 18.332 29.142 18.332Z" fill="#4F46E5"/>
</g>
<defs>
<clipPath id="clip0_7189_14702">
<rect width="28" height="28" fill="white" transform="translate(15.1421 9)"/>
</clipPath>
</defs>
</svg>
