<svg width="39" height="24" viewBox="0 0 39 24" fill="none" xmlns="http://www.w3.org/2000/svg">
<g clip-path="url(#clip0_4160_12519)">
<path d="M7.92862 0H17.4953C18.8308 0 19.6613 1.08855 19.3499 2.4285L14.8958 21.5512C14.5816 22.8865 13.2443 23.976 11.9081 23.976H2.34217C1.00867 23.976 0.176169 22.8865 0.487719 21.5512L4.94362 2.4285C5.25517 1.08855 6.59152 0 7.92862 0Z" fill="#E21836"/>
<path d="M16.6991 0H27.7008C29.0359 0 28.434 1.08855 28.1199 2.4285L23.6663 21.5512C23.354 22.8865 23.4514 23.976 22.1134 23.976H11.1119C9.77394 23.976 8.94594 22.8865 9.26019 21.5512L13.7132 2.4285C14.0294 1.08855 15.3631 0 16.6991 0Z" fill="#00447C"/>
<path d="M27.2644 0H36.8311C38.1685 0 38.9991 1.08855 38.6851 2.4285L34.2316 21.5512C33.9174 22.8865 32.5794 23.976 31.2421 23.976H21.6799C20.3419 23.976 19.512 22.8865 19.8255 21.5512L24.2794 2.4285C24.591 1.08855 25.9264 0 27.2644 0Z" fill="#007B84"/>
<path d="M9.77266 7.76422C8.78896 7.77427 8.49841 7.76422 8.40556 7.74232C8.36986 7.91182 7.70596 10.9742 7.70416 10.9768C7.56121 11.5963 7.45726 12.038 7.10386 12.3232C6.90346 12.4889 6.66931 12.569 6.39781 12.569C5.96161 12.569 5.70736 12.3523 5.66476 11.9414L5.65651 11.8004C5.65651 11.8004 5.78941 10.9705 5.78941 10.9658C5.78941 10.9658 6.48616 8.17507 6.61096 7.80622C6.61756 7.78522 6.61936 7.77427 6.62101 7.76422C5.26486 7.77622 5.02441 7.76422 5.00791 7.74232C4.99876 7.77232 4.96516 7.94542 4.96516 7.94542L4.25371 11.0909L4.19266 11.3576L4.07446 12.2302C4.07446 12.4889 4.12531 12.7003 4.22641 12.8789C4.55056 13.4453 5.47516 13.5302 5.99821 13.5302C6.67201 13.5302 7.30426 13.387 7.73146 13.1255C8.47291 12.6875 8.66701 12.0026 8.83996 11.3939L8.92021 11.0818C8.92021 11.0818 9.63796 8.18332 9.75991 7.80622C9.76441 7.78522 9.76636 7.77427 9.77266 7.76422ZM12.2147 10.1024C12.0417 10.1024 11.7257 10.1444 11.4416 10.2836C11.3385 10.3366 11.241 10.3976 11.1381 10.4585L11.231 10.1234L11.1801 10.067C10.5779 10.189 10.443 10.2053 9.88666 10.2836L9.84016 10.3147C9.77551 10.8502 9.71806 11.2529 9.47866 12.3058C9.38693 12.6952 9.29333 13.0842 9.19786 13.4728L9.22336 13.5218C9.79366 13.4918 9.96661 13.4918 10.4622 13.4999L10.5023 13.4564C10.5653 13.1339 10.5734 13.0583 10.7129 12.4051C10.7784 12.0955 10.9151 11.4151 10.9824 11.1728C11.1062 11.1154 11.2284 11.059 11.345 11.059C11.6228 11.059 11.5889 11.3012 11.5782 11.3978C11.5662 11.5598 11.4651 12.0892 11.3613 12.5437L11.292 12.8369C11.2439 13.0537 11.1909 13.2641 11.1426 13.4789L11.1636 13.5218C11.7255 13.4918 11.897 13.4918 12.3768 13.4999L12.4332 13.4564C12.5201 12.9527 12.5454 12.8179 12.6993 12.0845L12.7767 11.7476C12.9272 11.0881 13.0028 10.7537 12.8889 10.4813C12.7686 10.1761 12.4797 10.1024 12.2147 10.1024ZM14.9429 10.7929C14.6441 10.8503 14.4536 10.8884 14.2643 10.9132C14.0766 10.9432 13.8935 10.9706 13.6049 11.0107L13.5819 11.0314L13.5609 11.0479C13.5309 11.263 13.5099 11.4488 13.47 11.6674C13.4363 11.8933 13.3842 12.1501 13.2996 12.5189C13.2341 12.8012 13.2003 12.8996 13.163 12.9989C13.1265 13.0984 13.0865 13.195 13.0128 13.4726L13.0301 13.4983L13.0445 13.5218C13.3143 13.5091 13.4909 13.4999 13.6722 13.4983C13.8534 13.4918 14.0412 13.4983 14.3316 13.4998L14.3571 13.4792L14.3844 13.4563C14.4264 13.2058 14.4326 13.1384 14.4582 13.0163C14.4837 12.8852 14.5275 12.7039 14.6351 12.2192C14.6859 11.9917 14.7425 11.7647 14.7953 11.5325C14.85 11.3012 14.9073 11.0735 14.9619 10.8458L14.9538 10.8184L14.9429 10.7929ZM14.9492 9.86197C14.6777 9.70177 14.2014 9.75262 13.8807 9.97387C13.5611 10.1908 13.5246 10.4986 13.7952 10.6609C14.0619 10.8166 14.5401 10.7702 14.858 10.547C15.177 10.3255 15.2169 10.0205 14.9492 9.86197ZM16.5906 13.5721C17.1398 13.5721 17.7027 13.4206 18.1265 12.9716C18.4524 12.6074 18.602 12.0655 18.6537 11.8423C18.8222 11.1026 18.6909 10.7573 18.5262 10.547C18.2757 10.2263 17.8331 10.1234 17.3739 10.1234C17.0979 10.1234 16.4403 10.1507 15.9266 10.6244C15.5576 10.966 15.3872 11.4296 15.2844 11.8739C15.1806 12.3269 15.0612 13.142 15.8109 13.4455C16.0422 13.5448 16.3757 13.5721 16.5906 13.5721ZM16.5477 11.9078C16.6743 11.3477 16.8239 10.8776 17.2053 10.8776C17.5043 10.8776 17.526 11.2274 17.3931 11.7893C17.3693 11.9141 17.2602 12.3779 17.1126 12.5753C17.0094 12.7211 16.8876 12.8095 16.7526 12.8095C16.7126 12.8095 16.4741 12.8095 16.4703 12.4553C16.4685 12.2804 16.5042 12.1018 16.5477 11.9078ZM20.0264 13.5001L20.0693 13.4564C20.1302 13.1339 20.1402 13.0582 20.2749 12.4052C20.3424 12.0955 20.4819 11.4152 20.5473 11.1728C20.6714 11.1152 20.7915 11.0588 20.9118 11.0588C21.1877 11.0588 21.1541 11.3011 21.1431 11.3977C21.1331 11.56 21.0318 12.089 20.9262 12.5435L20.8607 12.8368C20.8106 13.0537 20.756 13.264 20.7077 13.4791L20.7287 13.522C21.2927 13.492 21.4574 13.492 21.9401 13.5001L21.9984 13.4564C22.083 12.9524 22.106 12.8177 22.2645 12.0845L22.34 11.7475C22.4912 11.0879 22.5677 10.7539 22.4556 10.4815C22.3319 10.1762 22.0413 10.1026 21.7799 10.1026C21.6066 10.1026 21.2889 10.1443 21.0065 10.2838C20.9055 10.3366 20.8043 10.3975 20.705 10.4587L20.7915 10.1236L20.745 10.0669C20.1429 10.189 20.0055 10.2053 19.4498 10.2838L19.407 10.3147C19.3397 10.8503 19.2849 11.2528 19.0455 12.3059C18.9537 12.6953 18.8602 13.0842 18.7649 13.4728L18.7904 13.522C19.3614 13.492 19.5318 13.492 20.0264 13.5001ZM24.1691 13.5218C24.2045 13.3487 24.4151 12.3233 24.4169 12.3233C24.4169 12.3233 24.5961 11.5708 24.6072 11.5435C24.6072 11.5435 24.6636 11.4652 24.72 11.4341H24.803C25.5863 11.4341 26.4708 11.4341 27.164 10.9241C27.6357 10.5743 27.9582 10.0579 28.1021 9.43012C28.1394 9.27622 28.1669 9.09322 28.1669 8.91022C28.1669 8.66977 28.1187 8.43187 27.9792 8.24602C27.6257 7.75147 26.9217 7.74232 26.109 7.73857L25.7085 7.74232C24.6683 7.75522 24.2511 7.75147 24.0797 7.73047C24.0653 7.80622 24.038 7.94107 24.038 7.94107C24.038 7.94107 23.6654 9.66802 23.6654 9.67072L22.7316 13.5155C23.6399 13.5046 24.0123 13.5046 24.1691 13.5218ZM24.8595 10.454C24.8595 10.454 25.2555 8.73052 25.2537 8.73712L25.2666 8.64862L25.2722 8.58142L25.4306 8.59762C25.4306 8.59762 26.2476 8.66782 26.2667 8.66962C26.5892 8.79442 26.7221 9.11602 26.6294 9.53572C26.5446 9.91942 26.2959 10.2419 25.9761 10.3976C25.7129 10.5296 25.3904 10.5406 25.0581 10.5406H24.8432L24.8595 10.454ZM27.3261 11.9398C27.2214 12.386 27.1011 13.2013 27.8471 13.4918C28.085 13.5929 28.2981 13.6231 28.5146 13.6121C28.7435 13.5998 28.9554 13.4851 29.1518 13.3199L29.0985 13.5238L29.1324 13.5673C29.669 13.5448 29.8355 13.5448 30.4167 13.5493L30.4695 13.5091C30.5543 13.01 30.6344 12.5255 30.855 11.5708C30.9624 11.1136 31.0697 10.6607 31.1799 10.2053L31.1627 10.1552C30.5625 10.2664 30.4022 10.2902 29.8247 10.372L29.7809 10.4077C29.775 10.4542 29.7689 10.4987 29.7633 10.5433C29.6736 10.3982 29.5434 10.2743 29.3427 10.1972C29.0859 10.0961 28.4829 10.2263 27.9647 10.6982C27.6003 11.0353 27.4254 11.497 27.3261 11.9398ZM28.5867 11.9671C28.7153 11.4169 28.8627 10.9516 29.2452 10.9516C29.487 10.9516 29.6144 11.1746 29.5884 11.5552C29.5662 11.6581 29.5433 11.7608 29.5194 11.8633C29.4812 12.0268 29.4398 12.1888 29.3994 12.3511C29.3583 12.4621 29.3105 12.5668 29.2581 12.6365C29.1597 12.776 28.9256 12.8624 28.7907 12.8624C28.7525 12.8624 28.5165 12.8624 28.5084 12.5144C28.5065 12.3413 28.5422 12.163 28.5867 11.9671ZM35.1696 10.1507L35.1231 10.0978C34.5293 10.2181 34.4217 10.2373 33.8762 10.3109L33.836 10.351C33.8342 10.3576 33.8325 10.3675 33.8297 10.3766L33.8279 10.3676C33.4217 11.3048 33.4335 11.1026 33.1029 11.8403C33.101 11.8067 33.101 11.7859 33.0992 11.7502L33.0164 10.1507L32.9645 10.0978C32.3423 10.2181 32.3276 10.2373 31.7531 10.3109L31.7082 10.351C31.7019 10.3702 31.7019 10.3912 31.6982 10.414L31.7019 10.4222C31.7738 10.7891 31.7565 10.7072 31.8285 11.2865C31.8621 11.5708 31.907 11.8567 31.9404 12.1375C31.9971 12.6073 32.0289 12.8386 32.0981 13.5557C31.7102 14.1959 31.6182 14.4383 31.2446 15.0002L31.2473 15.0058L30.9842 15.4219C30.9542 15.4657 30.9269 15.4957 30.8886 15.5086C30.8466 15.5293 30.792 15.533 30.7163 15.533H30.5705L30.3539 16.2536L31.0971 16.2664C31.5333 16.2646 31.8075 16.0606 31.9551 15.7864L32.4225 14.9855H32.415L32.4642 14.9291C32.7786 14.2525 35.1696 10.1507 35.1696 10.1507Z" fill="#FEFEFE"/>
</g>
<defs>
<clipPath id="clip0_4160_12519">
<rect width="38.4" height="24" fill="white" transform="translate(0.422119)"/>
</clipPath>
</defs>
</svg>
