<svg width="64" height="21" viewBox="0 0 64 21" fill="none" xmlns="http://www.w3.org/2000/svg">
<path d="M33.0993 6.68662C33.0628 9.6003 35.665 11.2262 37.6253 12.1929C39.6393 13.1847 40.3158 13.8208 40.3078 14.7079C40.2928 16.0653 38.7013 16.6644 37.212 16.6877C34.6138 16.7284 33.103 15.9777 31.902 15.41L30.966 19.8425C32.171 20.4044 34.4022 20.8945 36.716 20.916C42.1473 20.916 45.7005 18.2027 45.7197 13.9959C45.741 8.65682 38.4228 8.3613 38.4728 5.97489C38.49 5.25128 39.1723 4.47909 40.6673 4.28275C41.4073 4.18357 43.45 4.10767 45.766 5.18701L46.675 0.89846C45.4295 0.439497 43.8288 1.52588e-05 41.8358 1.52588e-05C36.7238 1.52588e-05 33.1283 2.75026 33.0993 6.68662ZM55.4095 0.369411C54.4178 0.369411 53.582 0.954882 53.209 1.85333L45.4507 20.601H50.878L51.958 17.5803H58.59L59.2165 20.601H64L59.8257 0.369411H55.4095ZM56.1688 5.83473L57.735 13.4319H53.4455L56.1688 5.83473ZM26.519 0.369665L22.241 20.6008H27.4128L31.6887 0.36916L26.519 0.369665ZM18.8682 0.369665L13.4853 14.1398L11.3077 2.43121C11.0522 1.12415 10.0433 0.369411 8.92275 0.369411H0.12325L0 0.956905C1.8065 1.35363 3.859 1.9935 5.1025 2.67815C5.8635 3.09638 6.0805 3.46198 6.3305 4.45581L10.4548 20.601H15.92L24.299 0.369411L18.8682 0.369665Z" fill="url(#paint0_linear_239_25962)"/>
<defs>
<linearGradient id="paint0_linear_239_25962" x1="2942.34" y1="62.8735" x2="3003.61" y2="-2085.19" gradientUnits="userSpaceOnUse">
<stop stop-color="#222357"/>
<stop offset="1" stop-color="#254AA5"/>
</linearGradient>
</defs>
</svg>
