<svg width="50" height="50" viewBox="0 0 50 50" fill="none" xmlns="http://www.w3.org/2000/svg">
<path d="M44.1133 20.082C43.377 19.3125 42.6152 18.5195 42.3281 17.8223C42.0625 17.1836 42.0469 16.125 42.0312 15.0996C42.002 13.1934 41.9707 11.0332 40.4688 9.53125C38.9668 8.0293 36.8066 7.99805 34.9004 7.96875C33.875 7.95312 32.8164 7.9375 32.1777 7.67188C31.4824 7.38477 30.6875 6.62305 29.918 5.88672C28.5703 4.5918 27.0391 3.125 25 3.125C22.9609 3.125 21.4316 4.5918 20.082 5.88672C19.3125 6.62305 18.5195 7.38477 17.8223 7.67188C17.1875 7.9375 16.125 7.95312 15.0996 7.96875C13.1934 7.99805 11.0332 8.0293 9.53125 9.53125C8.0293 11.0332 8.00781 13.1934 7.96875 15.0996C7.95312 16.125 7.9375 17.1836 7.67188 17.8223C7.38477 18.5176 6.62305 19.3125 5.88672 20.082C4.5918 21.4297 3.125 22.9609 3.125 25C3.125 27.0391 4.5918 28.5684 5.88672 29.918C6.62305 30.6875 7.38477 31.4805 7.67188 32.1777C7.9375 32.8164 7.95312 33.875 7.96875 34.9004C7.99805 36.8066 8.0293 38.9668 9.53125 40.4688C11.0332 41.9707 13.1934 42.002 15.0996 42.0312C16.125 42.0469 17.1836 42.0625 17.8223 42.3281C18.5176 42.6152 19.3125 43.377 20.082 44.1133C21.4297 45.4082 22.9609 46.875 25 46.875C27.0391 46.875 28.5684 45.4082 29.918 44.1133C30.6875 43.377 31.4805 42.6152 32.1777 42.3281C32.8164 42.0625 33.875 42.0469 34.9004 42.0312C36.8066 42.002 38.9668 41.9707 40.4688 40.4688C41.9707 38.9668 42.002 36.8066 42.0312 34.9004C42.0469 33.875 42.0625 32.8164 42.3281 32.1777C42.6152 31.4824 43.377 30.6875 44.1133 29.918C45.4082 28.5703 46.875 27.0391 46.875 25C46.875 22.9609 45.4082 21.4316 44.1133 20.082ZM33.918 21.418L22.9805 32.3555C22.8354 32.5007 22.663 32.616 22.4733 32.6946C22.2837 32.7733 22.0803 32.8137 21.875 32.8137C21.6697 32.8137 21.4663 32.7733 21.2767 32.6946C21.087 32.616 20.9146 32.5007 20.7695 32.3555L16.082 27.668C15.9369 27.5228 15.8217 27.3505 15.7431 27.1608C15.6646 26.9711 15.6241 26.7678 15.6241 26.5625C15.6241 26.3572 15.6646 26.1539 15.7431 25.9642C15.8217 25.7745 15.9369 25.6022 16.082 25.457C16.3752 25.1638 16.7729 24.9991 17.1875 24.9991C17.3928 24.9991 17.5961 25.0396 17.7858 25.1181C17.9755 25.1967 18.1478 25.3119 18.293 25.457L21.875 29.041L31.707 19.207C31.8522 19.0619 32.0245 18.9467 32.2142 18.8681C32.4039 18.7896 32.6072 18.7491 32.8125 18.7491C33.0178 18.7491 33.2211 18.7896 33.4108 18.8681C33.6005 18.9467 33.7728 19.0619 33.918 19.207C34.0631 19.3522 34.1783 19.5245 34.2569 19.7142C34.3354 19.9039 34.3759 20.1072 34.3759 20.3125C34.3759 20.5178 34.3354 20.7211 34.2569 20.9108C34.1783 21.1005 34.0631 21.2728 33.918 21.418Z" fill="#FFC107"/>
<circle cx="24" cy="25" r="12" fill="#FFC107"/>
<path d="M22 36.0281C22 35.3725 22.2634 34.7438 22.7322 34.2802C23.2011 33.8166 23.837 33.5562 24.5 33.5562C25.163 33.5562 25.7989 33.8166 26.2678 34.2802C26.7366 34.7438 27 35.3725 27 36.0281C27 36.6837 26.7366 37.3124 26.2678 37.776C25.7989 38.2396 25.163 38.5 24.5 38.5C23.837 38.5 23.2011 38.2396 22.7322 37.776C22.2634 37.3124 22 36.6837 22 36.0281ZM25.75 29.5393H23.25C23.0781 29.5393 22.9375 29.4003 22.9375 29.2303V11.309C22.9375 11.139 23.0781 11 23.25 11H25.75C25.9219 11 26.0625 11.139 26.0625 11.309V29.2303C26.0625 29.4003 25.9219 29.5393 25.75 29.5393Z" fill="white"/>
</svg>
